<svg width="1267.2" height="756.8000000000001" xmlns="http://www.w3.org/2000/svg" xmlns:xlink="http://www.w3.org/1999/xlink"><line x1="57.0" y1="7.5" x2="57.0" y2="32.0" style="stroke:black; stroke-width:1px;" />
<line x1="57.0" y1="39.5" x2="7.5" y2="64.0" style="stroke:black; stroke-width:1px;" />
<line x1="57.0" y1="39.5" x2="27.0" y2="64.0" style="stroke:black; stroke-width:1px;" />
<line x1="57.0" y1="39.5" x2="44.0" y2="64.0" style="stroke:black; stroke-width:1px;" />
<line x1="57.0" y1="39.5" x2="65.0" y2="64.0" style="stroke:black; stroke-width:1px;" />
<line x1="57.0" y1="39.5" x2="106.5" y2="64.0" style="stroke:black; stroke-width:1px;" />
<line x1="106.5" y1="71.5" x2="36.203125" y2="96.0" style="stroke:black; stroke-width:1px;" />
<line x1="36.203125" y1="103.5" x2="36.203125" y2="128.0" style="stroke:black; stroke-width:1px;" />
<line x1="36.203125" y1="135.5" x2="36.203125" y2="160.0" style="stroke:black; stroke-width:1px;" />
<line x1="36.203125" y1="167.5" x2="36.203125" y2="192.0" style="stroke:black; stroke-width:1px;" />
<line x1="106.5" y1="71.5" x2="106.5" y2="96.0" style="stroke:black; stroke-width:1px;" />
<line x1="106.5" y1="71.5" x2="176.796875" y2="96.0" style="stroke:black; stroke-width:1px;" />
<line x1="176.796875" y1="103.5" x2="176.796875" y2="128.0" style="stroke:black; stroke-width:1px;" />
<line x1="176.796875" y1="135.5" x2="69.203125" y2="160.0" style="stroke:black; stroke-width:1px;" />
<line x1="176.796875" y1="135.5" x2="93.703125" y2="160.0" style="stroke:black; stroke-width:1px;" />
<line x1="176.796875" y1="135.5" x2="155.203125" y2="160.0" style="stroke:black; stroke-width:1px;" />
<line x1="155.203125" y1="167.5" x2="155.203125" y2="192.0" style="stroke:black; stroke-width:1px;" />
<line x1="155.203125" y1="199.5" x2="155.203125" y2="224.0" style="stroke:black; stroke-width:1px;" />
<line x1="176.796875" y1="135.5" x2="229.296875" y2="160.0" style="stroke:black; stroke-width:1px;" />
<line x1="176.796875" y1="135.5" x2="284.390625" y2="160.0" style="stroke:black; stroke-width:1px;" />
<line x1="284.390625" y1="167.5" x2="238.328125" y2="192.0" style="stroke:black; stroke-width:1px;" />
<line x1="238.328125" y1="199.5" x2="191.703125" y2="224.0" style="stroke:black; stroke-width:1px;" />
<line x1="191.703125" y1="231.5" x2="143.953125" y2="256.0" style="stroke:black; stroke-width:1px;" />
<line x1="143.953125" y1="263.5" x2="107.953125" y2="288.0" style="stroke:black; stroke-width:1px;" />
<line x1="107.953125" y1="295.5" x2="107.953125" y2="320.0" style="stroke:black; stroke-width:1px;" />
<line x1="107.953125" y1="327.5" x2="81.453125" y2="352.0" style="stroke:black; stroke-width:1px;" />
<line x1="81.453125" y1="359.5" x2="81.453125" y2="384.0" style="stroke:black; stroke-width:1px;" />
<line x1="107.953125" y1="327.5" x2="107.953125" y2="352.0" style="stroke:black; stroke-width:1px;" />
<line x1="107.953125" y1="327.5" x2="134.453125" y2="352.0" style="stroke:black; stroke-width:1px;" />
<line x1="134.453125" y1="359.5" x2="134.453125" y2="384.0" style="stroke:black; stroke-width:1px;" />
<line x1="134.453125" y1="391.5" x2="134.453125" y2="416.0" style="stroke:black; stroke-width:1px;" />
<line x1="143.953125" y1="263.5" x2="143.953125" y2="288.0" style="stroke:black; stroke-width:1px;" />
<line x1="143.953125" y1="263.5" x2="179.953125" y2="288.0" style="stroke:black; stroke-width:1px;" />
<line x1="179.953125" y1="295.5" x2="179.953125" y2="320.0" style="stroke:black; stroke-width:1px;" />
<line x1="179.953125" y1="327.5" x2="164.953125" y2="352.0" style="stroke:black; stroke-width:1px;" />
<line x1="179.953125" y1="327.5" x2="179.953125" y2="352.0" style="stroke:black; stroke-width:1px;" />
<line x1="179.953125" y1="327.5" x2="194.953125" y2="352.0" style="stroke:black; stroke-width:1px;" />
<line x1="191.703125" y1="231.5" x2="191.703125" y2="256.0" style="stroke:black; stroke-width:1px;" />
<line x1="191.703125" y1="231.5" x2="239.453125" y2="256.0" style="stroke:black; stroke-width:1px;" />
<line x1="239.453125" y1="263.5" x2="239.453125" y2="288.0" style="stroke:black; stroke-width:1px;" />
<line x1="239.453125" y1="295.5" x2="212.953125" y2="320.0" style="stroke:black; stroke-width:1px;" />
<line x1="212.953125" y1="327.5" x2="212.953125" y2="352.0" style="stroke:black; stroke-width:1px;" />
<line x1="239.453125" y1="295.5" x2="239.453125" y2="320.0" style="stroke:black; stroke-width:1px;" />
<line x1="239.453125" y1="295.5" x2="265.953125" y2="320.0" style="stroke:black; stroke-width:1px;" />
<line x1="265.953125" y1="327.5" x2="265.953125" y2="352.0" style="stroke:black; stroke-width:1px;" />
<line x1="265.953125" y1="359.5" x2="265.953125" y2="384.0" style="stroke:black; stroke-width:1px;" />
<line x1="238.328125" y1="199.5" x2="238.328125" y2="224.0" style="stroke:black; stroke-width:1px;" />
<line x1="238.328125" y1="199.5" x2="284.953125" y2="224.0" style="stroke:black; stroke-width:1px;" />
<line x1="284.953125" y1="231.5" x2="284.953125" y2="256.0" style="stroke:black; stroke-width:1px;" />
<line x1="284.953125" y1="263.5" x2="269.953125" y2="288.0" style="stroke:black; stroke-width:1px;" />
<line x1="284.953125" y1="263.5" x2="284.953125" y2="288.0" style="stroke:black; stroke-width:1px;" />
<line x1="284.953125" y1="263.5" x2="299.953125" y2="288.0" style="stroke:black; stroke-width:1px;" />
<line x1="284.390625" y1="167.5" x2="284.390625" y2="192.0" style="stroke:black; stroke-width:1px;" />
<line x1="284.390625" y1="167.5" x2="330.453125" y2="192.0" style="stroke:black; stroke-width:1px;" />
<line x1="330.453125" y1="199.5" x2="330.453125" y2="224.0" style="stroke:black; stroke-width:1px;" />
<line x1="330.453125" y1="231.5" x2="318.953125" y2="256.0" style="stroke:black; stroke-width:1px;" />
<line x1="330.453125" y1="231.5" x2="341.953125" y2="256.0" style="stroke:black; stroke-width:1px;" />
<line x1="341.953125" y1="263.5" x2="341.953125" y2="288.0" style="stroke:black; stroke-width:1px;" />
<rect x="212.828125" y="192.0" width="51.0" height="15.0" style="fill:orange; stroke:rgb(0,0,0);" rx="1"/>
<text x="214" y="201" style="font-family:sans-serif;font-size:10px;">
statement
</text>
<rect x="39.0" y="64.0" width="10.0" height="15.0" style="fill:orange; stroke:rgb(0,0,0);" rx="1"/>
<text x="41" y="73" style="font-family:sans-serif;font-size:10px;">
=
</text>
<rect x="76.453125" y="384.0" width="10.0" height="15.0" style="fill:orange; stroke:rgb(0,0,0);" rx="1"/>
<text x="78" y="393" style="font-family:sans-serif;font-size:10px;">
x
</text>
<rect x="315.953125" y="256.0" width="6.0" height="15.0" style="fill:orange; stroke:rgb(0,0,0);" rx="1"/>
<text x="317" y="265" style="font-family:sans-serif;font-size:10px;">
!
</text>
<rect x="226.453125" y="288.0" width="26.0" height="15.0" style="fill:orange; stroke:rgb(0,0,0);" rx="1"/>
<text x="228" y="297" style="font-family:sans-serif;font-size:10px;">
expr
</text>
<rect x="207.953125" y="352.0" width="10.0" height="15.0" style="fill:orange; stroke:rgb(0,0,0);" rx="1"/>
<text x="209" y="361" style="font-family:sans-serif;font-size:10px;">
x
</text>
<rect x="17.703125" y="160.0" width="37.0" height="15.0" style="fill:orange; stroke:rgb(0,0,0);" rx="1"/>
<text x="19" y="169" style="font-family:sans-serif;font-size:10px;">
consts
</text>
<rect x="36.5" y="32.0" width="41.0" height="15.0" style="fill:orange; stroke:rgb(0,0,0);" rx="1"/>
<text x="38" y="41" style="font-family:sans-serif;font-size:10px;">
varDecl
</text>
<rect x="280.890625" y="192.0" width="7.0" height="15.0" style="fill:orange; stroke:rgb(0,0,0);" rx="1"/>
<text x="282" y="201" style="font-family:sans-serif;font-size:10px;">
;
</text>
<rect x="160.953125" y="352.0" width="8.0" height="15.0" style="fill:orange; stroke:rgb(0,0,0);" rx="1"/>
<text x="162" y="361" style="font-family:sans-serif;font-size:10px;">
f
</text>
<rect x="328.953125" y="256.0" width="26.0" height="15.0" style="fill:orange; stroke:rgb(0,0,0);" rx="1"/>
<text x="330" y="265" style="font-family:sans-serif;font-size:10px;">
expr
</text>
<rect x="222.296875" y="160.0" width="14.0" height="15.0" style="fill:orange; stroke:rgb(0,0,0);" rx="1"/>
<text x="224" y="169" style="font-family:sans-serif;font-size:10px;">
-&gt;
</text>
<rect x="175.953125" y="352.0" width="8.0" height="15.0" style="fill:orange; stroke:rgb(0,0,0);" rx="1"/>
<text x="177" y="361" style="font-family:sans-serif;font-size:10px;">
{
</text>
<rect x="82.453125" y="288.0" width="51.0" height="15.0" style="fill:orange; stroke:rgb(0,0,0);" rx="1"/>
<text x="84" y="297" style="font-family:sans-serif;font-size:10px;">
statement
</text>
<rect x="140.453125" y="288.0" width="7.0" height="15.0" style="fill:orange; stroke:rgb(0,0,0);" rx="1"/>
<text x="142" y="297" style="font-family:sans-serif;font-size:10px;">
;
</text>
<rect x="271.953125" y="256.0" width="26.0" height="15.0" style="fill:orange; stroke:rgb(0,0,0);" rx="1"/>
<text x="273" y="265" style="font-family:sans-serif;font-size:10px;">
expr
</text>
<rect x="213.953125" y="256.0" width="51.0" height="15.0" style="fill:orange; stroke:rgb(0,0,0);" rx="1"/>
<text x="215" y="265" style="font-family:sans-serif;font-size:10px;">
statement
</text>
<rect x="151.203125" y="224.0" width="8.0" height="15.0" style="fill:orange; stroke:rgb(0,0,0);" rx="1"/>
<text x="153" y="233" style="font-family:sans-serif;font-size:10px;">
f
</text>
<rect x="61.703125" y="160.0" width="15.0" height="15.0" style="fill:orange; stroke:rgb(0,0,0);" rx="1"/>
<text x="63" y="169" style="font-family:sans-serif;font-size:10px;">
let
</text>
<rect x="110.703125" y="160.0" width="89.0" height="15.0" style="fill:orange; stroke:rgb(0,0,0);" rx="1"/>
<text x="112" y="169" style="font-family:sans-serif;font-size:10px;">
formalParameters
</text>
<rect x="22.0" y="64.0" width="10.0" height="15.0" style="fill:orange; stroke:rgb(0,0,0);" rx="1"/>
<text x="24" y="73" style="font-family:sans-serif;font-size:10px;">
x
</text>
<rect x="115.953125" y="384.0" width="37.0" height="15.0" style="fill:orange; stroke:rgb(0,0,0);" rx="1"/>
<text x="117" y="393" style="font-family:sans-serif;font-size:10px;">
consts
</text>
<rect x="129.453125" y="416.0" width="10.0" height="15.0" style="fill:orange; stroke:rgb(0,0,0);" rx="1"/>
<text x="131" y="425" style="font-family:sans-serif;font-size:10px;">
0
</text>
<rect x="100.5" y="96.0" width="12.0" height="15.0" style="fill:orange; stroke:rgb(0,0,0);" rx="1"/>
<text x="102" y="105" style="font-family:sans-serif;font-size:10px;">
in
</text>
<rect x="68.453125" y="352.0" width="26.0" height="15.0" style="fill:orange; stroke:rgb(0,0,0);" rx="1"/>
<text x="70" y="361" style="font-family:sans-serif;font-size:10px;">
expr
</text>
<rect x="304.953125" y="192.0" width="51.0" height="15.0" style="fill:orange; stroke:rgb(0,0,0);" rx="1"/>
<text x="306" y="201" style="font-family:sans-serif;font-size:10px;">
statement
</text>
<rect x="101.453125" y="352.0" width="13.0" height="15.0" style="fill:orange; stroke:rgb(0,0,0);" rx="1"/>
<text x="103" y="361" style="font-family:sans-serif;font-size:10px;">
:=
</text>
<rect x="190.953125" y="352.0" width="8.0" height="15.0" style="fill:orange; stroke:rgb(0,0,0);" rx="1"/>
<text x="192" y="361" style="font-family:sans-serif;font-size:10px;">
}
</text>
<rect x="295.953125" y="288.0" width="8.0" height="15.0" style="fill:orange; stroke:rgb(0,0,0);" rx="1"/>
<text x="297" y="297" style="font-family:sans-serif;font-size:10px;">
}
</text>
<rect x="10.703125" y="96.0" width="51.0" height="15.0" style="fill:orange; stroke:rgb(0,0,0);" rx="1"/>
<text x="12" y="105" style="font-family:sans-serif;font-size:10px;">
statement
</text>
<rect x="23.203125" y="128.0" width="26.0" height="15.0" style="fill:orange; stroke:rgb(0,0,0);" rx="1"/>
<text x="25" y="137" style="font-family:sans-serif;font-size:10px;">
expr
</text>
<rect x="260.953125" y="384.0" width="10.0" height="15.0" style="fill:orange; stroke:rgb(0,0,0);" rx="1"/>
<text x="262" y="393" style="font-family:sans-serif;font-size:10px;">
1
</text>
<rect x="151.296875" y="96.0" width="51.0" height="15.0" style="fill:orange; stroke:rgb(0,0,0);" rx="1"/>
<text x="153" y="105" style="font-family:sans-serif;font-size:10px;">
statement
</text>
<rect x="0.0" y="64.0" width="15.0" height="15.0" style="fill:orange; stroke:rgb(0,0,0);" rx="1"/>
<text x="2" y="73" style="font-family:sans-serif;font-size:10px;">
let
</text>
<rect x="232.953125" y="320.0" width="13.0" height="15.0" style="fill:orange; stroke:rgb(0,0,0);" rx="1"/>
<text x="234" y="329" style="font-family:sans-serif;font-size:10px;">
:=
</text>
<rect x="259.453125" y="224.0" width="51.0" height="15.0" style="fill:orange; stroke:rgb(0,0,0);" rx="1"/>
<text x="261" y="233" style="font-family:sans-serif;font-size:10px;">
statement
</text>
<rect x="234.828125" y="224.0" width="7.0" height="15.0" style="fill:orange; stroke:rgb(0,0,0);" rx="1"/>
<text x="236" y="233" style="font-family:sans-serif;font-size:10px;">
;
</text>
<rect x="258.890625" y="160.0" width="51.0" height="15.0" style="fill:orange; stroke:rgb(0,0,0);" rx="1"/>
<text x="260" y="169" style="font-family:sans-serif;font-size:10px;">
statement
</text>
<rect x="317.453125" y="224.0" width="26.0" height="15.0" style="fill:orange; stroke:rgb(0,0,0);" rx="1"/>
<text x="319" y="233" style="font-family:sans-serif;font-size:10px;">
expr
</text>
<rect x="35.0" y="0.0" width="44.0" height="15.0" style="fill:orange; stroke:rgb(0,0,0);" rx="1"/>
<text x="37" y="9" style="font-family:sans-serif;font-size:10px;">
program
</text>
<rect x="166.203125" y="224.0" width="51.0" height="15.0" style="fill:orange; stroke:rgb(0,0,0);" rx="1"/>
<text x="168" y="233" style="font-family:sans-serif;font-size:10px;">
statement
</text>
<rect x="188.203125" y="256.0" width="7.0" height="15.0" style="fill:orange; stroke:rgb(0,0,0);" rx="1"/>
<text x="190" y="265" style="font-family:sans-serif;font-size:10px;">
;
</text>
<rect x="252.953125" y="320.0" width="26.0" height="15.0" style="fill:orange; stroke:rgb(0,0,0);" rx="1"/>
<text x="254" y="329" style="font-family:sans-serif;font-size:10px;">
expr
</text>
<rect x="81.0" y="64.0" width="51.0" height="15.0" style="fill:orange; stroke:rgb(0,0,0);" rx="1"/>
<text x="83" y="73" style="font-family:sans-serif;font-size:10px;">
statement
</text>
<rect x="144.796875" y="128.0" width="64.0" height="15.0" style="fill:orange; stroke:rgb(0,0,0);" rx="1"/>
<text x="146" y="137" style="font-family:sans-serif;font-size:10px;">
functionDecl
</text>
<rect x="31.203125" y="192.0" width="10.0" height="15.0" style="fill:orange; stroke:rgb(0,0,0);" rx="1"/>
<text x="33" y="201" style="font-family:sans-serif;font-size:10px;">
0
</text>
<rect x="336.953125" y="288.0" width="10.0" height="15.0" style="fill:orange; stroke:rgb(0,0,0);" rx="1"/>
<text x="338" y="297" style="font-family:sans-serif;font-size:10px;">
x
</text>
<rect x="154.453125" y="288.0" width="51.0" height="15.0" style="fill:orange; stroke:rgb(0,0,0);" rx="1"/>
<text x="156" y="297" style="font-family:sans-serif;font-size:10px;">
statement
</text>
<rect x="118.453125" y="256.0" width="51.0" height="15.0" style="fill:orange; stroke:rgb(0,0,0);" rx="1"/>
<text x="120" y="265" style="font-family:sans-serif;font-size:10px;">
statement
</text>
<rect x="83.703125" y="160.0" width="20.0" height="15.0" style="fill:orange; stroke:rgb(0,0,0);" rx="1"/>
<text x="85" y="169" style="font-family:sans-serif;font-size:10px;">
fun
</text>
<rect x="113.703125" y="192.0" width="83.0" height="15.0" style="fill:orange; stroke:rgb(0,0,0);" rx="1"/>
<text x="115" y="201" style="font-family:sans-serif;font-size:10px;">
formalParameter
</text>
<rect x="166.953125" y="320.0" width="26.0" height="15.0" style="fill:orange; stroke:rgb(0,0,0);" rx="1"/>
<text x="168" y="329" style="font-family:sans-serif;font-size:10px;">
expr
</text>
<rect x="199.953125" y="320.0" width="26.0" height="15.0" style="fill:orange; stroke:rgb(0,0,0);" rx="1"/>
<text x="201" y="329" style="font-family:sans-serif;font-size:10px;">
expr
</text>
<rect x="265.953125" y="288.0" width="8.0" height="15.0" style="fill:orange; stroke:rgb(0,0,0);" rx="1"/>
<text x="267" y="297" style="font-family:sans-serif;font-size:10px;">
f
</text>
<rect x="94.953125" y="320.0" width="26.0" height="15.0" style="fill:orange; stroke:rgb(0,0,0);" rx="1"/>
<text x="96" y="329" style="font-family:sans-serif;font-size:10px;">
expr
</text>
<rect x="56.0" y="64.0" width="18.0" height="15.0" style="fill:orange; stroke:rgb(0,0,0);" rx="1"/>
<text x="58" y="73" style="font-family:sans-serif;font-size:10px;">
ref
</text>
<rect x="247.453125" y="352.0" width="37.0" height="15.0" style="fill:orange; stroke:rgb(0,0,0);" rx="1"/>
<text x="249" y="361" style="font-family:sans-serif;font-size:10px;">
consts
</text>
<rect x="121.453125" y="352.0" width="26.0" height="15.0" style="fill:orange; stroke:rgb(0,0,0);" rx="1"/>
<text x="123" y="361" style="font-family:sans-serif;font-size:10px;">
expr
</text>
<rect x="280.953125" y="288.0" width="8.0" height="15.0" style="fill:orange; stroke:rgb(0,0,0);" rx="1"/>
<text x="282" y="297" style="font-family:sans-serif;font-size:10px;">
{
</text>
</svg>