<svg width="1250.7" height="790.9000000000001" xmlns="http://www.w3.org/2000/svg" xmlns:xlink="http://www.w3.org/1999/xlink"><line x1="126.5" y1="7.5" x2="126.5" y2="32.0" style="stroke:black; stroke-width:1px;" />
<line x1="126.5" y1="39.5" x2="126.5" y2="64.0" style="stroke:black; stroke-width:1px;" />
<line x1="126.5" y1="71.5" x2="7.5" y2="96.0" style="stroke:black; stroke-width:1px;" />
<line x1="126.5" y1="71.5" x2="61.0" y2="96.0" style="stroke:black; stroke-width:1px;" />
<line x1="126.5" y1="71.5" x2="151.5" y2="96.0" style="stroke:black; stroke-width:1px;" />
<line x1="151.5" y1="103.5" x2="151.5" y2="128.0" style="stroke:black; stroke-width:1px;" />
<line x1="151.5" y1="135.5" x2="151.5" y2="160.0" style="stroke:black; stroke-width:1px;" />
<line x1="126.5" y1="71.5" x2="208.0" y2="96.0" style="stroke:black; stroke-width:1px;" />
<line x1="126.5" y1="71.5" x2="245.5" y2="96.0" style="stroke:black; stroke-width:1px;" />
<line x1="245.5" y1="103.5" x2="245.5" y2="128.0" style="stroke:black; stroke-width:1px;" />
<line x1="245.5" y1="135.5" x2="245.5" y2="160.0" style="stroke:black; stroke-width:1px;" />
<line x1="245.5" y1="167.5" x2="170.0" y2="192.0" style="stroke:black; stroke-width:1px;" />
<line x1="245.5" y1="167.5" x2="189.5" y2="192.0" style="stroke:black; stroke-width:1px;" />
<line x1="245.5" y1="167.5" x2="206.5" y2="192.0" style="stroke:black; stroke-width:1px;" />
<line x1="245.5" y1="167.5" x2="227.5" y2="192.0" style="stroke:black; stroke-width:1px;" />
<line x1="245.5" y1="167.5" x2="256.5" y2="192.0" style="stroke:black; stroke-width:1px;" />
<line x1="256.5" y1="199.5" x2="256.5" y2="224.0" style="stroke:black; stroke-width:1px;" />
<line x1="256.5" y1="231.5" x2="256.5" y2="256.0" style="stroke:black; stroke-width:1px;" />
<line x1="245.5" y1="167.5" x2="282.5" y2="192.0" style="stroke:black; stroke-width:1px;" />
<line x1="245.5" y1="167.5" x2="321.0" y2="192.0" style="stroke:black; stroke-width:1px;" />
<line x1="321.0" y1="199.5" x2="321.0" y2="224.0" style="stroke:black; stroke-width:1px;" />
<line x1="321.0" y1="231.5" x2="321.0" y2="256.0" style="stroke:black; stroke-width:1px;" />
<line x1="321.0" y1="263.5" x2="134.21142578125" y2="288.0" style="stroke:black; stroke-width:1px;" />
<line x1="321.0" y1="263.5" x2="157.71142578125" y2="288.0" style="stroke:black; stroke-width:1px;" />
<line x1="321.0" y1="263.5" x2="178.71142578125" y2="288.0" style="stroke:black; stroke-width:1px;" />
<line x1="321.0" y1="263.5" x2="203.71142578125" y2="288.0" style="stroke:black; stroke-width:1px;" />
<line x1="203.71142578125" y1="295.5" x2="177.21142578125" y2="320.0" style="stroke:black; stroke-width:1px;" />
<line x1="203.71142578125" y1="295.5" x2="230.21142578125" y2="320.0" style="stroke:black; stroke-width:1px;" />
<line x1="230.21142578125" y1="327.5" x2="230.21142578125" y2="352.0" style="stroke:black; stroke-width:1px;" />
<line x1="230.21142578125" y1="359.5" x2="230.21142578125" y2="384.0" style="stroke:black; stroke-width:1px;" />
<line x1="230.21142578125" y1="391.5" x2="222.71142578125" y2="416.0" style="stroke:black; stroke-width:1px;" />
<line x1="230.21142578125" y1="391.5" x2="237.71142578125" y2="416.0" style="stroke:black; stroke-width:1px;" />
<line x1="321.0" y1="263.5" x2="349.5" y2="288.0" style="stroke:black; stroke-width:1px;" />
<line x1="321.0" y1="263.5" x2="507.78857421875" y2="288.0" style="stroke:black; stroke-width:1px;" />
<line x1="507.78857421875" y1="295.5" x2="453.10009765625" y2="320.0" style="stroke:black; stroke-width:1px;" />
<line x1="453.10009765625" y1="327.5" x2="398.97314453125" y2="352.0" style="stroke:black; stroke-width:1px;" />
<line x1="398.97314453125" y1="359.5" x2="336.21923828125" y2="384.0" style="stroke:black; stroke-width:1px;" />
<line x1="336.21923828125" y1="391.5" x2="274.21142578125" y2="416.0" style="stroke:black; stroke-width:1px;" />
<line x1="274.21142578125" y1="423.5" x2="205.94580078125" y2="448.0" style="stroke:black; stroke-width:1px;" />
<line x1="205.94580078125" y1="455.5" x2="149.41455078125" y2="480.0" style="stroke:black; stroke-width:1px;" />
<line x1="149.41455078125" y1="487.5" x2="99.85205078125" y2="512.0" style="stroke:black; stroke-width:1px;" />
<line x1="99.85205078125" y1="519.5" x2="56.47705078125" y2="544.0" style="stroke:black; stroke-width:1px;" />
<line x1="56.47705078125" y1="551.5" x2="56.47705078125" y2="576.0" style="stroke:black; stroke-width:1px;" />
<line x1="56.47705078125" y1="583.5" x2="34.72705078125" y2="608.0" style="stroke:black; stroke-width:1px;" />
<line x1="56.47705078125" y1="583.5" x2="78.22705078125" y2="608.0" style="stroke:black; stroke-width:1px;" />
<line x1="78.22705078125" y1="615.5" x2="78.22705078125" y2="640.0" style="stroke:black; stroke-width:1px;" />
<line x1="78.22705078125" y1="647.5" x2="78.22705078125" y2="672.0" style="stroke:black; stroke-width:1px;" />
<line x1="99.85205078125" y1="519.5" x2="99.85205078125" y2="544.0" style="stroke:black; stroke-width:1px;" />
<line x1="99.85205078125" y1="519.5" x2="143.22705078125" y2="544.0" style="stroke:black; stroke-width:1px;" />
<line x1="143.22705078125" y1="551.5" x2="143.22705078125" y2="576.0" style="stroke:black; stroke-width:1px;" />
<line x1="143.22705078125" y1="583.5" x2="116.72705078125" y2="608.0" style="stroke:black; stroke-width:1px;" />
<line x1="116.72705078125" y1="615.5" x2="116.72705078125" y2="640.0" style="stroke:black; stroke-width:1px;" />
<line x1="143.22705078125" y1="583.5" x2="143.22705078125" y2="608.0" style="stroke:black; stroke-width:1px;" />
<line x1="143.22705078125" y1="583.5" x2="169.72705078125" y2="608.0" style="stroke:black; stroke-width:1px;" />
<line x1="169.72705078125" y1="615.5" x2="169.72705078125" y2="640.0" style="stroke:black; stroke-width:1px;" />
<line x1="169.72705078125" y1="647.5" x2="169.72705078125" y2="672.0" style="stroke:black; stroke-width:1px;" />
<line x1="149.41455078125" y1="487.5" x2="149.41455078125" y2="512.0" style="stroke:black; stroke-width:1px;" />
<line x1="149.41455078125" y1="487.5" x2="198.97705078125" y2="512.0" style="stroke:black; stroke-width:1px;" />
<line x1="198.97705078125" y1="519.5" x2="198.97705078125" y2="544.0" style="stroke:black; stroke-width:1px;" />
<line x1="198.97705078125" y1="551.5" x2="184.22705078125" y2="576.0" style="stroke:black; stroke-width:1px;" />
<line x1="198.97705078125" y1="551.5" x2="213.72705078125" y2="576.0" style="stroke:black; stroke-width:1px;" />
<line x1="213.72705078125" y1="583.5" x2="213.72705078125" y2="608.0" style="stroke:black; stroke-width:1px;" />
<line x1="213.72705078125" y1="615.5" x2="213.72705078125" y2="640.0" style="stroke:black; stroke-width:1px;" />
<line x1="213.72705078125" y1="647.5" x2="206.22705078125" y2="672.0" style="stroke:black; stroke-width:1px;" />
<line x1="213.72705078125" y1="647.5" x2="221.22705078125" y2="672.0" style="stroke:black; stroke-width:1px;" />
<line x1="205.94580078125" y1="455.5" x2="205.94580078125" y2="480.0" style="stroke:black; stroke-width:1px;" />
<line x1="205.94580078125" y1="455.5" x2="262.47705078125" y2="480.0" style="stroke:black; stroke-width:1px;" />
<line x1="262.47705078125" y1="487.5" x2="262.47705078125" y2="512.0" style="stroke:black; stroke-width:1px;" />
<line x1="262.47705078125" y1="519.5" x2="239.47705078125" y2="544.0" style="stroke:black; stroke-width:1px;" />
<line x1="262.47705078125" y1="519.5" x2="285.47705078125" y2="544.0" style="stroke:black; stroke-width:1px;" />
<line x1="285.47705078125" y1="551.5" x2="285.47705078125" y2="576.0" style="stroke:black; stroke-width:1px;" />
<line x1="285.47705078125" y1="583.5" x2="285.47705078125" y2="608.0" style="stroke:black; stroke-width:1px;" />
<line x1="274.21142578125" y1="423.5" x2="274.21142578125" y2="448.0" style="stroke:black; stroke-width:1px;" />
<line x1="274.21142578125" y1="423.5" x2="342.47705078125" y2="448.0" style="stroke:black; stroke-width:1px;" />
<line x1="342.47705078125" y1="455.5" x2="342.47705078125" y2="480.0" style="stroke:black; stroke-width:1px;" />
<line x1="342.47705078125" y1="487.5" x2="315.97705078125" y2="512.0" style="stroke:black; stroke-width:1px;" />
<line x1="315.97705078125" y1="519.5" x2="315.97705078125" y2="544.0" style="stroke:black; stroke-width:1px;" />
<line x1="342.47705078125" y1="487.5" x2="342.47705078125" y2="512.0" style="stroke:black; stroke-width:1px;" />
<line x1="342.47705078125" y1="487.5" x2="368.97705078125" y2="512.0" style="stroke:black; stroke-width:1px;" />
<line x1="368.97705078125" y1="519.5" x2="368.97705078125" y2="544.0" style="stroke:black; stroke-width:1px;" />
<line x1="368.97705078125" y1="551.5" x2="368.97705078125" y2="576.0" style="stroke:black; stroke-width:1px;" />
<line x1="336.21923828125" y1="391.5" x2="336.21923828125" y2="416.0" style="stroke:black; stroke-width:1px;" />
<line x1="336.21923828125" y1="391.5" x2="398.22705078125" y2="416.0" style="stroke:black; stroke-width:1px;" />
<line x1="398.22705078125" y1="423.5" x2="398.22705078125" y2="448.0" style="stroke:black; stroke-width:1px;" />
<line x1="398.22705078125" y1="455.5" x2="383.47705078125" y2="480.0" style="stroke:black; stroke-width:1px;" />
<line x1="398.22705078125" y1="455.5" x2="412.97705078125" y2="480.0" style="stroke:black; stroke-width:1px;" />
<line x1="412.97705078125" y1="487.5" x2="412.97705078125" y2="512.0" style="stroke:black; stroke-width:1px;" />
<line x1="412.97705078125" y1="519.5" x2="412.97705078125" y2="544.0" style="stroke:black; stroke-width:1px;" />
<line x1="412.97705078125" y1="551.5" x2="405.47705078125" y2="576.0" style="stroke:black; stroke-width:1px;" />
<line x1="412.97705078125" y1="551.5" x2="420.47705078125" y2="576.0" style="stroke:black; stroke-width:1px;" />
<line x1="398.97314453125" y1="359.5" x2="398.97314453125" y2="384.0" style="stroke:black; stroke-width:1px;" />
<line x1="398.97314453125" y1="359.5" x2="461.72705078125" y2="384.0" style="stroke:black; stroke-width:1px;" />
<line x1="461.72705078125" y1="391.5" x2="461.72705078125" y2="416.0" style="stroke:black; stroke-width:1px;" />
<line x1="461.72705078125" y1="423.5" x2="438.72705078125" y2="448.0" style="stroke:black; stroke-width:1px;" />
<line x1="461.72705078125" y1="423.5" x2="484.72705078125" y2="448.0" style="stroke:black; stroke-width:1px;" />
<line x1="484.72705078125" y1="455.5" x2="484.72705078125" y2="480.0" style="stroke:black; stroke-width:1px;" />
<line x1="484.72705078125" y1="487.5" x2="484.72705078125" y2="512.0" style="stroke:black; stroke-width:1px;" />
<line x1="453.10009765625" y1="327.5" x2="453.10009765625" y2="352.0" style="stroke:black; stroke-width:1px;" />
<line x1="453.10009765625" y1="327.5" x2="507.22705078125" y2="352.0" style="stroke:black; stroke-width:1px;" />
<line x1="507.22705078125" y1="359.5" x2="507.22705078125" y2="384.0" style="stroke:black; stroke-width:1px;" />
<line x1="507.22705078125" y1="391.5" x2="495.72705078125" y2="416.0" style="stroke:black; stroke-width:1px;" />
<line x1="507.22705078125" y1="391.5" x2="518.72705078125" y2="416.0" style="stroke:black; stroke-width:1px;" />
<line x1="518.72705078125" y1="423.5" x2="518.72705078125" y2="448.0" style="stroke:black; stroke-width:1px;" />
<line x1="507.78857421875" y1="295.5" x2="507.78857421875" y2="320.0" style="stroke:black; stroke-width:1px;" />
<line x1="507.78857421875" y1="295.5" x2="562.47705078125" y2="320.0" style="stroke:black; stroke-width:1px;" />
<line x1="562.47705078125" y1="327.5" x2="562.47705078125" y2="352.0" style="stroke:black; stroke-width:1px;" />
<line x1="562.47705078125" y1="359.5" x2="542.22705078125" y2="384.0" style="stroke:black; stroke-width:1px;" />
<line x1="562.47705078125" y1="359.5" x2="582.72705078125" y2="384.0" style="stroke:black; stroke-width:1px;" />
<line x1="582.72705078125" y1="391.5" x2="582.72705078125" y2="416.0" style="stroke:black; stroke-width:1px;" />
<line x1="582.72705078125" y1="423.5" x2="582.72705078125" y2="448.0" style="stroke:black; stroke-width:1px;" />
<line x1="582.72705078125" y1="455.5" x2="575.22705078125" y2="480.0" style="stroke:black; stroke-width:1px;" />
<line x1="582.72705078125" y1="455.5" x2="590.22705078125" y2="480.0" style="stroke:black; stroke-width:1px;" />
<rect x="43.47705078125" y="576.0" width="26.0" height="15.0" style="fill:orange; stroke:rgb(0,0,0);" rx="1"/>
<text x="45" y="585" style="font-family:sans-serif;font-size:10px;">
expr
</text>
<rect x="162.5" y="192.0" width="15.0" height="15.0" style="fill:orange; stroke:rgb(0,0,0);" rx="1"/>
<text x="164" y="201" style="font-family:sans-serif;font-size:10px;">
let
</text>
<rect x="418.22705078125" y="448.0" width="41.0" height="15.0" style="fill:orange; stroke:rgb(0,0,0);" rx="1"/>
<text x="420" y="457" style="font-family:sans-serif;font-size:10px;">
checkId
</text>
<rect x="571.22705078125" y="480.0" width="8.0" height="15.0" style="fill:orange; stroke:rgb(0,0,0);" rx="1"/>
<text x="573" y="489" style="font-family:sans-serif;font-size:10px;">
(
</text>
<rect x="276.47705078125" y="608.0" width="18.0" height="15.0" style="fill:orange; stroke:rgb(0,0,0);" rx="1"/>
<text x="278" y="617" style="font-family:sans-serif;font-size:10px;">
id1
</text>
<rect x="248.71142578125" y="416.0" width="51.0" height="15.0" style="fill:orange; stroke:rgb(0,0,0);" rx="1"/>
<text x="250" y="425" style="font-family:sans-serif;font-size:10px;">
statement
</text>
<rect x="335.97705078125" y="512.0" width="13.0" height="15.0" style="fill:orange; stroke:rgb(0,0,0);" rx="1"/>
<text x="337" y="521" style="font-family:sans-serif;font-size:10px;">
:=
</text>
<rect x="373.47314453125" y="352.0" width="51.0" height="15.0" style="fill:orange; stroke:rgb(0,0,0);" rx="1"/>
<text x="375" y="361" style="font-family:sans-serif;font-size:10px;">
statement
</text>
<rect x="110.0" y="128.0" width="83.0" height="15.0" style="fill:orange; stroke:rgb(0,0,0);" rx="1"/>
<text x="112" y="137" style="font-family:sans-serif;font-size:10px;">
formalParameter
</text>
<rect x="475.72705078125" y="512.0" width="18.0" height="15.0" style="fill:orange; stroke:rgb(0,0,0);" rx="1"/>
<text x="477" y="521" style="font-family:sans-serif;font-size:10px;">
id1
</text>
<rect x="549.47705078125" y="352.0" width="26.0" height="15.0" style="fill:orange; stroke:rgb(0,0,0);" rx="1"/>
<text x="551" y="361" style="font-family:sans-serif;font-size:10px;">
expr
</text>
<rect x="180.44580078125" y="448.0" width="51.0" height="15.0" style="fill:orange; stroke:rgb(0,0,0);" rx="1"/>
<text x="182" y="457" style="font-family:sans-serif;font-size:10px;">
statement
</text>
<rect x="195.22705078125" y="640.0" width="37.0" height="15.0" style="fill:orange; stroke:rgb(0,0,0);" rx="1"/>
<text x="197" y="649" style="font-family:sans-serif;font-size:10px;">
consts
</text>
<rect x="136.72705078125" y="608.0" width="13.0" height="15.0" style="fill:orange; stroke:rgb(0,0,0);" rx="1"/>
<text x="138" y="617" style="font-family:sans-serif;font-size:10px;">
:=
</text>
<rect x="394.47705078125" y="544.0" width="37.0" height="15.0" style="fill:orange; stroke:rgb(0,0,0);" rx="1"/>
<text x="396" y="553" style="font-family:sans-serif;font-size:10px;">
consts
</text>
<rect x="103.72705078125" y="608.0" width="26.0" height="15.0" style="fill:orange; stroke:rgb(0,0,0);" rx="1"/>
<text x="105" y="617" style="font-family:sans-serif;font-size:10px;">
expr
</text>
<rect x="564.22705078125" y="384.0" width="37.0" height="15.0" style="fill:orange; stroke:rgb(0,0,0);" rx="1"/>
<text x="566" y="393" style="font-family:sans-serif;font-size:10px;">
argList
</text>
<rect x="217.22705078125" y="672.0" width="8.0" height="15.0" style="fill:orange; stroke:rgb(0,0,0);" rx="1"/>
<text x="219" y="681" style="font-family:sans-serif;font-size:10px;">
)
</text>
<rect x="586.22705078125" y="480.0" width="8.0" height="15.0" style="fill:orange; stroke:rgb(0,0,0);" rx="1"/>
<text x="588" y="489" style="font-family:sans-serif;font-size:10px;">
)
</text>
<rect x="185.97705078125" y="544.0" width="26.0" height="15.0" style="fill:orange; stroke:rgb(0,0,0);" rx="1"/>
<text x="187" y="553" style="font-family:sans-serif;font-size:10px;">
expr
</text>
<rect x="217.21142578125" y="352.0" width="26.0" height="15.0" style="fill:orange; stroke:rgb(0,0,0);" rx="1"/>
<text x="219" y="361" style="font-family:sans-serif;font-size:10px;">
expr
</text>
<rect x="130.22705078125" y="576.0" width="26.0" height="15.0" style="fill:orange; stroke:rgb(0,0,0);" rx="1"/>
<text x="132" y="585" style="font-family:sans-serif;font-size:10px;">
expr
</text>
<rect x="350.47705078125" y="544.0" width="37.0" height="15.0" style="fill:orange; stroke:rgb(0,0,0);" rx="1"/>
<text x="352" y="553" style="font-family:sans-serif;font-size:10px;">
consts
</text>
<rect x="504.28857421875" y="320.0" width="7.0" height="15.0" style="fill:orange; stroke:rgb(0,0,0);" rx="1"/>
<text x="506" y="329" style="font-family:sans-serif;font-size:10px;">
;
</text>
<rect x="249.47705078125" y="512.0" width="26.0" height="15.0" style="fill:orange; stroke:rgb(0,0,0);" rx="1"/>
<text x="251" y="521" style="font-family:sans-serif;font-size:10px;">
expr
</text>
<rect x="466.22705078125" y="448.0" width="37.0" height="15.0" style="fill:orange; stroke:rgb(0,0,0);" rx="1"/>
<text x="468" y="457" style="font-family:sans-serif;font-size:10px;">
argList
</text>
<rect x="218.97705078125" y="544.0" width="41.0" height="15.0" style="fill:orange; stroke:rgb(0,0,0);" rx="1"/>
<text x="220" y="553" style="font-family:sans-serif;font-size:10px;">
checkId
</text>
<rect x="494.22705078125" y="384.0" width="26.0" height="15.0" style="fill:orange; stroke:rgb(0,0,0);" rx="1"/>
<text x="496" y="393" style="font-family:sans-serif;font-size:10px;">
expr
</text>
<rect x="195.22705078125" y="576.0" width="37.0" height="15.0" style="fill:orange; stroke:rgb(0,0,0);" rx="1"/>
<text x="197" y="585" style="font-family:sans-serif;font-size:10px;">
argList
</text>
<rect x="289.5" y="224.0" width="63.0" height="15.0" style="fill:orange; stroke:rgb(0,0,0);" rx="1"/>
<text x="291" y="233" style="font-family:sans-serif;font-size:10px;">
declarations
</text>
<rect x="59.72705078125" y="608.0" width="37.0" height="15.0" style="fill:orange; stroke:rgb(0,0,0);" rx="1"/>
<text x="61" y="617" style="font-family:sans-serif;font-size:10px;">
argList
</text>
<rect x="394.47705078125" y="480.0" width="37.0" height="15.0" style="fill:orange; stroke:rgb(0,0,0);" rx="1"/>
<text x="396" y="489" style="font-family:sans-serif;font-size:10px;">
argList
</text>
<rect x="276.5" y="192.0" width="12.0" height="15.0" style="fill:orange; stroke:rgb(0,0,0);" rx="1"/>
<text x="278" y="201" style="font-family:sans-serif;font-size:10px;">
in
</text>
<rect x="94.5" y="64.0" width="64.0" height="15.0" style="fill:orange; stroke:rgb(0,0,0);" rx="1"/>
<text x="96" y="73" style="font-family:sans-serif;font-size:10px;">
functionDecl
</text>
<rect x="173.47705078125" y="512.0" width="51.0" height="15.0" style="fill:orange; stroke:rgb(0,0,0);" rx="1"/>
<text x="175" y="521" style="font-family:sans-serif;font-size:10px;">
statement
</text>
<rect x="164.72705078125" y="672.0" width="10.0" height="15.0" style="fill:orange; stroke:rgb(0,0,0);" rx="1"/>
<text x="166" y="681" style="font-family:sans-serif;font-size:10px;">
0
</text>
<rect x="505.72705078125" y="416.0" width="26.0" height="15.0" style="fill:orange; stroke:rgb(0,0,0);" rx="1"/>
<text x="507" y="425" style="font-family:sans-serif;font-size:10px;">
expr
</text>
<rect x="482.28857421875" y="288.0" width="51.0" height="15.0" style="fill:orange; stroke:rgb(0,0,0);" rx="1"/>
<text x="484" y="297" style="font-family:sans-serif;font-size:10px;">
statement
</text>
<rect x="427.60009765625" y="320.0" width="51.0" height="15.0" style="fill:orange; stroke:rgb(0,0,0);" rx="1"/>
<text x="429" y="329" style="font-family:sans-serif;font-size:10px;">
statement
</text>
<rect x="16.72705078125" y="608.0" width="36.0" height="15.0" style="fill:orange; stroke:rgb(0,0,0);" rx="1"/>
<text x="18" y="617" style="font-family:sans-serif;font-size:10px;">
pushId
</text>
<rect x="448.72705078125" y="416.0" width="26.0" height="15.0" style="fill:orange; stroke:rgb(0,0,0);" rx="1"/>
<text x="450" y="425" style="font-family:sans-serif;font-size:10px;">
expr
</text>
<rect x="251.5" y="256.0" width="10.0" height="15.0" style="fill:orange; stroke:rgb(0,0,0);" rx="1"/>
<text x="253" y="265" style="font-family:sans-serif;font-size:10px;">
0
</text>
<rect x="104.5" y="0.0" width="44.0" height="15.0" style="fill:orange; stroke:rgb(0,0,0);" rx="1"/>
<text x="106" y="9" style="font-family:sans-serif;font-size:10px;">
program
</text>
<rect x="332.71923828125" y="416.0" width="7.0" height="15.0" style="fill:orange; stroke:rgb(0,0,0);" rx="1"/>
<text x="334" y="425" style="font-family:sans-serif;font-size:10px;">
;
</text>
<rect x="564.22705078125" y="448.0" width="37.0" height="15.0" style="fill:orange; stroke:rgb(0,0,0);" rx="1"/>
<text x="566" y="457" style="font-family:sans-serif;font-size:10px;">
consts
</text>
<rect x="492.72705078125" y="416.0" width="6.0" height="15.0" style="fill:orange; stroke:rgb(0,0,0);" rx="1"/>
<text x="494" y="425" style="font-family:sans-serif;font-size:10px;">
!
</text>
<rect x="200.72705078125" y="608.0" width="26.0" height="15.0" style="fill:orange; stroke:rgb(0,0,0);" rx="1"/>
<text x="202" y="617" style="font-family:sans-serif;font-size:10px;">
expr
</text>
<rect x="243.5" y="192.0" width="26.0" height="15.0" style="fill:orange; stroke:rgb(0,0,0);" rx="1"/>
<text x="245" y="201" style="font-family:sans-serif;font-size:10px;">
expr
</text>
<rect x="211.71142578125" y="384.0" width="37.0" height="15.0" style="fill:orange; stroke:rgb(0,0,0);" rx="1"/>
<text x="213" y="393" style="font-family:sans-serif;font-size:10px;">
consts
</text>
<rect x="310.97705078125" y="544.0" width="10.0" height="15.0" style="fill:orange; stroke:rgb(0,0,0);" rx="1"/>
<text x="312" y="553" style="font-family:sans-serif;font-size:10px;">
x
</text>
<rect x="238.0" y="224.0" width="37.0" height="15.0" style="fill:orange; stroke:rgb(0,0,0);" rx="1"/>
<text x="240" y="233" style="font-family:sans-serif;font-size:10px;">
consts
</text>
<rect x="372.72705078125" y="416.0" width="51.0" height="15.0" style="fill:orange; stroke:rgb(0,0,0);" rx="1"/>
<text x="374" y="425" style="font-family:sans-serif;font-size:10px;">
statement
</text>
<rect x="0.0" y="96.0" width="15.0" height="15.0" style="fill:orange; stroke:rgb(0,0,0);" rx="1"/>
<text x="2" y="105" style="font-family:sans-serif;font-size:10px;">
let
</text>
<rect x="22.0" y="96.0" width="78.0" height="15.0" style="fill:orange; stroke:rgb(0,0,0);" rx="1"/>
<text x="24" y="105" style="font-family:sans-serif;font-size:10px;">
test_vulnerable
</text>
<rect x="316.97705078125" y="448.0" width="51.0" height="15.0" style="fill:orange; stroke:rgb(0,0,0);" rx="1"/>
<text x="318" y="457" style="font-family:sans-serif;font-size:10px;">
statement
</text>
<rect x="145.91455078125" y="512.0" width="7.0" height="15.0" style="fill:orange; stroke:rgb(0,0,0);" rx="1"/>
<text x="147" y="521" style="font-family:sans-serif;font-size:10px;">
;
</text>
<rect x="69.22705078125" y="672.0" width="18.0" height="15.0" style="fill:orange; stroke:rgb(0,0,0);" rx="1"/>
<text x="71" y="681" style="font-family:sans-serif;font-size:10px;">
id1
</text>
<rect x="123.91455078125" y="480.0" width="51.0" height="15.0" style="fill:orange; stroke:rgb(0,0,0);" rx="1"/>
<text x="125" y="489" style="font-family:sans-serif;font-size:10px;">
statement
</text>
<rect x="214.0" y="160.0" width="63.0" height="15.0" style="fill:orange; stroke:rgb(0,0,0);" rx="1"/>
<text x="216" y="169" style="font-family:sans-serif;font-size:10px;">
variableDecl
</text>
<rect x="272.47705078125" y="576.0" width="26.0" height="15.0" style="fill:orange; stroke:rgb(0,0,0);" rx="1"/>
<text x="274" y="585" style="font-family:sans-serif;font-size:10px;">
expr
</text>
<rect x="270.71142578125" y="448.0" width="7.0" height="15.0" style="fill:orange; stroke:rgb(0,0,0);" rx="1"/>
<text x="272" y="457" style="font-family:sans-serif;font-size:10px;">
;
</text>
<rect x="513.72705078125" y="448.0" width="10.0" height="15.0" style="fill:orange; stroke:rgb(0,0,0);" rx="1"/>
<text x="515" y="457" style="font-family:sans-serif;font-size:10px;">
x
</text>
<rect x="173.71142578125" y="288.0" width="10.0" height="15.0" style="fill:orange; stroke:rgb(0,0,0);" rx="1"/>
<text x="175" y="297" style="font-family:sans-serif;font-size:10px;">
=
</text>
<rect x="569.72705078125" y="416.0" width="26.0" height="15.0" style="fill:orange; stroke:rgb(0,0,0);" rx="1"/>
<text x="571" y="425" style="font-family:sans-serif;font-size:10px;">
expr
</text>
<rect x="95.0" y="32.0" width="63.0" height="15.0" style="fill:orange; stroke:rgb(0,0,0);" rx="1"/>
<text x="97" y="41" style="font-family:sans-serif;font-size:10px;">
declarations
</text>
<rect x="266.97705078125" y="544.0" width="37.0" height="15.0" style="fill:orange; stroke:rgb(0,0,0);" rx="1"/>
<text x="268" y="553" style="font-family:sans-serif;font-size:10px;">
argList
</text>
<rect x="151.22705078125" y="640.0" width="37.0" height="15.0" style="fill:orange; stroke:rgb(0,0,0);" rx="1"/>
<text x="153" y="649" style="font-family:sans-serif;font-size:10px;">
consts
</text>
<rect x="74.35205078125" y="512.0" width="51.0" height="15.0" style="fill:orange; stroke:rgb(0,0,0);" rx="1"/>
<text x="76" y="521" style="font-family:sans-serif;font-size:10px;">
statement
</text>
<rect x="471.72705078125" y="480.0" width="26.0" height="15.0" style="fill:orange; stroke:rgb(0,0,0);" rx="1"/>
<text x="473" y="489" style="font-family:sans-serif;font-size:10px;">
expr
</text>
<rect x="385.22705078125" y="448.0" width="26.0" height="15.0" style="fill:orange; stroke:rgb(0,0,0);" rx="1"/>
<text x="387" y="457" style="font-family:sans-serif;font-size:10px;">
expr
</text>
<rect x="202.22705078125" y="672.0" width="8.0" height="15.0" style="fill:orange; stroke:rgb(0,0,0);" rx="1"/>
<text x="204" y="681" style="font-family:sans-serif;font-size:10px;">
(
</text>
<rect x="30.97705078125" y="544.0" width="51.0" height="15.0" style="fill:orange; stroke:rgb(0,0,0);" rx="1"/>
<text x="32" y="553" style="font-family:sans-serif;font-size:10px;">
statement
</text>
<rect x="302.97705078125" y="512.0" width="26.0" height="15.0" style="fill:orange; stroke:rgb(0,0,0);" rx="1"/>
<text x="304" y="521" style="font-family:sans-serif;font-size:10px;">
expr
</text>
<rect x="190.71142578125" y="288.0" width="26.0" height="15.0" style="fill:orange; stroke:rgb(0,0,0);" rx="1"/>
<text x="192" y="297" style="font-family:sans-serif;font-size:10px;">
expr
</text>
<rect x="218.5" y="192.0" width="18.0" height="15.0" style="fill:orange; stroke:rgb(0,0,0);" rx="1"/>
<text x="220" y="201" style="font-family:sans-serif;font-size:10px;">
ref
</text>
<rect x="214.0" y="128.0" width="63.0" height="15.0" style="fill:orange; stroke:rgb(0,0,0);" rx="1"/>
<text x="216" y="137" style="font-family:sans-serif;font-size:10px;">
declarations
</text>
<rect x="201.5" y="192.0" width="10.0" height="15.0" style="fill:orange; stroke:rgb(0,0,0);" rx="1"/>
<text x="203" y="201" style="font-family:sans-serif;font-size:10px;">
=
</text>
<rect x="379.47705078125" y="480.0" width="8.0" height="15.0" style="fill:orange; stroke:rgb(0,0,0);" rx="1"/>
<text x="381" y="489" style="font-family:sans-serif;font-size:10px;">
f
</text>
<rect x="401.47705078125" y="576.0" width="8.0" height="15.0" style="fill:orange; stroke:rgb(0,0,0);" rx="1"/>
<text x="403" y="585" style="font-family:sans-serif;font-size:10px;">
(
</text>
<rect x="449.60009765625" y="352.0" width="7.0" height="15.0" style="fill:orange; stroke:rgb(0,0,0);" rx="1"/>
<text x="451" y="361" style="font-family:sans-serif;font-size:10px;">
;
</text>
<rect x="147.5" y="160.0" width="8.0" height="15.0" style="fill:orange; stroke:rgb(0,0,0);" rx="1"/>
<text x="149" y="169" style="font-family:sans-serif;font-size:10px;">
f
</text>
<rect x="148.71142578125" y="288.0" width="18.0" height="15.0" style="fill:orange; stroke:rgb(0,0,0);" rx="1"/>
<text x="150" y="297" style="font-family:sans-serif;font-size:10px;">
id1
</text>
<rect x="180.22705078125" y="576.0" width="8.0" height="15.0" style="fill:orange; stroke:rgb(0,0,0);" rx="1"/>
<text x="182" y="585" style="font-family:sans-serif;font-size:10px;">
f
</text>
<rect x="436.22705078125" y="384.0" width="51.0" height="15.0" style="fill:orange; stroke:rgb(0,0,0);" rx="1"/>
<text x="438" y="393" style="font-family:sans-serif;font-size:10px;">
statement
</text>
<rect x="96.35205078125" y="544.0" width="7.0" height="15.0" style="fill:orange; stroke:rgb(0,0,0);" rx="1"/>
<text x="98" y="553" style="font-family:sans-serif;font-size:10px;">
;
</text>
<rect x="329.47705078125" y="480.0" width="26.0" height="15.0" style="fill:orange; stroke:rgb(0,0,0);" rx="1"/>
<text x="331" y="489" style="font-family:sans-serif;font-size:10px;">
expr
</text>
<rect x="536.97705078125" y="320.0" width="51.0" height="15.0" style="fill:orange; stroke:rgb(0,0,0);" rx="1"/>
<text x="538" y="329" style="font-family:sans-serif;font-size:10px;">
statement
</text>
<rect x="126.71142578125" y="288.0" width="15.0" height="15.0" style="fill:orange; stroke:rgb(0,0,0);" rx="1"/>
<text x="128" y="297" style="font-family:sans-serif;font-size:10px;">
let
</text>
<rect x="481.72705078125" y="352.0" width="51.0" height="15.0" style="fill:orange; stroke:rgb(0,0,0);" rx="1"/>
<text x="483" y="361" style="font-family:sans-serif;font-size:10px;">
statement
</text>
<rect x="295.5" y="192.0" width="51.0" height="15.0" style="fill:orange; stroke:rgb(0,0,0);" rx="1"/>
<text x="297" y="201" style="font-family:sans-serif;font-size:10px;">
statement
</text>
<rect x="111.72705078125" y="640.0" width="10.0" height="15.0" style="fill:orange; stroke:rgb(0,0,0);" rx="1"/>
<text x="113" y="649" style="font-family:sans-serif;font-size:10px;">
x
</text>
<rect x="355.97705078125" y="512.0" width="26.0" height="15.0" style="fill:orange; stroke:rgb(0,0,0);" rx="1"/>
<text x="357" y="521" style="font-family:sans-serif;font-size:10px;">
expr
</text>
<rect x="416.47705078125" y="576.0" width="8.0" height="15.0" style="fill:orange; stroke:rgb(0,0,0);" rx="1"/>
<text x="418" y="585" style="font-family:sans-serif;font-size:10px;">
)
</text>
<rect x="149.71142578125" y="320.0" width="55.0" height="15.0" style="fill:orange; stroke:rgb(0,0,0);" rx="1"/>
<text x="151" y="329" style="font-family:sans-serif;font-size:10px;">
generateId
</text>
<rect x="65.22705078125" y="640.0" width="26.0" height="15.0" style="fill:orange; stroke:rgb(0,0,0);" rx="1"/>
<text x="67" y="649" style="font-family:sans-serif;font-size:10px;">
expr
</text>
<rect x="527.22705078125" y="384.0" width="30.0" height="15.0" style="fill:orange; stroke:rgb(0,0,0);" rx="1"/>
<text x="529" y="393" style="font-family:sans-serif;font-size:10px;">
popId
</text>
<rect x="211.71142578125" y="320.0" width="37.0" height="15.0" style="fill:orange; stroke:rgb(0,0,0);" rx="1"/>
<text x="213" y="329" style="font-family:sans-serif;font-size:10px;">
argList
</text>
<rect x="233.71142578125" y="416.0" width="8.0" height="15.0" style="fill:orange; stroke:rgb(0,0,0);" rx="1"/>
<text x="235" y="425" style="font-family:sans-serif;font-size:10px;">
)
</text>
<rect x="202.44580078125" y="480.0" width="7.0" height="15.0" style="fill:orange; stroke:rgb(0,0,0);" rx="1"/>
<text x="204" y="489" style="font-family:sans-serif;font-size:10px;">
;
</text>
<rect x="220.0" y="96.0" width="51.0" height="15.0" style="fill:orange; stroke:rgb(0,0,0);" rx="1"/>
<text x="222" y="105" style="font-family:sans-serif;font-size:10px;">
statement
</text>
<rect x="203.0" y="96.0" width="10.0" height="15.0" style="fill:orange; stroke:rgb(0,0,0);" rx="1"/>
<text x="205" y="105" style="font-family:sans-serif;font-size:10px;">
=
</text>
<rect x="218.71142578125" y="416.0" width="8.0" height="15.0" style="fill:orange; stroke:rgb(0,0,0);" rx="1"/>
<text x="220" y="425" style="font-family:sans-serif;font-size:10px;">
(
</text>
<rect x="107.0" y="96.0" width="89.0" height="15.0" style="fill:orange; stroke:rgb(0,0,0);" rx="1"/>
<text x="109" y="105" style="font-family:sans-serif;font-size:10px;">
formalParameters
</text>
<rect x="289.5" y="256.0" width="63.0" height="15.0" style="fill:orange; stroke:rgb(0,0,0);" rx="1"/>
<text x="291" y="265" style="font-family:sans-serif;font-size:10px;">
variableDecl
</text>
<rect x="343.5" y="288.0" width="12.0" height="15.0" style="fill:orange; stroke:rgb(0,0,0);" rx="1"/>
<text x="345" y="297" style="font-family:sans-serif;font-size:10px;">
in
</text>
<rect x="310.71923828125" y="384.0" width="51.0" height="15.0" style="fill:orange; stroke:rgb(0,0,0);" rx="1"/>
<text x="312" y="393" style="font-family:sans-serif;font-size:10px;">
statement
</text>
<rect x="117.72705078125" y="544.0" width="51.0" height="15.0" style="fill:orange; stroke:rgb(0,0,0);" rx="1"/>
<text x="119" y="553" style="font-family:sans-serif;font-size:10px;">
statement
</text>
<rect x="184.5" y="192.0" width="10.0" height="15.0" style="fill:orange; stroke:rgb(0,0,0);" rx="1"/>
<text x="186" y="201" style="font-family:sans-serif;font-size:10px;">
x
</text>
<rect x="156.72705078125" y="608.0" width="26.0" height="15.0" style="fill:orange; stroke:rgb(0,0,0);" rx="1"/>
<text x="158" y="617" style="font-family:sans-serif;font-size:10px;">
expr
</text>
<rect x="236.97705078125" y="480.0" width="51.0" height="15.0" style="fill:orange; stroke:rgb(0,0,0);" rx="1"/>
<text x="238" y="489" style="font-family:sans-serif;font-size:10px;">
statement
</text>
<rect x="363.97705078125" y="576.0" width="10.0" height="15.0" style="fill:orange; stroke:rgb(0,0,0);" rx="1"/>
<text x="365" y="585" style="font-family:sans-serif;font-size:10px;">
1
</text>
<rect x="399.97705078125" y="512.0" width="26.0" height="15.0" style="fill:orange; stroke:rgb(0,0,0);" rx="1"/>
<text x="401" y="521" style="font-family:sans-serif;font-size:10px;">
expr
</text>
<rect x="395.47314453125" y="384.0" width="7.0" height="15.0" style="fill:orange; stroke:rgb(0,0,0);" rx="1"/>
<text x="397" y="393" style="font-family:sans-serif;font-size:10px;">
;
</text>
</svg>