<svg width="1267.2" height="756.8000000000001" xmlns="http://www.w3.org/2000/svg" xmlns:xlink="http://www.w3.org/1999/xlink"><line x1="126.5" y1="7.5" x2="126.5" y2="32.0" style="stroke:black; stroke-width:1px;" />
<line x1="126.5" y1="39.5" x2="126.5" y2="64.0" style="stroke:black; stroke-width:1px;" />
<line x1="126.5" y1="71.5" x2="7.5" y2="96.0" style="stroke:black; stroke-width:1px;" />
<line x1="126.5" y1="71.5" x2="61.0" y2="96.0" style="stroke:black; stroke-width:1px;" />
<line x1="126.5" y1="71.5" x2="151.5" y2="96.0" style="stroke:black; stroke-width:1px;" />
<line x1="151.5" y1="103.5" x2="151.5" y2="128.0" style="stroke:black; stroke-width:1px;" />
<line x1="151.5" y1="135.5" x2="151.5" y2="160.0" style="stroke:black; stroke-width:1px;" />
<line x1="126.5" y1="71.5" x2="208.0" y2="96.0" style="stroke:black; stroke-width:1px;" />
<line x1="126.5" y1="71.5" x2="245.5" y2="96.0" style="stroke:black; stroke-width:1px;" />
<line x1="245.5" y1="103.5" x2="245.5" y2="128.0" style="stroke:black; stroke-width:1px;" />
<line x1="245.5" y1="135.5" x2="245.5" y2="160.0" style="stroke:black; stroke-width:1px;" />
<line x1="245.5" y1="167.5" x2="131.015625" y2="192.0" style="stroke:black; stroke-width:1px;" />
<line x1="245.5" y1="167.5" x2="150.515625" y2="192.0" style="stroke:black; stroke-width:1px;" />
<line x1="245.5" y1="167.5" x2="167.515625" y2="192.0" style="stroke:black; stroke-width:1px;" />
<line x1="245.5" y1="167.5" x2="188.515625" y2="192.0" style="stroke:black; stroke-width:1px;" />
<line x1="245.5" y1="167.5" x2="217.515625" y2="192.0" style="stroke:black; stroke-width:1px;" />
<line x1="217.515625" y1="199.5" x2="217.515625" y2="224.0" style="stroke:black; stroke-width:1px;" />
<line x1="217.515625" y1="231.5" x2="217.515625" y2="256.0" style="stroke:black; stroke-width:1px;" />
<line x1="245.5" y1="167.5" x2="282.5" y2="192.0" style="stroke:black; stroke-width:1px;" />
<line x1="245.5" y1="167.5" x2="359.984375" y2="192.0" style="stroke:black; stroke-width:1px;" />
<line x1="359.984375" y1="199.5" x2="309.828125" y2="224.0" style="stroke:black; stroke-width:1px;" />
<line x1="309.828125" y1="231.5" x2="255.015625" y2="256.0" style="stroke:black; stroke-width:1px;" />
<line x1="255.015625" y1="263.5" x2="201.140625" y2="288.0" style="stroke:black; stroke-width:1px;" />
<line x1="201.140625" y1="295.5" x2="165.140625" y2="320.0" style="stroke:black; stroke-width:1px;" />
<line x1="165.140625" y1="327.5" x2="165.140625" y2="352.0" style="stroke:black; stroke-width:1px;" />
<line x1="165.140625" y1="359.5" x2="138.640625" y2="384.0" style="stroke:black; stroke-width:1px;" />
<line x1="138.640625" y1="391.5" x2="138.640625" y2="416.0" style="stroke:black; stroke-width:1px;" />
<line x1="165.140625" y1="359.5" x2="165.140625" y2="384.0" style="stroke:black; stroke-width:1px;" />
<line x1="165.140625" y1="359.5" x2="191.640625" y2="384.0" style="stroke:black; stroke-width:1px;" />
<line x1="191.640625" y1="391.5" x2="191.640625" y2="416.0" style="stroke:black; stroke-width:1px;" />
<line x1="191.640625" y1="423.5" x2="191.640625" y2="448.0" style="stroke:black; stroke-width:1px;" />
<line x1="201.140625" y1="295.5" x2="201.140625" y2="320.0" style="stroke:black; stroke-width:1px;" />
<line x1="201.140625" y1="295.5" x2="237.140625" y2="320.0" style="stroke:black; stroke-width:1px;" />
<line x1="237.140625" y1="327.5" x2="237.140625" y2="352.0" style="stroke:black; stroke-width:1px;" />
<line x1="237.140625" y1="359.5" x2="222.390625" y2="384.0" style="stroke:black; stroke-width:1px;" />
<line x1="237.140625" y1="359.5" x2="251.890625" y2="384.0" style="stroke:black; stroke-width:1px;" />
<line x1="251.890625" y1="391.5" x2="251.890625" y2="416.0" style="stroke:black; stroke-width:1px;" />
<line x1="251.890625" y1="423.5" x2="251.890625" y2="448.0" style="stroke:black; stroke-width:1px;" />
<line x1="251.890625" y1="455.5" x2="244.390625" y2="480.0" style="stroke:black; stroke-width:1px;" />
<line x1="251.890625" y1="455.5" x2="259.390625" y2="480.0" style="stroke:black; stroke-width:1px;" />
<line x1="255.015625" y1="263.5" x2="255.015625" y2="288.0" style="stroke:black; stroke-width:1px;" />
<line x1="255.015625" y1="263.5" x2="308.890625" y2="288.0" style="stroke:black; stroke-width:1px;" />
<line x1="308.890625" y1="295.5" x2="308.890625" y2="320.0" style="stroke:black; stroke-width:1px;" />
<line x1="308.890625" y1="327.5" x2="282.390625" y2="352.0" style="stroke:black; stroke-width:1px;" />
<line x1="282.390625" y1="359.5" x2="282.390625" y2="384.0" style="stroke:black; stroke-width:1px;" />
<line x1="308.890625" y1="327.5" x2="308.890625" y2="352.0" style="stroke:black; stroke-width:1px;" />
<line x1="308.890625" y1="327.5" x2="335.390625" y2="352.0" style="stroke:black; stroke-width:1px;" />
<line x1="335.390625" y1="359.5" x2="335.390625" y2="384.0" style="stroke:black; stroke-width:1px;" />
<line x1="335.390625" y1="391.5" x2="335.390625" y2="416.0" style="stroke:black; stroke-width:1px;" />
<line x1="309.828125" y1="231.5" x2="309.828125" y2="256.0" style="stroke:black; stroke-width:1px;" />
<line x1="309.828125" y1="231.5" x2="364.640625" y2="256.0" style="stroke:black; stroke-width:1px;" />
<line x1="364.640625" y1="263.5" x2="364.640625" y2="288.0" style="stroke:black; stroke-width:1px;" />
<line x1="364.640625" y1="295.5" x2="349.890625" y2="320.0" style="stroke:black; stroke-width:1px;" />
<line x1="364.640625" y1="295.5" x2="379.390625" y2="320.0" style="stroke:black; stroke-width:1px;" />
<line x1="379.390625" y1="327.5" x2="379.390625" y2="352.0" style="stroke:black; stroke-width:1px;" />
<line x1="379.390625" y1="359.5" x2="379.390625" y2="384.0" style="stroke:black; stroke-width:1px;" />
<line x1="379.390625" y1="391.5" x2="371.890625" y2="416.0" style="stroke:black; stroke-width:1px;" />
<line x1="379.390625" y1="391.5" x2="386.890625" y2="416.0" style="stroke:black; stroke-width:1px;" />
<line x1="359.984375" y1="199.5" x2="359.984375" y2="224.0" style="stroke:black; stroke-width:1px;" />
<line x1="359.984375" y1="199.5" x2="410.140625" y2="224.0" style="stroke:black; stroke-width:1px;" />
<line x1="410.140625" y1="231.5" x2="410.140625" y2="256.0" style="stroke:black; stroke-width:1px;" />
<line x1="410.140625" y1="263.5" x2="398.640625" y2="288.0" style="stroke:black; stroke-width:1px;" />
<line x1="410.140625" y1="263.5" x2="421.640625" y2="288.0" style="stroke:black; stroke-width:1px;" />
<line x1="421.640625" y1="295.5" x2="421.640625" y2="320.0" style="stroke:black; stroke-width:1px;" />
<rect x="110.0" y="128.0" width="83.0" height="15.0" style="fill:orange; stroke:rgb(0,0,0);" rx="1"/>
<text x="112" y="137" style="font-family:sans-serif;font-size:10px;">
formalParameter
</text>
<rect x="104.5" y="0.0" width="44.0" height="15.0" style="fill:orange; stroke:rgb(0,0,0);" rx="1"/>
<text x="106" y="9" style="font-family:sans-serif;font-size:10px;">
program
</text>
<rect x="276.5" y="192.0" width="12.0" height="15.0" style="fill:orange; stroke:rgb(0,0,0);" rx="1"/>
<text x="278" y="201" style="font-family:sans-serif;font-size:10px;">
in
</text>
<rect x="197.640625" y="320.0" width="7.0" height="15.0" style="fill:orange; stroke:rgb(0,0,0);" rx="1"/>
<text x="199" y="329" style="font-family:sans-serif;font-size:10px;">
;
</text>
<rect x="238.890625" y="416.0" width="26.0" height="15.0" style="fill:orange; stroke:rgb(0,0,0);" rx="1"/>
<text x="240" y="425" style="font-family:sans-serif;font-size:10px;">
expr
</text>
<rect x="255.390625" y="480.0" width="8.0" height="15.0" style="fill:orange; stroke:rgb(0,0,0);" rx="1"/>
<text x="257" y="489" style="font-family:sans-serif;font-size:10px;">
)
</text>
<rect x="334.484375" y="192.0" width="51.0" height="15.0" style="fill:orange; stroke:rgb(0,0,0);" rx="1"/>
<text x="336" y="201" style="font-family:sans-serif;font-size:10px;">
statement
</text>
<rect x="395.640625" y="288.0" width="6.0" height="15.0" style="fill:orange; stroke:rgb(0,0,0);" rx="1"/>
<text x="397" y="297" style="font-family:sans-serif;font-size:10px;">
!
</text>
<rect x="408.640625" y="288.0" width="26.0" height="15.0" style="fill:orange; stroke:rgb(0,0,0);" rx="1"/>
<text x="410" y="297" style="font-family:sans-serif;font-size:10px;">
expr
</text>
<rect x="339.140625" y="256.0" width="51.0" height="15.0" style="fill:orange; stroke:rgb(0,0,0);" rx="1"/>
<text x="341" y="265" style="font-family:sans-serif;font-size:10px;">
statement
</text>
<rect x="139.640625" y="320.0" width="51.0" height="15.0" style="fill:orange; stroke:rgb(0,0,0);" rx="1"/>
<text x="141" y="329" style="font-family:sans-serif;font-size:10px;">
statement
</text>
<rect x="179.515625" y="192.0" width="18.0" height="15.0" style="fill:orange; stroke:rgb(0,0,0);" rx="1"/>
<text x="181" y="201" style="font-family:sans-serif;font-size:10px;">
ref
</text>
<rect x="382.890625" y="416.0" width="8.0" height="15.0" style="fill:orange; stroke:rgb(0,0,0);" rx="1"/>
<text x="384" y="425" style="font-family:sans-serif;font-size:10px;">
)
</text>
<rect x="224.140625" y="352.0" width="26.0" height="15.0" style="fill:orange; stroke:rgb(0,0,0);" rx="1"/>
<text x="226" y="361" style="font-family:sans-serif;font-size:10px;">
expr
</text>
<rect x="416.640625" y="320.0" width="10.0" height="15.0" style="fill:orange; stroke:rgb(0,0,0);" rx="1"/>
<text x="418" y="329" style="font-family:sans-serif;font-size:10px;">
x
</text>
<rect x="152.140625" y="352.0" width="26.0" height="15.0" style="fill:orange; stroke:rgb(0,0,0);" rx="1"/>
<text x="154" y="361" style="font-family:sans-serif;font-size:10px;">
expr
</text>
<rect x="367.890625" y="416.0" width="8.0" height="15.0" style="fill:orange; stroke:rgb(0,0,0);" rx="1"/>
<text x="369" y="425" style="font-family:sans-serif;font-size:10px;">
(
</text>
<rect x="366.390625" y="352.0" width="26.0" height="15.0" style="fill:orange; stroke:rgb(0,0,0);" rx="1"/>
<text x="368" y="361" style="font-family:sans-serif;font-size:10px;">
expr
</text>
<rect x="173.140625" y="416.0" width="37.0" height="15.0" style="fill:orange; stroke:rgb(0,0,0);" rx="1"/>
<text x="175" y="425" style="font-family:sans-serif;font-size:10px;">
consts
</text>
<rect x="277.390625" y="384.0" width="10.0" height="15.0" style="fill:orange; stroke:rgb(0,0,0);" rx="1"/>
<text x="279" y="393" style="font-family:sans-serif;font-size:10px;">
x
</text>
<rect x="123.515625" y="192.0" width="15.0" height="15.0" style="fill:orange; stroke:rgb(0,0,0);" rx="1"/>
<text x="125" y="201" style="font-family:sans-serif;font-size:10px;">
let
</text>
<rect x="330.390625" y="416.0" width="10.0" height="15.0" style="fill:orange; stroke:rgb(0,0,0);" rx="1"/>
<text x="332" y="425" style="font-family:sans-serif;font-size:10px;">
1
</text>
<rect x="295.890625" y="320.0" width="26.0" height="15.0" style="fill:orange; stroke:rgb(0,0,0);" rx="1"/>
<text x="297" y="329" style="font-family:sans-serif;font-size:10px;">
expr
</text>
<rect x="212.515625" y="256.0" width="10.0" height="15.0" style="fill:orange; stroke:rgb(0,0,0);" rx="1"/>
<text x="214" y="265" style="font-family:sans-serif;font-size:10px;">
0
</text>
<rect x="283.390625" y="288.0" width="51.0" height="15.0" style="fill:orange; stroke:rgb(0,0,0);" rx="1"/>
<text x="285" y="297" style="font-family:sans-serif;font-size:10px;">
statement
</text>
<rect x="95.0" y="32.0" width="63.0" height="15.0" style="fill:orange; stroke:rgb(0,0,0);" rx="1"/>
<text x="97" y="41" style="font-family:sans-serif;font-size:10px;">
declarations
</text>
<rect x="233.390625" y="448.0" width="37.0" height="15.0" style="fill:orange; stroke:rgb(0,0,0);" rx="1"/>
<text x="235" y="457" style="font-family:sans-serif;font-size:10px;">
consts
</text>
<rect x="306.328125" y="256.0" width="7.0" height="15.0" style="fill:orange; stroke:rgb(0,0,0);" rx="1"/>
<text x="308" y="265" style="font-family:sans-serif;font-size:10px;">
;
</text>
<rect x="162.515625" y="192.0" width="10.0" height="15.0" style="fill:orange; stroke:rgb(0,0,0);" rx="1"/>
<text x="164" y="201" style="font-family:sans-serif;font-size:10px;">
=
</text>
<rect x="360.890625" y="384.0" width="37.0" height="15.0" style="fill:orange; stroke:rgb(0,0,0);" rx="1"/>
<text x="362" y="393" style="font-family:sans-serif;font-size:10px;">
consts
</text>
<rect x="0.0" y="96.0" width="15.0" height="15.0" style="fill:orange; stroke:rgb(0,0,0);" rx="1"/>
<text x="2" y="105" style="font-family:sans-serif;font-size:10px;">
let
</text>
<rect x="22.0" y="96.0" width="78.0" height="15.0" style="fill:orange; stroke:rgb(0,0,0);" rx="1"/>
<text x="24" y="105" style="font-family:sans-serif;font-size:10px;">
test_vulnerable
</text>
<rect x="356.484375" y="224.0" width="7.0" height="15.0" style="fill:orange; stroke:rgb(0,0,0);" rx="1"/>
<text x="358" y="233" style="font-family:sans-serif;font-size:10px;">
;
</text>
<rect x="302.390625" y="352.0" width="13.0" height="15.0" style="fill:orange; stroke:rgb(0,0,0);" rx="1"/>
<text x="304" y="361" style="font-family:sans-serif;font-size:10px;">
:=
</text>
<rect x="351.640625" y="288.0" width="26.0" height="15.0" style="fill:orange; stroke:rgb(0,0,0);" rx="1"/>
<text x="353" y="297" style="font-family:sans-serif;font-size:10px;">
expr
</text>
<rect x="133.640625" y="416.0" width="10.0" height="15.0" style="fill:orange; stroke:rgb(0,0,0);" rx="1"/>
<text x="135" y="425" style="font-family:sans-serif;font-size:10px;">
x
</text>
<rect x="204.515625" y="192.0" width="26.0" height="15.0" style="fill:orange; stroke:rgb(0,0,0);" rx="1"/>
<text x="206" y="201" style="font-family:sans-serif;font-size:10px;">
expr
</text>
<rect x="397.140625" y="256.0" width="26.0" height="15.0" style="fill:orange; stroke:rgb(0,0,0);" rx="1"/>
<text x="399" y="265" style="font-family:sans-serif;font-size:10px;">
expr
</text>
<rect x="220.0" y="96.0" width="51.0" height="15.0" style="fill:orange; stroke:rgb(0,0,0);" rx="1"/>
<text x="222" y="105" style="font-family:sans-serif;font-size:10px;">
statement
</text>
<rect x="203.0" y="96.0" width="10.0" height="15.0" style="fill:orange; stroke:rgb(0,0,0);" rx="1"/>
<text x="205" y="105" style="font-family:sans-serif;font-size:10px;">
=
</text>
<rect x="214.0" y="160.0" width="63.0" height="15.0" style="fill:orange; stroke:rgb(0,0,0);" rx="1"/>
<text x="216" y="169" style="font-family:sans-serif;font-size:10px;">
variableDecl
</text>
<rect x="145.515625" y="192.0" width="10.0" height="15.0" style="fill:orange; stroke:rgb(0,0,0);" rx="1"/>
<text x="147" y="201" style="font-family:sans-serif;font-size:10px;">
x
</text>
<rect x="147.5" y="160.0" width="8.0" height="15.0" style="fill:orange; stroke:rgb(0,0,0);" rx="1"/>
<text x="149" y="169" style="font-family:sans-serif;font-size:10px;">
f
</text>
<rect x="229.515625" y="256.0" width="51.0" height="15.0" style="fill:orange; stroke:rgb(0,0,0);" rx="1"/>
<text x="231" y="265" style="font-family:sans-serif;font-size:10px;">
statement
</text>
<rect x="240.390625" y="480.0" width="8.0" height="15.0" style="fill:orange; stroke:rgb(0,0,0);" rx="1"/>
<text x="242" y="489" style="font-family:sans-serif;font-size:10px;">
(
</text>
<rect x="384.640625" y="224.0" width="51.0" height="15.0" style="fill:orange; stroke:rgb(0,0,0);" rx="1"/>
<text x="386" y="233" style="font-family:sans-serif;font-size:10px;">
statement
</text>
<rect x="94.5" y="64.0" width="64.0" height="15.0" style="fill:orange; stroke:rgb(0,0,0);" rx="1"/>
<text x="96" y="73" style="font-family:sans-serif;font-size:10px;">
functionDecl
</text>
<rect x="316.890625" y="384.0" width="37.0" height="15.0" style="fill:orange; stroke:rgb(0,0,0);" rx="1"/>
<text x="318" y="393" style="font-family:sans-serif;font-size:10px;">
consts
</text>
<rect x="218.390625" y="384.0" width="8.0" height="15.0" style="fill:orange; stroke:rgb(0,0,0);" rx="1"/>
<text x="220" y="393" style="font-family:sans-serif;font-size:10px;">
f
</text>
<rect x="284.328125" y="224.0" width="51.0" height="15.0" style="fill:orange; stroke:rgb(0,0,0);" rx="1"/>
<text x="286" y="233" style="font-family:sans-serif;font-size:10px;">
statement
</text>
<rect x="158.640625" y="384.0" width="13.0" height="15.0" style="fill:orange; stroke:rgb(0,0,0);" rx="1"/>
<text x="160" y="393" style="font-family:sans-serif;font-size:10px;">
:=
</text>
<rect x="186.640625" y="448.0" width="10.0" height="15.0" style="fill:orange; stroke:rgb(0,0,0);" rx="1"/>
<text x="188" y="457" style="font-family:sans-serif;font-size:10px;">
0
</text>
<rect x="345.890625" y="320.0" width="8.0" height="15.0" style="fill:orange; stroke:rgb(0,0,0);" rx="1"/>
<text x="347" y="329" style="font-family:sans-serif;font-size:10px;">
f
</text>
<rect x="214.0" y="128.0" width="63.0" height="15.0" style="fill:orange; stroke:rgb(0,0,0);" rx="1"/>
<text x="216" y="137" style="font-family:sans-serif;font-size:10px;">
declarations
</text>
<rect x="360.890625" y="320.0" width="37.0" height="15.0" style="fill:orange; stroke:rgb(0,0,0);" rx="1"/>
<text x="362" y="329" style="font-family:sans-serif;font-size:10px;">
argList
</text>
<rect x="211.640625" y="320.0" width="51.0" height="15.0" style="fill:orange; stroke:rgb(0,0,0);" rx="1"/>
<text x="213" y="329" style="font-family:sans-serif;font-size:10px;">
statement
</text>
<rect x="199.015625" y="224.0" width="37.0" height="15.0" style="fill:orange; stroke:rgb(0,0,0);" rx="1"/>
<text x="201" y="233" style="font-family:sans-serif;font-size:10px;">
consts
</text>
<rect x="269.390625" y="352.0" width="26.0" height="15.0" style="fill:orange; stroke:rgb(0,0,0);" rx="1"/>
<text x="271" y="361" style="font-family:sans-serif;font-size:10px;">
expr
</text>
<rect x="233.390625" y="384.0" width="37.0" height="15.0" style="fill:orange; stroke:rgb(0,0,0);" rx="1"/>
<text x="235" y="393" style="font-family:sans-serif;font-size:10px;">
argList
</text>
<rect x="125.640625" y="384.0" width="26.0" height="15.0" style="fill:orange; stroke:rgb(0,0,0);" rx="1"/>
<text x="127" y="393" style="font-family:sans-serif;font-size:10px;">
expr
</text>
<rect x="175.640625" y="288.0" width="51.0" height="15.0" style="fill:orange; stroke:rgb(0,0,0);" rx="1"/>
<text x="177" y="297" style="font-family:sans-serif;font-size:10px;">
statement
</text>
<rect x="322.390625" y="352.0" width="26.0" height="15.0" style="fill:orange; stroke:rgb(0,0,0);" rx="1"/>
<text x="324" y="361" style="font-family:sans-serif;font-size:10px;">
expr
</text>
<rect x="107.0" y="96.0" width="89.0" height="15.0" style="fill:orange; stroke:rgb(0,0,0);" rx="1"/>
<text x="109" y="105" style="font-family:sans-serif;font-size:10px;">
formalParameters
</text>
<rect x="178.640625" y="384.0" width="26.0" height="15.0" style="fill:orange; stroke:rgb(0,0,0);" rx="1"/>
<text x="180" y="393" style="font-family:sans-serif;font-size:10px;">
expr
</text>
<rect x="251.515625" y="288.0" width="7.0" height="15.0" style="fill:orange; stroke:rgb(0,0,0);" rx="1"/>
<text x="253" y="297" style="font-family:sans-serif;font-size:10px;">
;
</text>
</svg>