<svg width="1250.7" height="772.2" xmlns="http://www.w3.org/2000/svg" xmlns:xlink="http://www.w3.org/1999/xlink"><line x1="140.58544921875" y1="7.5" x2="140.58544921875" y2="32.0" style="stroke:black; stroke-width:1px;" />
<line x1="140.58544921875" y1="39.5" x2="140.58544921875" y2="64.0" style="stroke:black; stroke-width:1px;" />
<line x1="140.58544921875" y1="71.5" x2="21.58544921875" y2="96.0" style="stroke:black; stroke-width:1px;" />
<line x1="140.58544921875" y1="71.5" x2="75.08544921875" y2="96.0" style="stroke:black; stroke-width:1px;" />
<line x1="140.58544921875" y1="71.5" x2="165.58544921875" y2="96.0" style="stroke:black; stroke-width:1px;" />
<line x1="165.58544921875" y1="103.5" x2="165.58544921875" y2="128.0" style="stroke:black; stroke-width:1px;" />
<line x1="165.58544921875" y1="135.5" x2="165.58544921875" y2="160.0" style="stroke:black; stroke-width:1px;" />
<line x1="140.58544921875" y1="71.5" x2="222.08544921875" y2="96.0" style="stroke:black; stroke-width:1px;" />
<line x1="140.58544921875" y1="71.5" x2="259.58544921875" y2="96.0" style="stroke:black; stroke-width:1px;" />
<line x1="259.58544921875" y1="103.5" x2="259.58544921875" y2="128.0" style="stroke:black; stroke-width:1px;" />
<line x1="259.58544921875" y1="135.5" x2="259.58544921875" y2="160.0" style="stroke:black; stroke-width:1px;" />
<line x1="259.58544921875" y1="167.5" x2="184.08544921875" y2="192.0" style="stroke:black; stroke-width:1px;" />
<line x1="259.58544921875" y1="167.5" x2="203.58544921875" y2="192.0" style="stroke:black; stroke-width:1px;" />
<line x1="259.58544921875" y1="167.5" x2="220.58544921875" y2="192.0" style="stroke:black; stroke-width:1px;" />
<line x1="259.58544921875" y1="167.5" x2="241.58544921875" y2="192.0" style="stroke:black; stroke-width:1px;" />
<line x1="259.58544921875" y1="167.5" x2="270.58544921875" y2="192.0" style="stroke:black; stroke-width:1px;" />
<line x1="270.58544921875" y1="199.5" x2="270.58544921875" y2="224.0" style="stroke:black; stroke-width:1px;" />
<line x1="270.58544921875" y1="231.5" x2="270.58544921875" y2="256.0" style="stroke:black; stroke-width:1px;" />
<line x1="259.58544921875" y1="167.5" x2="296.58544921875" y2="192.0" style="stroke:black; stroke-width:1px;" />
<line x1="259.58544921875" y1="167.5" x2="335.08544921875" y2="192.0" style="stroke:black; stroke-width:1px;" />
<line x1="335.08544921875" y1="199.5" x2="335.08544921875" y2="224.0" style="stroke:black; stroke-width:1px;" />
<line x1="335.08544921875" y1="231.5" x2="335.08544921875" y2="256.0" style="stroke:black; stroke-width:1px;" />
<line x1="335.08544921875" y1="263.5" x2="115.7958984375" y2="288.0" style="stroke:black; stroke-width:1px;" />
<line x1="335.08544921875" y1="263.5" x2="161.7958984375" y2="288.0" style="stroke:black; stroke-width:1px;" />
<line x1="335.08544921875" y1="263.5" x2="205.2958984375" y2="288.0" style="stroke:black; stroke-width:1px;" />
<line x1="335.08544921875" y1="263.5" x2="242.7958984375" y2="288.0" style="stroke:black; stroke-width:1px;" />
<line x1="242.7958984375" y1="295.5" x2="242.7958984375" y2="320.0" style="stroke:black; stroke-width:1px;" />
<line x1="242.7958984375" y1="327.5" x2="242.7958984375" y2="352.0" style="stroke:black; stroke-width:1px;" />
<line x1="242.7958984375" y1="359.5" x2="49.21875" y2="384.0" style="stroke:black; stroke-width:1px;" />
<line x1="242.7958984375" y1="359.5" x2="72.71875" y2="384.0" style="stroke:black; stroke-width:1px;" />
<line x1="242.7958984375" y1="359.5" x2="93.71875" y2="384.0" style="stroke:black; stroke-width:1px;" />
<line x1="242.7958984375" y1="359.5" x2="118.71875" y2="384.0" style="stroke:black; stroke-width:1px;" />
<line x1="118.71875" y1="391.5" x2="92.21875" y2="416.0" style="stroke:black; stroke-width:1px;" />
<line x1="118.71875" y1="391.5" x2="145.21875" y2="416.0" style="stroke:black; stroke-width:1px;" />
<line x1="145.21875" y1="423.5" x2="145.21875" y2="448.0" style="stroke:black; stroke-width:1px;" />
<line x1="145.21875" y1="455.5" x2="145.21875" y2="480.0" style="stroke:black; stroke-width:1px;" />
<line x1="145.21875" y1="487.5" x2="137.71875" y2="512.0" style="stroke:black; stroke-width:1px;" />
<line x1="145.21875" y1="487.5" x2="152.71875" y2="512.0" style="stroke:black; stroke-width:1px;" />
<line x1="242.7958984375" y1="359.5" x2="271.2958984375" y2="384.0" style="stroke:black; stroke-width:1px;" />
<line x1="242.7958984375" y1="359.5" x2="436.373046875" y2="384.0" style="stroke:black; stroke-width:1px;" />
<line x1="436.373046875" y1="391.5" x2="382.24609375" y2="416.0" style="stroke:black; stroke-width:1px;" />
<line x1="382.24609375" y1="423.5" x2="319.4921875" y2="448.0" style="stroke:black; stroke-width:1px;" />
<line x1="319.4921875" y1="455.5" x2="257.484375" y2="480.0" style="stroke:black; stroke-width:1px;" />
<line x1="257.484375" y1="487.5" x2="189.21875" y2="512.0" style="stroke:black; stroke-width:1px;" />
<line x1="189.21875" y1="519.5" x2="132.6875" y2="544.0" style="stroke:black; stroke-width:1px;" />
<line x1="132.6875" y1="551.5" x2="83.125" y2="576.0" style="stroke:black; stroke-width:1px;" />
<line x1="83.125" y1="583.5" x2="39.75" y2="608.0" style="stroke:black; stroke-width:1px;" />
<line x1="39.75" y1="615.5" x2="39.75" y2="640.0" style="stroke:black; stroke-width:1px;" />
<line x1="39.75" y1="647.5" x2="18.0" y2="672.0" style="stroke:black; stroke-width:1px;" />
<line x1="39.75" y1="647.5" x2="61.5" y2="672.0" style="stroke:black; stroke-width:1px;" />
<line x1="61.5" y1="679.5" x2="61.5" y2="704.0" style="stroke:black; stroke-width:1px;" />
<line x1="61.5" y1="711.5" x2="61.5" y2="736.0" style="stroke:black; stroke-width:1px;" />
<line x1="83.125" y1="583.5" x2="83.125" y2="608.0" style="stroke:black; stroke-width:1px;" />
<line x1="83.125" y1="583.5" x2="126.5" y2="608.0" style="stroke:black; stroke-width:1px;" />
<line x1="126.5" y1="615.5" x2="126.5" y2="640.0" style="stroke:black; stroke-width:1px;" />
<line x1="126.5" y1="647.5" x2="100.0" y2="672.0" style="stroke:black; stroke-width:1px;" />
<line x1="100.0" y1="679.5" x2="100.0" y2="704.0" style="stroke:black; stroke-width:1px;" />
<line x1="126.5" y1="647.5" x2="126.5" y2="672.0" style="stroke:black; stroke-width:1px;" />
<line x1="126.5" y1="647.5" x2="153.0" y2="672.0" style="stroke:black; stroke-width:1px;" />
<line x1="153.0" y1="679.5" x2="153.0" y2="704.0" style="stroke:black; stroke-width:1px;" />
<line x1="153.0" y1="711.5" x2="153.0" y2="736.0" style="stroke:black; stroke-width:1px;" />
<line x1="132.6875" y1="551.5" x2="132.6875" y2="576.0" style="stroke:black; stroke-width:1px;" />
<line x1="132.6875" y1="551.5" x2="182.25" y2="576.0" style="stroke:black; stroke-width:1px;" />
<line x1="182.25" y1="583.5" x2="182.25" y2="608.0" style="stroke:black; stroke-width:1px;" />
<line x1="182.25" y1="615.5" x2="167.5" y2="640.0" style="stroke:black; stroke-width:1px;" />
<line x1="182.25" y1="615.5" x2="197.0" y2="640.0" style="stroke:black; stroke-width:1px;" />
<line x1="197.0" y1="647.5" x2="197.0" y2="672.0" style="stroke:black; stroke-width:1px;" />
<line x1="197.0" y1="679.5" x2="197.0" y2="704.0" style="stroke:black; stroke-width:1px;" />
<line x1="197.0" y1="711.5" x2="189.5" y2="736.0" style="stroke:black; stroke-width:1px;" />
<line x1="197.0" y1="711.5" x2="204.5" y2="736.0" style="stroke:black; stroke-width:1px;" />
<line x1="189.21875" y1="519.5" x2="189.21875" y2="544.0" style="stroke:black; stroke-width:1px;" />
<line x1="189.21875" y1="519.5" x2="245.75" y2="544.0" style="stroke:black; stroke-width:1px;" />
<line x1="245.75" y1="551.5" x2="245.75" y2="576.0" style="stroke:black; stroke-width:1px;" />
<line x1="245.75" y1="583.5" x2="222.75" y2="608.0" style="stroke:black; stroke-width:1px;" />
<line x1="245.75" y1="583.5" x2="268.75" y2="608.0" style="stroke:black; stroke-width:1px;" />
<line x1="268.75" y1="615.5" x2="268.75" y2="640.0" style="stroke:black; stroke-width:1px;" />
<line x1="268.75" y1="647.5" x2="268.75" y2="672.0" style="stroke:black; stroke-width:1px;" />
<line x1="257.484375" y1="487.5" x2="257.484375" y2="512.0" style="stroke:black; stroke-width:1px;" />
<line x1="257.484375" y1="487.5" x2="325.75" y2="512.0" style="stroke:black; stroke-width:1px;" />
<line x1="325.75" y1="519.5" x2="325.75" y2="544.0" style="stroke:black; stroke-width:1px;" />
<line x1="325.75" y1="551.5" x2="299.25" y2="576.0" style="stroke:black; stroke-width:1px;" />
<line x1="299.25" y1="583.5" x2="299.25" y2="608.0" style="stroke:black; stroke-width:1px;" />
<line x1="325.75" y1="551.5" x2="325.75" y2="576.0" style="stroke:black; stroke-width:1px;" />
<line x1="325.75" y1="551.5" x2="352.25" y2="576.0" style="stroke:black; stroke-width:1px;" />
<line x1="352.25" y1="583.5" x2="352.25" y2="608.0" style="stroke:black; stroke-width:1px;" />
<line x1="352.25" y1="615.5" x2="352.25" y2="640.0" style="stroke:black; stroke-width:1px;" />
<line x1="319.4921875" y1="455.5" x2="319.4921875" y2="480.0" style="stroke:black; stroke-width:1px;" />
<line x1="319.4921875" y1="455.5" x2="381.5" y2="480.0" style="stroke:black; stroke-width:1px;" />
<line x1="381.5" y1="487.5" x2="381.5" y2="512.0" style="stroke:black; stroke-width:1px;" />
<line x1="381.5" y1="519.5" x2="366.75" y2="544.0" style="stroke:black; stroke-width:1px;" />
<line x1="381.5" y1="519.5" x2="396.25" y2="544.0" style="stroke:black; stroke-width:1px;" />
<line x1="396.25" y1="551.5" x2="396.25" y2="576.0" style="stroke:black; stroke-width:1px;" />
<line x1="396.25" y1="583.5" x2="396.25" y2="608.0" style="stroke:black; stroke-width:1px;" />
<line x1="396.25" y1="615.5" x2="388.75" y2="640.0" style="stroke:black; stroke-width:1px;" />
<line x1="396.25" y1="615.5" x2="403.75" y2="640.0" style="stroke:black; stroke-width:1px;" />
<line x1="382.24609375" y1="423.5" x2="382.24609375" y2="448.0" style="stroke:black; stroke-width:1px;" />
<line x1="382.24609375" y1="423.5" x2="445.0" y2="448.0" style="stroke:black; stroke-width:1px;" />
<line x1="445.0" y1="455.5" x2="445.0" y2="480.0" style="stroke:black; stroke-width:1px;" />
<line x1="445.0" y1="487.5" x2="422.0" y2="512.0" style="stroke:black; stroke-width:1px;" />
<line x1="445.0" y1="487.5" x2="468.0" y2="512.0" style="stroke:black; stroke-width:1px;" />
<line x1="468.0" y1="519.5" x2="468.0" y2="544.0" style="stroke:black; stroke-width:1px;" />
<line x1="468.0" y1="551.5" x2="468.0" y2="576.0" style="stroke:black; stroke-width:1px;" />
<line x1="436.373046875" y1="391.5" x2="436.373046875" y2="416.0" style="stroke:black; stroke-width:1px;" />
<line x1="436.373046875" y1="391.5" x2="490.5" y2="416.0" style="stroke:black; stroke-width:1px;" />
<line x1="490.5" y1="423.5" x2="490.5" y2="448.0" style="stroke:black; stroke-width:1px;" />
<line x1="490.5" y1="455.5" x2="479.0" y2="480.0" style="stroke:black; stroke-width:1px;" />
<line x1="490.5" y1="455.5" x2="502.0" y2="480.0" style="stroke:black; stroke-width:1px;" />
<line x1="502.0" y1="487.5" x2="502.0" y2="512.0" style="stroke:black; stroke-width:1px;" />
<line x1="335.08544921875" y1="263.5" x2="398.58544921875" y2="288.0" style="stroke:black; stroke-width:1px;" />
<line x1="335.08544921875" y1="263.5" x2="554.375" y2="288.0" style="stroke:black; stroke-width:1px;" />
<line x1="554.375" y1="295.5" x2="515.75" y2="320.0" style="stroke:black; stroke-width:1px;" />
<line x1="515.75" y1="327.5" x2="515.75" y2="352.0" style="stroke:black; stroke-width:1px;" />
<line x1="515.75" y1="359.5" x2="495.5" y2="384.0" style="stroke:black; stroke-width:1px;" />
<line x1="515.75" y1="359.5" x2="536.0" y2="384.0" style="stroke:black; stroke-width:1px;" />
<line x1="536.0" y1="391.5" x2="536.0" y2="416.0" style="stroke:black; stroke-width:1px;" />
<line x1="536.0" y1="423.5" x2="536.0" y2="448.0" style="stroke:black; stroke-width:1px;" />
<line x1="536.0" y1="455.5" x2="528.5" y2="480.0" style="stroke:black; stroke-width:1px;" />
<line x1="536.0" y1="455.5" x2="543.5" y2="480.0" style="stroke:black; stroke-width:1px;" />
<line x1="554.375" y1="295.5" x2="554.375" y2="320.0" style="stroke:black; stroke-width:1px;" />
<line x1="554.375" y1="295.5" x2="593.0" y2="320.0" style="stroke:black; stroke-width:1px;" />
<line x1="593.0" y1="327.5" x2="593.0" y2="352.0" style="stroke:black; stroke-width:1px;" />
<line x1="593.0" y1="359.5" x2="593.0" y2="384.0" style="stroke:black; stroke-width:1px;" />
<rect x="265.2958984375" y="384.0" width="12.0" height="15.0" style="fill:orange; stroke:rgb(0,0,0);" rx="1"/>
<text x="267" y="393" style="font-family:sans-serif;font-size:10px;">
in
</text>
<rect x="43.0" y="672.0" width="37.0" height="15.0" style="fill:orange; stroke:rgb(0,0,0);" rx="1"/>
<text x="45" y="681" style="font-family:sans-serif;font-size:10px;">
argList
</text>
<rect x="129.1875" y="576.0" width="7.0" height="15.0" style="fill:orange; stroke:rgb(0,0,0);" rx="1"/>
<text x="131" y="585" style="font-family:sans-serif;font-size:10px;">
;
</text>
<rect x="185.71875" y="544.0" width="7.0" height="15.0" style="fill:orange; stroke:rgb(0,0,0);" rx="1"/>
<text x="187" y="553" style="font-family:sans-serif;font-size:10px;">
;
</text>
<rect x="362.75" y="544.0" width="8.0" height="15.0" style="fill:orange; stroke:rgb(0,0,0);" rx="1"/>
<text x="364" y="553" style="font-family:sans-serif;font-size:10px;">
f
</text>
<rect x="550.875" y="320.0" width="7.0" height="15.0" style="fill:orange; stroke:rgb(0,0,0);" rx="1"/>
<text x="552" y="329" style="font-family:sans-serif;font-size:10px;">
;
</text>
<rect x="121.08544921875" y="96.0" width="89.0" height="15.0" style="fill:orange; stroke:rgb(0,0,0);" rx="1"/>
<text x="123" y="105" style="font-family:sans-serif;font-size:10px;">
formalParameters
</text>
<rect x="79.625" y="608.0" width="7.0" height="15.0" style="fill:orange; stroke:rgb(0,0,0);" rx="1"/>
<text x="81" y="617" style="font-family:sans-serif;font-size:10px;">
;
</text>
<rect x="419.5" y="448.0" width="51.0" height="15.0" style="fill:orange; stroke:rgb(0,0,0);" rx="1"/>
<text x="421" y="457" style="font-family:sans-serif;font-size:10px;">
statement
</text>
<rect x="255.75" y="640.0" width="26.0" height="15.0" style="fill:orange; stroke:rgb(0,0,0);" rx="1"/>
<text x="257" y="649" style="font-family:sans-serif;font-size:10px;">
expr
</text>
<rect x="148.0" y="736.0" width="10.0" height="15.0" style="fill:orange; stroke:rgb(0,0,0);" rx="1"/>
<text x="150" y="745" style="font-family:sans-serif;font-size:10px;">
0
</text>
<rect x="156.75" y="576.0" width="51.0" height="15.0" style="fill:orange; stroke:rgb(0,0,0);" rx="1"/>
<text x="158" y="585" style="font-family:sans-serif;font-size:10px;">
statement
</text>
<rect x="502.75" y="352.0" width="26.0" height="15.0" style="fill:orange; stroke:rgb(0,0,0);" rx="1"/>
<text x="504" y="361" style="font-family:sans-serif;font-size:10px;">
expr
</text>
<rect x="185.5" y="736.0" width="8.0" height="15.0" style="fill:orange; stroke:rgb(0,0,0);" rx="1"/>
<text x="187" y="745" style="font-family:sans-serif;font-size:10px;">
(
</text>
<rect x="234.08544921875" y="96.0" width="51.0" height="15.0" style="fill:orange; stroke:rgb(0,0,0);" rx="1"/>
<text x="236" y="105" style="font-family:sans-serif;font-size:10px;">
statement
</text>
<rect x="0.0" y="672.0" width="36.0" height="15.0" style="fill:orange; stroke:rgb(0,0,0);" rx="1"/>
<text x="2" y="681" style="font-family:sans-serif;font-size:10px;">
pushId
</text>
<rect x="265.58544921875" y="256.0" width="10.0" height="15.0" style="fill:orange; stroke:rgb(0,0,0);" rx="1"/>
<text x="267" y="265" style="font-family:sans-serif;font-size:10px;">
0
</text>
<rect x="339.25" y="576.0" width="26.0" height="15.0" style="fill:orange; stroke:rgb(0,0,0);" rx="1"/>
<text x="341" y="585" style="font-family:sans-serif;font-size:10px;">
expr
</text>
<rect x="303.08544921875" y="256.0" width="64.0" height="15.0" style="fill:orange; stroke:rgb(0,0,0);" rx="1"/>
<text x="305" y="265" style="font-family:sans-serif;font-size:10px;">
functionDecl
</text>
<rect x="356.0" y="480.0" width="51.0" height="15.0" style="fill:orange; stroke:rgb(0,0,0);" rx="1"/>
<text x="358" y="489" style="font-family:sans-serif;font-size:10px;">
statement
</text>
<rect x="490.25" y="320.0" width="51.0" height="15.0" style="fill:orange; stroke:rgb(0,0,0);" rx="1"/>
<text x="492" y="329" style="font-family:sans-serif;font-size:10px;">
statement
</text>
<rect x="399.75" y="640.0" width="8.0" height="15.0" style="fill:orange; stroke:rgb(0,0,0);" rx="1"/>
<text x="401" y="649" style="font-family:sans-serif;font-size:10px;">
)
</text>
<rect x="319.25" y="576.0" width="13.0" height="15.0" style="fill:orange; stroke:rgb(0,0,0);" rx="1"/>
<text x="321" y="585" style="font-family:sans-serif;font-size:10px;">
:=
</text>
<rect x="377.75" y="608.0" width="37.0" height="15.0" style="fill:orange; stroke:rgb(0,0,0);" rx="1"/>
<text x="379" y="617" style="font-family:sans-serif;font-size:10px;">
consts
</text>
<rect x="232.58544921875" y="192.0" width="18.0" height="15.0" style="fill:orange; stroke:rgb(0,0,0);" rx="1"/>
<text x="234" y="201" style="font-family:sans-serif;font-size:10px;">
ref
</text>
<rect x="217.08544921875" y="96.0" width="10.0" height="15.0" style="fill:orange; stroke:rgb(0,0,0);" rx="1"/>
<text x="219" y="105" style="font-family:sans-serif;font-size:10px;">
=
</text>
<rect x="220.25" y="544.0" width="51.0" height="15.0" style="fill:orange; stroke:rgb(0,0,0);" rx="1"/>
<text x="222" y="553" style="font-family:sans-serif;font-size:10px;">
statement
</text>
<rect x="384.75" y="640.0" width="8.0" height="15.0" style="fill:orange; stroke:rgb(0,0,0);" rx="1"/>
<text x="386" y="649" style="font-family:sans-serif;font-size:10px;">
(
</text>
<rect x="455.0" y="544.0" width="26.0" height="15.0" style="fill:orange; stroke:rgb(0,0,0);" rx="1"/>
<text x="457" y="553" style="font-family:sans-serif;font-size:10px;">
expr
</text>
<rect x="476.0" y="480.0" width="6.0" height="15.0" style="fill:orange; stroke:rgb(0,0,0);" rx="1"/>
<text x="478" y="489" style="font-family:sans-serif;font-size:10px;">
!
</text>
<rect x="124.08544921875" y="128.0" width="83.0" height="15.0" style="fill:orange; stroke:rgb(0,0,0);" rx="1"/>
<text x="126" y="137" style="font-family:sans-serif;font-size:10px;">
formalParameter
</text>
<rect x="120.0" y="672.0" width="13.0" height="15.0" style="fill:orange; stroke:rgb(0,0,0);" rx="1"/>
<text x="122" y="681" style="font-family:sans-serif;font-size:10px;">
:=
</text>
<rect x="202.25" y="608.0" width="41.0" height="15.0" style="fill:orange; stroke:rgb(0,0,0);" rx="1"/>
<text x="204" y="617" style="font-family:sans-serif;font-size:10px;">
checkId
</text>
<rect x="459.0" y="576.0" width="18.0" height="15.0" style="fill:orange; stroke:rgb(0,0,0);" rx="1"/>
<text x="461" y="585" style="font-family:sans-serif;font-size:10px;">
id1
</text>
<rect x="184.0" y="672.0" width="26.0" height="15.0" style="fill:orange; stroke:rgb(0,0,0);" rx="1"/>
<text x="186" y="681" style="font-family:sans-serif;font-size:10px;">
expr
</text>
<rect x="108.2958984375" y="288.0" width="15.0" height="15.0" style="fill:orange; stroke:rgb(0,0,0);" rx="1"/>
<text x="110" y="297" style="font-family:sans-serif;font-size:10px;">
let
</text>
<rect x="294.25" y="608.0" width="10.0" height="15.0" style="fill:orange; stroke:rgb(0,0,0);" rx="1"/>
<text x="296" y="617" style="font-family:sans-serif;font-size:10px;">
x
</text>
<rect x="561.5" y="384.0" width="63.0" height="15.0" style="fill:orange; stroke:rgb(0,0,0);" rx="1"/>
<text x="563" y="393" style="font-family:sans-serif;font-size:10px;">
return_stat1
</text>
<rect x="200.5" y="736.0" width="8.0" height="15.0" style="fill:orange; stroke:rgb(0,0,0);" rx="1"/>
<text x="202" y="745" style="font-family:sans-serif;font-size:10px;">
)
</text>
<rect x="88.71875" y="384.0" width="10.0" height="15.0" style="fill:orange; stroke:rgb(0,0,0);" rx="1"/>
<text x="90" y="393" style="font-family:sans-serif;font-size:10px;">
=
</text>
<rect x="132.21875" y="448.0" width="26.0" height="15.0" style="fill:orange; stroke:rgb(0,0,0);" rx="1"/>
<text x="134" y="457" style="font-family:sans-serif;font-size:10px;">
expr
</text>
<rect x="567.5" y="320.0" width="51.0" height="15.0" style="fill:orange; stroke:rgb(0,0,0);" rx="1"/>
<text x="569" y="329" style="font-family:sans-serif;font-size:10px;">
statement
</text>
<rect x="113.5" y="640.0" width="26.0" height="15.0" style="fill:orange; stroke:rgb(0,0,0);" rx="1"/>
<text x="115" y="649" style="font-family:sans-serif;font-size:10px;">
expr
</text>
<rect x="477.5" y="448.0" width="26.0" height="15.0" style="fill:orange; stroke:rgb(0,0,0);" rx="1"/>
<text x="479" y="457" style="font-family:sans-serif;font-size:10px;">
expr
</text>
<rect x="107.1875" y="544.0" width="51.0" height="15.0" style="fill:orange; stroke:rgb(0,0,0);" rx="1"/>
<text x="109" y="553" style="font-family:sans-serif;font-size:10px;">
statement
</text>
<rect x="257.58544921875" y="192.0" width="26.0" height="15.0" style="fill:orange; stroke:rgb(0,0,0);" rx="1"/>
<text x="259" y="201" style="font-family:sans-serif;font-size:10px;">
expr
</text>
<rect x="161.58544921875" y="160.0" width="8.0" height="15.0" style="fill:orange; stroke:rgb(0,0,0);" rx="1"/>
<text x="163" y="169" style="font-family:sans-serif;font-size:10px;">
f
</text>
<rect x="163.5" y="640.0" width="8.0" height="15.0" style="fill:orange; stroke:rgb(0,0,0);" rx="1"/>
<text x="165" y="649" style="font-family:sans-serif;font-size:10px;">
f
</text>
<rect x="432.0" y="480.0" width="26.0" height="15.0" style="fill:orange; stroke:rgb(0,0,0);" rx="1"/>
<text x="434" y="489" style="font-family:sans-serif;font-size:10px;">
expr
</text>
<rect x="101.0" y="608.0" width="51.0" height="15.0" style="fill:orange; stroke:rgb(0,0,0);" rx="1"/>
<text x="103" y="617" style="font-family:sans-serif;font-size:10px;">
statement
</text>
<rect x="148.71875" y="512.0" width="8.0" height="15.0" style="fill:orange; stroke:rgb(0,0,0);" rx="1"/>
<text x="150" y="521" style="font-family:sans-serif;font-size:10px;">
)
</text>
<rect x="259.75" y="672.0" width="18.0" height="15.0" style="fill:orange; stroke:rgb(0,0,0);" rx="1"/>
<text x="261" y="681" style="font-family:sans-serif;font-size:10px;">
id1
</text>
<rect x="253.984375" y="512.0" width="7.0" height="15.0" style="fill:orange; stroke:rgb(0,0,0);" rx="1"/>
<text x="255" y="521" style="font-family:sans-serif;font-size:10px;">
;
</text>
<rect x="52.5" y="736.0" width="18.0" height="15.0" style="fill:orange; stroke:rgb(0,0,0);" rx="1"/>
<text x="54" y="745" style="font-family:sans-serif;font-size:10px;">
id1
</text>
<rect x="176.58544921875" y="192.0" width="15.0" height="15.0" style="fill:orange; stroke:rgb(0,0,0);" rx="1"/>
<text x="178" y="201" style="font-family:sans-serif;font-size:10px;">
let
</text>
<rect x="465.0" y="416.0" width="51.0" height="15.0" style="fill:orange; stroke:rgb(0,0,0);" rx="1"/>
<text x="467" y="425" style="font-family:sans-serif;font-size:10px;">
statement
</text>
<rect x="250.25" y="608.0" width="37.0" height="15.0" style="fill:orange; stroke:rgb(0,0,0);" rx="1"/>
<text x="252" y="617" style="font-family:sans-serif;font-size:10px;">
argList
</text>
<rect x="539.5" y="480.0" width="8.0" height="15.0" style="fill:orange; stroke:rgb(0,0,0);" rx="1"/>
<text x="541" y="489" style="font-family:sans-serif;font-size:10px;">
)
</text>
<rect x="231.984375" y="480.0" width="51.0" height="15.0" style="fill:orange; stroke:rgb(0,0,0);" rx="1"/>
<text x="233" y="489" style="font-family:sans-serif;font-size:10px;">
statement
</text>
<rect x="524.5" y="480.0" width="8.0" height="15.0" style="fill:orange; stroke:rgb(0,0,0);" rx="1"/>
<text x="526" y="489" style="font-family:sans-serif;font-size:10px;">
(
</text>
<rect x="580.0" y="352.0" width="26.0" height="15.0" style="fill:orange; stroke:rgb(0,0,0);" rx="1"/>
<text x="582" y="361" style="font-family:sans-serif;font-size:10px;">
expr
</text>
<rect x="309.58544921875" y="192.0" width="51.0" height="15.0" style="fill:orange; stroke:rgb(0,0,0);" rx="1"/>
<text x="311" y="201" style="font-family:sans-serif;font-size:10px;">
statement
</text>
<rect x="401.5" y="512.0" width="41.0" height="15.0" style="fill:orange; stroke:rgb(0,0,0);" rx="1"/>
<text x="403" y="521" style="font-family:sans-serif;font-size:10px;">
checkId
</text>
<rect x="356.74609375" y="416.0" width="51.0" height="15.0" style="fill:orange; stroke:rgb(0,0,0);" rx="1"/>
<text x="358" y="425" style="font-family:sans-serif;font-size:10px;">
statement
</text>
<rect x="118.58544921875" y="0.0" width="44.0" height="15.0" style="fill:orange; stroke:rgb(0,0,0);" rx="1"/>
<text x="120" y="9" style="font-family:sans-serif;font-size:10px;">
program
</text>
<rect x="217.2958984375" y="288.0" width="51.0" height="15.0" style="fill:orange; stroke:rgb(0,0,0);" rx="1"/>
<text x="219" y="297" style="font-family:sans-serif;font-size:10px;">
statement
</text>
<rect x="378.74609375" y="448.0" width="7.0" height="15.0" style="fill:orange; stroke:rgb(0,0,0);" rx="1"/>
<text x="380" y="457" style="font-family:sans-serif;font-size:10px;">
;
</text>
<rect x="300.25" y="512.0" width="51.0" height="15.0" style="fill:orange; stroke:rgb(0,0,0);" rx="1"/>
<text x="302" y="521" style="font-family:sans-serif;font-size:10px;">
statement
</text>
<rect x="126.71875" y="480.0" width="37.0" height="15.0" style="fill:orange; stroke:rgb(0,0,0);" rx="1"/>
<text x="128" y="489" style="font-family:sans-serif;font-size:10px;">
consts
</text>
<rect x="169.25" y="608.0" width="26.0" height="15.0" style="fill:orange; stroke:rgb(0,0,0);" rx="1"/>
<text x="171" y="617" style="font-family:sans-serif;font-size:10px;">
expr
</text>
<rect x="432.873046875" y="416.0" width="7.0" height="15.0" style="fill:orange; stroke:rgb(0,0,0);" rx="1"/>
<text x="434" y="425" style="font-family:sans-serif;font-size:10px;">
;
</text>
<rect x="36.08544921875" y="96.0" width="78.0" height="15.0" style="fill:orange; stroke:rgb(0,0,0);" rx="1"/>
<text x="38" y="105" style="font-family:sans-serif;font-size:10px;">
test_vulnerable
</text>
<rect x="198.58544921875" y="192.0" width="10.0" height="15.0" style="fill:orange; stroke:rgb(0,0,0);" rx="1"/>
<text x="200" y="201" style="font-family:sans-serif;font-size:10px;">
x
</text>
<rect x="200.2958984375" y="288.0" width="10.0" height="15.0" style="fill:orange; stroke:rgb(0,0,0);" rx="1"/>
<text x="202" y="297" style="font-family:sans-serif;font-size:10px;">
=
</text>
<rect x="392.58544921875" y="288.0" width="12.0" height="15.0" style="fill:orange; stroke:rgb(0,0,0);" rx="1"/>
<text x="394" y="297" style="font-family:sans-serif;font-size:10px;">
in
</text>
<rect x="517.5" y="448.0" width="37.0" height="15.0" style="fill:orange; stroke:rgb(0,0,0);" rx="1"/>
<text x="519" y="457" style="font-family:sans-serif;font-size:10px;">
consts
</text>
<rect x="528.875" y="288.0" width="51.0" height="15.0" style="fill:orange; stroke:rgb(0,0,0);" rx="1"/>
<text x="530" y="297" style="font-family:sans-serif;font-size:10px;">
statement
</text>
<rect x="133.71875" y="512.0" width="8.0" height="15.0" style="fill:orange; stroke:rgb(0,0,0);" rx="1"/>
<text x="135" y="521" style="font-family:sans-serif;font-size:10px;">
(
</text>
<rect x="211.2958984375" y="320.0" width="63.0" height="15.0" style="fill:orange; stroke:rgb(0,0,0);" rx="1"/>
<text x="213" y="329" style="font-family:sans-serif;font-size:10px;">
declarations
</text>
<rect x="523.0" y="416.0" width="26.0" height="15.0" style="fill:orange; stroke:rgb(0,0,0);" rx="1"/>
<text x="525" y="425" style="font-family:sans-serif;font-size:10px;">
expr
</text>
<rect x="303.58544921875" y="224.0" width="63.0" height="15.0" style="fill:orange; stroke:rgb(0,0,0);" rx="1"/>
<text x="305" y="233" style="font-family:sans-serif;font-size:10px;">
declarations
</text>
<rect x="178.5" y="640.0" width="37.0" height="15.0" style="fill:orange; stroke:rgb(0,0,0);" rx="1"/>
<text x="180" y="649" style="font-family:sans-serif;font-size:10px;">
argList
</text>
<rect x="163.71875" y="512.0" width="51.0" height="15.0" style="fill:orange; stroke:rgb(0,0,0);" rx="1"/>
<text x="165" y="521" style="font-family:sans-serif;font-size:10px;">
statement
</text>
<rect x="449.5" y="512.0" width="37.0" height="15.0" style="fill:orange; stroke:rgb(0,0,0);" rx="1"/>
<text x="451" y="521" style="font-family:sans-serif;font-size:10px;">
argList
</text>
<rect x="87.0" y="672.0" width="26.0" height="15.0" style="fill:orange; stroke:rgb(0,0,0);" rx="1"/>
<text x="89" y="681" style="font-family:sans-serif;font-size:10px;">
expr
</text>
<rect x="178.5" y="704.0" width="37.0" height="15.0" style="fill:orange; stroke:rgb(0,0,0);" rx="1"/>
<text x="180" y="713" style="font-family:sans-serif;font-size:10px;">
consts
</text>
<rect x="41.71875" y="384.0" width="15.0" height="15.0" style="fill:orange; stroke:rgb(0,0,0);" rx="1"/>
<text x="43" y="393" style="font-family:sans-serif;font-size:10px;">
let
</text>
<rect x="293.9921875" y="448.0" width="51.0" height="15.0" style="fill:orange; stroke:rgb(0,0,0);" rx="1"/>
<text x="295" y="457" style="font-family:sans-serif;font-size:10px;">
statement
</text>
<rect x="232.75" y="576.0" width="26.0" height="15.0" style="fill:orange; stroke:rgb(0,0,0);" rx="1"/>
<text x="234" y="585" style="font-family:sans-serif;font-size:10px;">
expr
</text>
<rect x="497.0" y="512.0" width="10.0" height="15.0" style="fill:orange; stroke:rgb(0,0,0);" rx="1"/>
<text x="499" y="521" style="font-family:sans-serif;font-size:10px;">
x
</text>
<rect x="489.0" y="480.0" width="26.0" height="15.0" style="fill:orange; stroke:rgb(0,0,0);" rx="1"/>
<text x="491" y="489" style="font-family:sans-serif;font-size:10px;">
expr
</text>
<rect x="228.08544921875" y="128.0" width="63.0" height="15.0" style="fill:orange; stroke:rgb(0,0,0);" rx="1"/>
<text x="230" y="137" style="font-family:sans-serif;font-size:10px;">
declarations
</text>
<rect x="377.75" y="544.0" width="37.0" height="15.0" style="fill:orange; stroke:rgb(0,0,0);" rx="1"/>
<text x="379" y="553" style="font-family:sans-serif;font-size:10px;">
argList
</text>
<rect x="228.08544921875" y="160.0" width="63.0" height="15.0" style="fill:orange; stroke:rgb(0,0,0);" rx="1"/>
<text x="230" y="169" style="font-family:sans-serif;font-size:10px;">
variableDecl
</text>
<rect x="14.25" y="608.0" width="51.0" height="15.0" style="fill:orange; stroke:rgb(0,0,0);" rx="1"/>
<text x="16" y="617" style="font-family:sans-serif;font-size:10px;">
statement
</text>
<rect x="383.25" y="576.0" width="26.0" height="15.0" style="fill:orange; stroke:rgb(0,0,0);" rx="1"/>
<text x="385" y="585" style="font-family:sans-serif;font-size:10px;">
expr
</text>
<rect x="108.58544921875" y="64.0" width="64.0" height="15.0" style="fill:orange; stroke:rgb(0,0,0);" rx="1"/>
<text x="110" y="73" style="font-family:sans-serif;font-size:10px;">
functionDecl
</text>
<rect x="286.25" y="576.0" width="26.0" height="15.0" style="fill:orange; stroke:rgb(0,0,0);" rx="1"/>
<text x="288" y="585" style="font-family:sans-serif;font-size:10px;">
expr
</text>
<rect x="95.0" y="704.0" width="10.0" height="15.0" style="fill:orange; stroke:rgb(0,0,0);" rx="1"/>
<text x="97" y="713" style="font-family:sans-serif;font-size:10px;">
x
</text>
<rect x="14.08544921875" y="96.0" width="15.0" height="15.0" style="fill:orange; stroke:rgb(0,0,0);" rx="1"/>
<text x="16" y="105" style="font-family:sans-serif;font-size:10px;">
let
</text>
<rect x="252.08544921875" y="224.0" width="37.0" height="15.0" style="fill:orange; stroke:rgb(0,0,0);" rx="1"/>
<text x="254" y="233" style="font-family:sans-serif;font-size:10px;">
consts
</text>
<rect x="480.5" y="384.0" width="30.0" height="15.0" style="fill:orange; stroke:rgb(0,0,0);" rx="1"/>
<text x="482" y="393" style="font-family:sans-serif;font-size:10px;">
popId
</text>
<rect x="57.625" y="576.0" width="51.0" height="15.0" style="fill:orange; stroke:rgb(0,0,0);" rx="1"/>
<text x="59" y="585" style="font-family:sans-serif;font-size:10px;">
statement
</text>
<rect x="130.2958984375" y="288.0" width="63.0" height="15.0" style="fill:orange; stroke:rgb(0,0,0);" rx="1"/>
<text x="132" y="297" style="font-family:sans-serif;font-size:10px;">
return_stat1
</text>
<rect x="26.75" y="640.0" width="26.0" height="15.0" style="fill:orange; stroke:rgb(0,0,0);" rx="1"/>
<text x="28" y="649" style="font-family:sans-serif;font-size:10px;">
expr
</text>
<rect x="140.0" y="672.0" width="26.0" height="15.0" style="fill:orange; stroke:rgb(0,0,0);" rx="1"/>
<text x="142" y="681" style="font-family:sans-serif;font-size:10px;">
expr
</text>
<rect x="347.25" y="640.0" width="10.0" height="15.0" style="fill:orange; stroke:rgb(0,0,0);" rx="1"/>
<text x="349" y="649" style="font-family:sans-serif;font-size:10px;">
1
</text>
<rect x="211.2958984375" y="352.0" width="63.0" height="15.0" style="fill:orange; stroke:rgb(0,0,0);" rx="1"/>
<text x="213" y="361" style="font-family:sans-serif;font-size:10px;">
variableDecl
</text>
<rect x="105.71875" y="384.0" width="26.0" height="15.0" style="fill:orange; stroke:rgb(0,0,0);" rx="1"/>
<text x="107" y="393" style="font-family:sans-serif;font-size:10px;">
expr
</text>
<rect x="333.75" y="608.0" width="37.0" height="15.0" style="fill:orange; stroke:rgb(0,0,0);" rx="1"/>
<text x="335" y="617" style="font-family:sans-serif;font-size:10px;">
consts
</text>
<rect x="517.5" y="384.0" width="37.0" height="15.0" style="fill:orange; stroke:rgb(0,0,0);" rx="1"/>
<text x="519" y="393" style="font-family:sans-serif;font-size:10px;">
argList
</text>
<rect x="368.5" y="512.0" width="26.0" height="15.0" style="fill:orange; stroke:rgb(0,0,0);" rx="1"/>
<text x="370" y="521" style="font-family:sans-serif;font-size:10px;">
expr
</text>
<rect x="48.5" y="704.0" width="26.0" height="15.0" style="fill:orange; stroke:rgb(0,0,0);" rx="1"/>
<text x="50" y="713" style="font-family:sans-serif;font-size:10px;">
expr
</text>
<rect x="134.5" y="704.0" width="37.0" height="15.0" style="fill:orange; stroke:rgb(0,0,0);" rx="1"/>
<text x="136" y="713" style="font-family:sans-serif;font-size:10px;">
consts
</text>
<rect x="64.71875" y="416.0" width="55.0" height="15.0" style="fill:orange; stroke:rgb(0,0,0);" rx="1"/>
<text x="66" y="425" style="font-family:sans-serif;font-size:10px;">
generateId
</text>
<rect x="215.58544921875" y="192.0" width="10.0" height="15.0" style="fill:orange; stroke:rgb(0,0,0);" rx="1"/>
<text x="217" y="201" style="font-family:sans-serif;font-size:10px;">
=
</text>
<rect x="109.08544921875" y="32.0" width="63.0" height="15.0" style="fill:orange; stroke:rgb(0,0,0);" rx="1"/>
<text x="111" y="41" style="font-family:sans-serif;font-size:10px;">
declarations
</text>
<rect x="63.71875" y="384.0" width="18.0" height="15.0" style="fill:orange; stroke:rgb(0,0,0);" rx="1"/>
<text x="65" y="393" style="font-family:sans-serif;font-size:10px;">
id1
</text>
<rect x="315.9921875" y="480.0" width="7.0" height="15.0" style="fill:orange; stroke:rgb(0,0,0);" rx="1"/>
<text x="317" y="489" style="font-family:sans-serif;font-size:10px;">
;
</text>
<rect x="290.58544921875" y="192.0" width="12.0" height="15.0" style="fill:orange; stroke:rgb(0,0,0);" rx="1"/>
<text x="292" y="201" style="font-family:sans-serif;font-size:10px;">
in
</text>
<rect x="126.71875" y="416.0" width="37.0" height="15.0" style="fill:orange; stroke:rgb(0,0,0);" rx="1"/>
<text x="128" y="425" style="font-family:sans-serif;font-size:10px;">
argList
</text>
<rect x="312.75" y="544.0" width="26.0" height="15.0" style="fill:orange; stroke:rgb(0,0,0);" rx="1"/>
<text x="314" y="553" style="font-family:sans-serif;font-size:10px;">
expr
</text>
<rect x="410.873046875" y="384.0" width="51.0" height="15.0" style="fill:orange; stroke:rgb(0,0,0);" rx="1"/>
<text x="412" y="393" style="font-family:sans-serif;font-size:10px;">
statement
</text>
</svg>