<svg width="1267.2" height="756.8000000000001" xmlns="http://www.w3.org/2000/svg" xmlns:xlink="http://www.w3.org/1999/xlink"><line x1="169.25" y1="7.5" x2="169.25" y2="32.0" style="stroke:black; stroke-width:1px;" />
<line x1="169.25" y1="39.5" x2="169.25" y2="64.0" style="stroke:black; stroke-width:1px;" />
<line x1="169.25" y1="71.5" x2="93.75" y2="96.0" style="stroke:black; stroke-width:1px;" />
<line x1="169.25" y1="71.5" x2="113.25" y2="96.0" style="stroke:black; stroke-width:1px;" />
<line x1="169.25" y1="71.5" x2="130.25" y2="96.0" style="stroke:black; stroke-width:1px;" />
<line x1="169.25" y1="71.5" x2="151.25" y2="96.0" style="stroke:black; stroke-width:1px;" />
<line x1="169.25" y1="71.5" x2="180.25" y2="96.0" style="stroke:black; stroke-width:1px;" />
<line x1="180.25" y1="103.5" x2="180.25" y2="128.0" style="stroke:black; stroke-width:1px;" />
<line x1="180.25" y1="135.5" x2="180.25" y2="160.0" style="stroke:black; stroke-width:1px;" />
<line x1="169.25" y1="71.5" x2="206.25" y2="96.0" style="stroke:black; stroke-width:1px;" />
<line x1="169.25" y1="71.5" x2="244.75" y2="96.0" style="stroke:black; stroke-width:1px;" />
<line x1="244.75" y1="103.5" x2="244.75" y2="128.0" style="stroke:black; stroke-width:1px;" />
<line x1="244.75" y1="135.5" x2="244.75" y2="160.0" style="stroke:black; stroke-width:1px;" />
<line x1="244.75" y1="167.5" x2="169.25" y2="192.0" style="stroke:black; stroke-width:1px;" />
<line x1="244.75" y1="167.5" x2="188.75" y2="192.0" style="stroke:black; stroke-width:1px;" />
<line x1="244.75" y1="167.5" x2="205.75" y2="192.0" style="stroke:black; stroke-width:1px;" />
<line x1="244.75" y1="167.5" x2="226.75" y2="192.0" style="stroke:black; stroke-width:1px;" />
<line x1="244.75" y1="167.5" x2="255.75" y2="192.0" style="stroke:black; stroke-width:1px;" />
<line x1="255.75" y1="199.5" x2="255.75" y2="224.0" style="stroke:black; stroke-width:1px;" />
<line x1="255.75" y1="231.5" x2="255.75" y2="256.0" style="stroke:black; stroke-width:1px;" />
<line x1="244.75" y1="167.5" x2="281.75" y2="192.0" style="stroke:black; stroke-width:1px;" />
<line x1="244.75" y1="167.5" x2="320.25" y2="192.0" style="stroke:black; stroke-width:1px;" />
<line x1="320.25" y1="199.5" x2="320.25" y2="224.0" style="stroke:black; stroke-width:1px;" />
<line x1="320.25" y1="231.5" x2="320.25" y2="256.0" style="stroke:black; stroke-width:1px;" />
<line x1="320.25" y1="263.5" x2="7.5" y2="288.0" style="stroke:black; stroke-width:1px;" />
<line x1="320.25" y1="263.5" x2="32.0" y2="288.0" style="stroke:black; stroke-width:1px;" />
<line x1="320.25" y1="263.5" x2="60.0" y2="288.0" style="stroke:black; stroke-width:1px;" />
<line x1="320.25" y1="263.5" x2="122.5" y2="288.0" style="stroke:black; stroke-width:1px;" />
<line x1="122.5" y1="295.5" x2="122.5" y2="320.0" style="stroke:black; stroke-width:1px;" />
<line x1="122.5" y1="327.5" x2="122.5" y2="352.0" style="stroke:black; stroke-width:1px;" />
<line x1="320.25" y1="263.5" x2="217.046875" y2="288.0" style="stroke:black; stroke-width:1px;" />
<line x1="320.25" y1="263.5" x2="292.59375" y2="288.0" style="stroke:black; stroke-width:1px;" />
<line x1="292.59375" y1="295.5" x2="176.0" y2="320.0" style="stroke:black; stroke-width:1px;" />
<line x1="292.59375" y1="295.5" x2="201.0" y2="320.0" style="stroke:black; stroke-width:1px;" />
<line x1="201.0" y1="327.5" x2="176.0" y2="352.0" style="stroke:black; stroke-width:1px;" />
<line x1="176.0" y1="359.5" x2="176.0" y2="384.0" style="stroke:black; stroke-width:1px;" />
<line x1="201.0" y1="327.5" x2="201.0" y2="352.0" style="stroke:black; stroke-width:1px;" />
<line x1="201.0" y1="327.5" x2="226.0" y2="352.0" style="stroke:black; stroke-width:1px;" />
<line x1="226.0" y1="359.5" x2="226.0" y2="384.0" style="stroke:black; stroke-width:1px;" />
<line x1="226.0" y1="391.5" x2="226.0" y2="416.0" style="stroke:black; stroke-width:1px;" />
<line x1="292.59375" y1="295.5" x2="233.5" y2="320.0" style="stroke:black; stroke-width:1px;" />
<line x1="292.59375" y1="295.5" x2="278.5" y2="320.0" style="stroke:black; stroke-width:1px;" />
<line x1="278.5" y1="327.5" x2="278.5" y2="352.0" style="stroke:black; stroke-width:1px;" />
<line x1="278.5" y1="359.5" x2="278.5" y2="384.0" style="stroke:black; stroke-width:1px;" />
<line x1="278.5" y1="391.5" x2="271.0" y2="416.0" style="stroke:black; stroke-width:1px;" />
<line x1="278.5" y1="391.5" x2="286.0" y2="416.0" style="stroke:black; stroke-width:1px;" />
<line x1="292.59375" y1="295.5" x2="343.84375" y2="320.0" style="stroke:black; stroke-width:1px;" />
<line x1="292.59375" y1="295.5" x2="409.1875" y2="320.0" style="stroke:black; stroke-width:1px;" />
<line x1="409.1875" y1="327.5" x2="409.1875" y2="352.0" style="stroke:black; stroke-width:1px;" />
<line x1="409.1875" y1="359.5" x2="409.1875" y2="384.0" style="stroke:black; stroke-width:1px;" />
<line x1="409.1875" y1="391.5" x2="304.5" y2="416.0" style="stroke:black; stroke-width:1px;" />
<line x1="409.1875" y1="391.5" x2="322.5" y2="416.0" style="stroke:black; stroke-width:1px;" />
<line x1="409.1875" y1="391.5" x2="338.0" y2="416.0" style="stroke:black; stroke-width:1px;" />
<line x1="409.1875" y1="391.5" x2="363.0" y2="416.0" style="stroke:black; stroke-width:1px;" />
<line x1="363.0" y1="423.5" x2="351.5" y2="448.0" style="stroke:black; stroke-width:1px;" />
<line x1="363.0" y1="423.5" x2="374.5" y2="448.0" style="stroke:black; stroke-width:1px;" />
<line x1="374.5" y1="455.5" x2="374.5" y2="480.0" style="stroke:black; stroke-width:1px;" />
<line x1="409.1875" y1="391.5" x2="432.1875" y2="416.0" style="stroke:black; stroke-width:1px;" />
<line x1="409.1875" y1="391.5" x2="513.875" y2="416.0" style="stroke:black; stroke-width:1px;" />
<line x1="513.875" y1="423.5" x2="463.5" y2="448.0" style="stroke:black; stroke-width:1px;" />
<line x1="463.5" y1="455.5" x2="412.0" y2="480.0" style="stroke:black; stroke-width:1px;" />
<line x1="412.0" y1="487.5" x2="412.0" y2="512.0" style="stroke:black; stroke-width:1px;" />
<line x1="412.0" y1="519.5" x2="385.5" y2="544.0" style="stroke:black; stroke-width:1px;" />
<line x1="385.5" y1="551.5" x2="385.5" y2="576.0" style="stroke:black; stroke-width:1px;" />
<line x1="412.0" y1="519.5" x2="412.0" y2="544.0" style="stroke:black; stroke-width:1px;" />
<line x1="412.0" y1="519.5" x2="438.5" y2="544.0" style="stroke:black; stroke-width:1px;" />
<line x1="438.5" y1="551.5" x2="413.5" y2="576.0" style="stroke:black; stroke-width:1px;" />
<line x1="413.5" y1="583.5" x2="402.0" y2="608.0" style="stroke:black; stroke-width:1px;" />
<line x1="413.5" y1="583.5" x2="425.0" y2="608.0" style="stroke:black; stroke-width:1px;" />
<line x1="425.0" y1="615.5" x2="425.0" y2="640.0" style="stroke:black; stroke-width:1px;" />
<line x1="438.5" y1="551.5" x2="438.5" y2="576.0" style="stroke:black; stroke-width:1px;" />
<line x1="438.5" y1="551.5" x2="463.5" y2="576.0" style="stroke:black; stroke-width:1px;" />
<line x1="463.5" y1="583.5" x2="452.0" y2="608.0" style="stroke:black; stroke-width:1px;" />
<line x1="463.5" y1="583.5" x2="475.0" y2="608.0" style="stroke:black; stroke-width:1px;" />
<line x1="475.0" y1="615.5" x2="475.0" y2="640.0" style="stroke:black; stroke-width:1px;" />
<line x1="463.5" y1="455.5" x2="463.5" y2="480.0" style="stroke:black; stroke-width:1px;" />
<line x1="463.5" y1="455.5" x2="515.0" y2="480.0" style="stroke:black; stroke-width:1px;" />
<line x1="515.0" y1="487.5" x2="515.0" y2="512.0" style="stroke:black; stroke-width:1px;" />
<line x1="515.0" y1="519.5" x2="488.5" y2="544.0" style="stroke:black; stroke-width:1px;" />
<line x1="488.5" y1="551.5" x2="488.5" y2="576.0" style="stroke:black; stroke-width:1px;" />
<line x1="515.0" y1="519.5" x2="515.0" y2="544.0" style="stroke:black; stroke-width:1px;" />
<line x1="515.0" y1="519.5" x2="541.5" y2="544.0" style="stroke:black; stroke-width:1px;" />
<line x1="541.5" y1="551.5" x2="541.5" y2="576.0" style="stroke:black; stroke-width:1px;" />
<line x1="513.875" y1="423.5" x2="513.875" y2="448.0" style="stroke:black; stroke-width:1px;" />
<line x1="513.875" y1="423.5" x2="564.25" y2="448.0" style="stroke:black; stroke-width:1px;" />
<line x1="564.25" y1="455.5" x2="564.25" y2="480.0" style="stroke:black; stroke-width:1px;" />
<line x1="564.25" y1="487.5" x2="546.0" y2="512.0" style="stroke:black; stroke-width:1px;" />
<line x1="564.25" y1="487.5" x2="582.5" y2="512.0" style="stroke:black; stroke-width:1px;" />
<line x1="582.5" y1="519.5" x2="582.5" y2="544.0" style="stroke:black; stroke-width:1px;" />
<line x1="582.5" y1="551.5" x2="558.5" y2="576.0" style="stroke:black; stroke-width:1px;" />
<line x1="582.5" y1="551.5" x2="582.5" y2="576.0" style="stroke:black; stroke-width:1px;" />
<line x1="582.5" y1="583.5" x2="558.5" y2="608.0" style="stroke:black; stroke-width:1px;" />
<line x1="558.5" y1="615.5" x2="558.5" y2="640.0" style="stroke:black; stroke-width:1px;" />
<line x1="582.5" y1="583.5" x2="582.5" y2="608.0" style="stroke:black; stroke-width:1px;" />
<line x1="582.5" y1="583.5" x2="606.5" y2="608.0" style="stroke:black; stroke-width:1px;" />
<line x1="606.5" y1="615.5" x2="606.5" y2="640.0" style="stroke:black; stroke-width:1px;" />
<line x1="606.5" y1="647.5" x2="606.5" y2="672.0" style="stroke:black; stroke-width:1px;" />
<line x1="582.5" y1="551.5" x2="606.5" y2="576.0" style="stroke:black; stroke-width:1px;" />
<line x1="320.25" y1="263.5" x2="462.796875" y2="288.0" style="stroke:black; stroke-width:1px;" />
<line x1="320.25" y1="263.5" x2="633.0" y2="288.0" style="stroke:black; stroke-width:1px;" />
<line x1="633.0" y1="295.5" x2="597.0" y2="320.0" style="stroke:black; stroke-width:1px;" />
<line x1="597.0" y1="327.5" x2="597.0" y2="352.0" style="stroke:black; stroke-width:1px;" />
<line x1="597.0" y1="359.5" x2="578.75" y2="384.0" style="stroke:black; stroke-width:1px;" />
<line x1="597.0" y1="359.5" x2="615.25" y2="384.0" style="stroke:black; stroke-width:1px;" />
<line x1="615.25" y1="391.5" x2="615.25" y2="416.0" style="stroke:black; stroke-width:1px;" />
<line x1="615.25" y1="423.5" x2="615.25" y2="448.0" style="stroke:black; stroke-width:1px;" />
<line x1="615.25" y1="455.5" x2="615.25" y2="480.0" style="stroke:black; stroke-width:1px;" />
<line x1="633.0" y1="295.5" x2="633.0" y2="320.0" style="stroke:black; stroke-width:1px;" />
<line x1="633.0" y1="295.5" x2="669.0" y2="320.0" style="stroke:black; stroke-width:1px;" />
<line x1="669.0" y1="327.5" x2="669.0" y2="352.0" style="stroke:black; stroke-width:1px;" />
<line x1="669.0" y1="359.5" x2="657.5" y2="384.0" style="stroke:black; stroke-width:1px;" />
<line x1="669.0" y1="359.5" x2="680.5" y2="384.0" style="stroke:black; stroke-width:1px;" />
<line x1="680.5" y1="391.5" x2="680.5" y2="416.0" style="stroke:black; stroke-width:1px;" />
<rect x="86.25" y="96.0" width="15.0" height="15.0" style="fill:orange; stroke:rgb(0,0,0);" rx="1"/>
<text x="88" y="105" style="font-family:sans-serif;font-size:10px;">
let
</text>
<rect x="420.0" y="640.0" width="10.0" height="15.0" style="fill:orange; stroke:rgb(0,0,0);" rx="1"/>
<text x="422" y="649" style="font-family:sans-serif;font-size:10px;">
a
</text>
<rect x="510.375" y="448.0" width="7.0" height="15.0" style="fill:orange; stroke:rgb(0,0,0);" rx="1"/>
<text x="512" y="457" style="font-family:sans-serif;font-size:10px;">
;
</text>
<rect x="137.75" y="64.0" width="63.0" height="15.0" style="fill:orange; stroke:rgb(0,0,0);" rx="1"/>
<text x="139" y="73" style="font-family:sans-serif;font-size:10px;">
variableDecl
</text>
<rect x="462.0" y="608.0" width="26.0" height="15.0" style="fill:orange; stroke:rgb(0,0,0);" rx="1"/>
<text x="464" y="617" style="font-family:sans-serif;font-size:10px;">
expr
</text>
<rect x="196.0" y="352.0" width="10.0" height="15.0" style="fill:orange; stroke:rgb(0,0,0);" rx="1"/>
<text x="198" y="361" style="font-family:sans-serif;font-size:10px;">
=
</text>
<rect x="161.75" y="192.0" width="15.0" height="15.0" style="fill:orange; stroke:rgb(0,0,0);" rx="1"/>
<text x="163" y="201" style="font-family:sans-serif;font-size:10px;">
let
</text>
<rect x="588.0" y="640.0" width="37.0" height="15.0" style="fill:orange; stroke:rgb(0,0,0);" rx="1"/>
<text x="590" y="649" style="font-family:sans-serif;font-size:10px;">
consts
</text>
<rect x="377.6875" y="352.0" width="63.0" height="15.0" style="fill:orange; stroke:rgb(0,0,0);" rx="1"/>
<text x="379" y="361" style="font-family:sans-serif;font-size:10px;">
declarations
</text>
<rect x="297.0" y="416.0" width="15.0" height="15.0" style="fill:orange; stroke:rgb(0,0,0);" rx="1"/>
<text x="299" y="425" style="font-family:sans-serif;font-size:10px;">
let
</text>
<rect x="200.75" y="192.0" width="10.0" height="15.0" style="fill:orange; stroke:rgb(0,0,0);" rx="1"/>
<text x="202" y="201" style="font-family:sans-serif;font-size:10px;">
=
</text>
<rect x="386.5" y="480.0" width="51.0" height="15.0" style="fill:orange; stroke:rgb(0,0,0);" rx="1"/>
<text x="388" y="489" style="font-family:sans-serif;font-size:10px;">
statement
</text>
<rect x="567.75" y="384.0" width="22.0" height="15.0" style="fill:orange; stroke:rgb(0,0,0);" rx="1"/>
<text x="569" y="393" style="font-family:sans-serif;font-size:10px;">
fibo
</text>
<rect x="213.25" y="128.0" width="63.0" height="15.0" style="fill:orange; stroke:rgb(0,0,0);" rx="1"/>
<text x="215" y="137" style="font-family:sans-serif;font-size:10px;">
declarations
</text>
<rect x="460.0" y="480.0" width="7.0" height="15.0" style="fill:orange; stroke:rgb(0,0,0);" rx="1"/>
<text x="462" y="489" style="font-family:sans-serif;font-size:10px;">
;
</text>
<rect x="538.75" y="448.0" width="51.0" height="15.0" style="fill:orange; stroke:rgb(0,0,0);" rx="1"/>
<text x="540" y="457" style="font-family:sans-serif;font-size:10px;">
statement
</text>
<rect x="596.75" y="448.0" width="37.0" height="15.0" style="fill:orange; stroke:rgb(0,0,0);" rx="1"/>
<text x="598" y="457" style="font-family:sans-serif;font-size:10px;">
consts
</text>
<rect x="221.0" y="416.0" width="10.0" height="15.0" style="fill:orange; stroke:rgb(0,0,0);" rx="1"/>
<text x="223" y="425" style="font-family:sans-serif;font-size:10px;">
0
</text>
<rect x="147.25" y="0.0" width="44.0" height="15.0" style="fill:orange; stroke:rgb(0,0,0);" rx="1"/>
<text x="149" y="9" style="font-family:sans-serif;font-size:10px;">
program
</text>
<rect x="175.25" y="160.0" width="10.0" height="15.0" style="fill:orange; stroke:rgb(0,0,0);" rx="1"/>
<text x="177" y="169" style="font-family:sans-serif;font-size:10px;">
1
</text>
<rect x="288.75" y="224.0" width="63.0" height="15.0" style="fill:orange; stroke:rgb(0,0,0);" rx="1"/>
<text x="290" y="233" style="font-family:sans-serif;font-size:10px;">
declarations
</text>
<rect x="675.5" y="416.0" width="10.0" height="15.0" style="fill:orange; stroke:rgb(0,0,0);" rx="1"/>
<text x="677" y="425" style="font-family:sans-serif;font-size:10px;">
a
</text>
<rect x="643.5" y="320.0" width="51.0" height="15.0" style="fill:orange; stroke:rgb(0,0,0);" rx="1"/>
<text x="645" y="329" style="font-family:sans-serif;font-size:10px;">
statement
</text>
<rect x="553.5" y="640.0" width="10.0" height="15.0" style="fill:orange; stroke:rgb(0,0,0);" rx="1"/>
<text x="555" y="649" style="font-family:sans-serif;font-size:10px;">
n
</text>
<rect x="372.5" y="544.0" width="26.0" height="15.0" style="fill:orange; stroke:rgb(0,0,0);" rx="1"/>
<text x="374" y="553" style="font-family:sans-serif;font-size:10px;">
expr
</text>
<rect x="288.25" y="256.0" width="64.0" height="15.0" style="fill:orange; stroke:rgb(0,0,0);" rx="1"/>
<text x="290" y="265" style="font-family:sans-serif;font-size:10px;">
functionDecl
</text>
<rect x="78.0" y="288.0" width="89.0" height="15.0" style="fill:orange; stroke:rgb(0,0,0);" rx="1"/>
<text x="80" y="297" style="font-family:sans-serif;font-size:10px;">
formalParameters
</text>
<rect x="333.0" y="416.0" width="10.0" height="15.0" style="fill:orange; stroke:rgb(0,0,0);" rx="1"/>
<text x="335" y="425" style="font-family:sans-serif;font-size:10px;">
=
</text>
<rect x="380.5" y="576.0" width="10.0" height="15.0" style="fill:orange; stroke:rgb(0,0,0);" rx="1"/>
<text x="382" y="585" style="font-family:sans-serif;font-size:10px;">
b
</text>
<rect x="551.25" y="480.0" width="26.0" height="15.0" style="fill:orange; stroke:rgb(0,0,0);" rx="1"/>
<text x="553" y="489" style="font-family:sans-serif;font-size:10px;">
expr
</text>
<rect x="571.5" y="320.0" width="51.0" height="15.0" style="fill:orange; stroke:rgb(0,0,0);" rx="1"/>
<text x="573" y="329" style="font-family:sans-serif;font-size:10px;">
statement
</text>
<rect x="108.25" y="96.0" width="10.0" height="15.0" style="fill:orange; stroke:rgb(0,0,0);" rx="1"/>
<text x="110" y="105" style="font-family:sans-serif;font-size:10px;">
a
</text>
<rect x="602.5" y="576.0" width="8.0" height="15.0" style="fill:orange; stroke:rgb(0,0,0);" rx="1"/>
<text x="604" y="585" style="font-family:sans-serif;font-size:10px;">
)
</text>
<rect x="188.0" y="320.0" width="26.0" height="15.0" style="fill:orange; stroke:rgb(0,0,0);" rx="1"/>
<text x="190" y="329" style="font-family:sans-serif;font-size:10px;">
expr
</text>
<rect x="142.25" y="96.0" width="18.0" height="15.0" style="fill:orange; stroke:rgb(0,0,0);" rx="1"/>
<text x="144" y="105" style="font-family:sans-serif;font-size:10px;">
ref
</text>
<rect x="221.0" y="320.0" width="25.0" height="15.0" style="fill:orange; stroke:rgb(0,0,0);" rx="1"/>
<text x="223" y="329" style="font-family:sans-serif;font-size:10px;">
then
</text>
<rect x="528.5" y="544.0" width="26.0" height="15.0" style="fill:orange; stroke:rgb(0,0,0);" rx="1"/>
<text x="530" y="553" style="font-family:sans-serif;font-size:10px;">
expr
</text>
<rect x="163.0" y="352.0" width="26.0" height="15.0" style="fill:orange; stroke:rgb(0,0,0);" rx="1"/>
<text x="165" y="361" style="font-family:sans-serif;font-size:10px;">
expr
</text>
<rect x="400.5" y="576.0" width="26.0" height="15.0" style="fill:orange; stroke:rgb(0,0,0);" rx="1"/>
<text x="402" y="585" style="font-family:sans-serif;font-size:10px;">
expr
</text>
<rect x="483.5" y="576.0" width="10.0" height="15.0" style="fill:orange; stroke:rgb(0,0,0);" rx="1"/>
<text x="485" y="585" style="font-family:sans-serif;font-size:10px;">
a
</text>
<rect x="242.75" y="192.0" width="26.0" height="15.0" style="fill:orange; stroke:rgb(0,0,0);" rx="1"/>
<text x="244" y="201" style="font-family:sans-serif;font-size:10px;">
expr
</text>
<rect x="545.5" y="608.0" width="26.0" height="15.0" style="fill:orange; stroke:rgb(0,0,0);" rx="1"/>
<text x="547" y="617" style="font-family:sans-serif;font-size:10px;">
expr
</text>
<rect x="207.5" y="384.0" width="37.0" height="15.0" style="fill:orange; stroke:rgb(0,0,0);" rx="1"/>
<text x="209" y="393" style="font-family:sans-serif;font-size:10px;">
consts
</text>
<rect x="171.0" y="384.0" width="10.0" height="15.0" style="fill:orange; stroke:rgb(0,0,0);" rx="1"/>
<text x="173" y="393" style="font-family:sans-serif;font-size:10px;">
n
</text>
<rect x="502.0" y="512.0" width="26.0" height="15.0" style="fill:orange; stroke:rgb(0,0,0);" rx="1"/>
<text x="504" y="521" style="font-family:sans-serif;font-size:10px;">
expr
</text>
<rect x="629.5" y="320.0" width="7.0" height="15.0" style="fill:orange; stroke:rgb(0,0,0);" rx="1"/>
<text x="631" y="329" style="font-family:sans-serif;font-size:10px;">
;
</text>
<rect x="667.5" y="384.0" width="26.0" height="15.0" style="fill:orange; stroke:rgb(0,0,0);" rx="1"/>
<text x="669" y="393" style="font-family:sans-serif;font-size:10px;">
expr
</text>
<rect x="438.0" y="448.0" width="51.0" height="15.0" style="fill:orange; stroke:rgb(0,0,0);" rx="1"/>
<text x="440" y="457" style="font-family:sans-serif;font-size:10px;">
statement
</text>
<rect x="602.25" y="416.0" width="26.0" height="15.0" style="fill:orange; stroke:rgb(0,0,0);" rx="1"/>
<text x="604" y="425" style="font-family:sans-serif;font-size:10px;">
expr
</text>
<rect x="369.5" y="480.0" width="10.0" height="15.0" style="fill:orange; stroke:rgb(0,0,0);" rx="1"/>
<text x="371" y="489" style="font-family:sans-serif;font-size:10px;">
b
</text>
<rect x="137.75" y="32.0" width="63.0" height="15.0" style="fill:orange; stroke:rgb(0,0,0);" rx="1"/>
<text x="139" y="41" style="font-family:sans-serif;font-size:10px;">
declarations
</text>
<rect x="167.25" y="96.0" width="26.0" height="15.0" style="fill:orange; stroke:rgb(0,0,0);" rx="1"/>
<text x="169" y="105" style="font-family:sans-serif;font-size:10px;">
expr
</text>
<rect x="554.5" y="576.0" width="8.0" height="15.0" style="fill:orange; stroke:rgb(0,0,0);" rx="1"/>
<text x="556" y="585" style="font-family:sans-serif;font-size:10px;">
(
</text>
<rect x="361.5" y="448.0" width="26.0" height="15.0" style="fill:orange; stroke:rgb(0,0,0);" rx="1"/>
<text x="363" y="457" style="font-family:sans-serif;font-size:10px;">
expr
</text>
<rect x="569.5" y="576.0" width="26.0" height="15.0" style="fill:orange; stroke:rgb(0,0,0);" rx="1"/>
<text x="571" y="585" style="font-family:sans-serif;font-size:10px;">
expr
</text>
<rect x="260.0" y="384.0" width="37.0" height="15.0" style="fill:orange; stroke:rgb(0,0,0);" rx="1"/>
<text x="262" y="393" style="font-family:sans-serif;font-size:10px;">
consts
</text>
<rect x="217.75" y="192.0" width="18.0" height="15.0" style="fill:orange; stroke:rgb(0,0,0);" rx="1"/>
<text x="219" y="201" style="font-family:sans-serif;font-size:10px;">
ref
</text>
<rect x="22.0" y="288.0" width="20.0" height="15.0" style="fill:orange; stroke:rgb(0,0,0);" rx="1"/>
<text x="24" y="297" style="font-family:sans-serif;font-size:10px;">
rec
</text>
<rect x="538.0" y="576.0" width="7.0" height="15.0" style="fill:orange; stroke:rgb(0,0,0);" rx="1"/>
<text x="540" y="585" style="font-family:sans-serif;font-size:10px;">
t
</text>
<rect x="125.25" y="96.0" width="10.0" height="15.0" style="fill:orange; stroke:rgb(0,0,0);" rx="1"/>
<text x="127" y="105" style="font-family:sans-serif;font-size:10px;">
=
</text>
<rect x="405.5" y="544.0" width="13.0" height="15.0" style="fill:orange; stroke:rgb(0,0,0);" rx="1"/>
<text x="407" y="553" style="font-family:sans-serif;font-size:10px;">
:=
</text>
<rect x="470.0" y="640.0" width="10.0" height="15.0" style="fill:orange; stroke:rgb(0,0,0);" rx="1"/>
<text x="472" y="649" style="font-family:sans-serif;font-size:10px;">
b
</text>
<rect x="282.0" y="416.0" width="8.0" height="15.0" style="fill:orange; stroke:rgb(0,0,0);" rx="1"/>
<text x="284" y="425" style="font-family:sans-serif;font-size:10px;">
)
</text>
<rect x="596.75" y="384.0" width="37.0" height="15.0" style="fill:orange; stroke:rgb(0,0,0);" rx="1"/>
<text x="598" y="393" style="font-family:sans-serif;font-size:10px;">
argList
</text>
<rect x="456.796875" y="288.0" width="12.0" height="15.0" style="fill:orange; stroke:rgb(0,0,0);" rx="1"/>
<text x="458" y="297" style="font-family:sans-serif;font-size:10px;">
in
</text>
<rect x="183.75" y="192.0" width="10.0" height="15.0" style="fill:orange; stroke:rgb(0,0,0);" rx="1"/>
<text x="185" y="201" style="font-family:sans-serif;font-size:10px;">
b
</text>
<rect x="250.75" y="256.0" width="10.0" height="15.0" style="fill:orange; stroke:rgb(0,0,0);" rx="1"/>
<text x="252" y="265" style="font-family:sans-serif;font-size:10px;">
1
</text>
<rect x="377.6875" y="384.0" width="63.0" height="15.0" style="fill:orange; stroke:rgb(0,0,0);" rx="1"/>
<text x="379" y="393" style="font-family:sans-serif;font-size:10px;">
variableDecl
</text>
<rect x="200.25" y="96.0" width="12.0" height="15.0" style="fill:orange; stroke:rgb(0,0,0);" rx="1"/>
<text x="202" y="105" style="font-family:sans-serif;font-size:10px;">
in
</text>
<rect x="117.5" y="352.0" width="10.0" height="15.0" style="fill:orange; stroke:rgb(0,0,0);" rx="1"/>
<text x="119" y="361" style="font-family:sans-serif;font-size:10px;">
n
</text>
<rect x="399.0" y="512.0" width="26.0" height="15.0" style="fill:orange; stroke:rgb(0,0,0);" rx="1"/>
<text x="401" y="521" style="font-family:sans-serif;font-size:10px;">
expr
</text>
<rect x="267.0" y="416.0" width="8.0" height="15.0" style="fill:orange; stroke:rgb(0,0,0);" rx="1"/>
<text x="269" y="425" style="font-family:sans-serif;font-size:10px;">
(
</text>
<rect x="584.0" y="352.0" width="26.0" height="15.0" style="fill:orange; stroke:rgb(0,0,0);" rx="1"/>
<text x="586" y="361" style="font-family:sans-serif;font-size:10px;">
expr
</text>
<rect x="654.5" y="384.0" width="6.0" height="15.0" style="fill:orange; stroke:rgb(0,0,0);" rx="1"/>
<text x="656" y="393" style="font-family:sans-serif;font-size:10px;">
!
</text>
<rect x="601.5" y="672.0" width="10.0" height="15.0" style="fill:orange; stroke:rgb(0,0,0);" rx="1"/>
<text x="603" y="681" style="font-family:sans-serif;font-size:10px;">
1
</text>
<rect x="449.0" y="608.0" width="6.0" height="15.0" style="fill:orange; stroke:rgb(0,0,0);" rx="1"/>
<text x="451" y="617" style="font-family:sans-serif;font-size:10px;">
!
</text>
<rect x="294.75" y="192.0" width="51.0" height="15.0" style="fill:orange; stroke:rgb(0,0,0);" rx="1"/>
<text x="296" y="201" style="font-family:sans-serif;font-size:10px;">
statement
</text>
<rect x="578.5" y="608.0" width="8.0" height="15.0" style="fill:orange; stroke:rgb(0,0,0);" rx="1"/>
<text x="580" y="617" style="font-family:sans-serif;font-size:10px;">
-
</text>
<rect x="275.75" y="192.0" width="12.0" height="15.0" style="fill:orange; stroke:rgb(0,0,0);" rx="1"/>
<text x="277" y="201" style="font-family:sans-serif;font-size:10px;">
in
</text>
<rect x="319.0" y="416.0" width="7.0" height="15.0" style="fill:orange; stroke:rgb(0,0,0);" rx="1"/>
<text x="321" y="425" style="font-family:sans-serif;font-size:10px;">
t
</text>
<rect x="212.046875" y="288.0" width="10.0" height="15.0" style="fill:orange; stroke:rgb(0,0,0);" rx="1"/>
<text x="214" y="297" style="font-family:sans-serif;font-size:10px;">
=
</text>
<rect x="81.0" y="320.0" width="83.0" height="15.0" style="fill:orange; stroke:rgb(0,0,0);" rx="1"/>
<text x="83" y="329" style="font-family:sans-serif;font-size:10px;">
formalParameter
</text>
<rect x="49.0" y="288.0" width="22.0" height="15.0" style="fill:orange; stroke:rgb(0,0,0);" rx="1"/>
<text x="51" y="297" style="font-family:sans-serif;font-size:10px;">
fibo
</text>
<rect x="253.0" y="320.0" width="51.0" height="15.0" style="fill:orange; stroke:rgb(0,0,0);" rx="1"/>
<text x="255" y="329" style="font-family:sans-serif;font-size:10px;">
statement
</text>
<rect x="265.5" y="352.0" width="26.0" height="15.0" style="fill:orange; stroke:rgb(0,0,0);" rx="1"/>
<text x="267" y="361" style="font-family:sans-serif;font-size:10px;">
expr
</text>
<rect x="331.84375" y="320.0" width="24.0" height="15.0" style="fill:orange; stroke:rgb(0,0,0);" rx="1"/>
<text x="333" y="329" style="font-family:sans-serif;font-size:10px;">
else
</text>
<rect x="569.5" y="544.0" width="26.0" height="15.0" style="fill:orange; stroke:rgb(0,0,0);" rx="1"/>
<text x="571" y="553" style="font-family:sans-serif;font-size:10px;">
expr
</text>
<rect x="488.375" y="416.0" width="51.0" height="15.0" style="fill:orange; stroke:rgb(0,0,0);" rx="1"/>
<text x="490" y="425" style="font-family:sans-serif;font-size:10px;">
statement
</text>
<rect x="348.5" y="448.0" width="6.0" height="15.0" style="fill:orange; stroke:rgb(0,0,0);" rx="1"/>
<text x="350" y="457" style="font-family:sans-serif;font-size:10px;">
!
</text>
<rect x="433.5" y="576.0" width="10.0" height="15.0" style="fill:orange; stroke:rgb(0,0,0);" rx="1"/>
<text x="435" y="585" style="font-family:sans-serif;font-size:10px;">
+
</text>
<rect x="350.0" y="416.0" width="26.0" height="15.0" style="fill:orange; stroke:rgb(0,0,0);" rx="1"/>
<text x="352" y="425" style="font-family:sans-serif;font-size:10px;">
expr
</text>
<rect x="508.5" y="544.0" width="13.0" height="15.0" style="fill:orange; stroke:rgb(0,0,0);" rx="1"/>
<text x="510" y="553" style="font-family:sans-serif;font-size:10px;">
:=
</text>
<rect x="171.0" y="320.0" width="10.0" height="15.0" style="fill:orange; stroke:rgb(0,0,0);" rx="1"/>
<text x="173" y="329" style="font-family:sans-serif;font-size:10px;">
if
</text>
<rect x="161.75" y="128.0" width="37.0" height="15.0" style="fill:orange; stroke:rgb(0,0,0);" rx="1"/>
<text x="163" y="137" style="font-family:sans-serif;font-size:10px;">
consts
</text>
<rect x="213.25" y="160.0" width="63.0" height="15.0" style="fill:orange; stroke:rgb(0,0,0);" rx="1"/>
<text x="215" y="169" style="font-family:sans-serif;font-size:10px;">
variableDecl
</text>
<rect x="475.5" y="544.0" width="26.0" height="15.0" style="fill:orange; stroke:rgb(0,0,0);" rx="1"/>
<text x="477" y="553" style="font-family:sans-serif;font-size:10px;">
expr
</text>
<rect x="383.6875" y="320.0" width="51.0" height="15.0" style="fill:orange; stroke:rgb(0,0,0);" rx="1"/>
<text x="385" y="329" style="font-family:sans-serif;font-size:10px;">
statement
</text>
<rect x="426.1875" y="416.0" width="12.0" height="15.0" style="fill:orange; stroke:rgb(0,0,0);" rx="1"/>
<text x="428" y="425" style="font-family:sans-serif;font-size:10px;">
in
</text>
<rect x="219.25" y="96.0" width="51.0" height="15.0" style="fill:orange; stroke:rgb(0,0,0);" rx="1"/>
<text x="221" y="105" style="font-family:sans-serif;font-size:10px;">
statement
</text>
<rect x="450.5" y="576.0" width="26.0" height="15.0" style="fill:orange; stroke:rgb(0,0,0);" rx="1"/>
<text x="452" y="585" style="font-family:sans-serif;font-size:10px;">
expr
</text>
<rect x="564.0" y="512.0" width="37.0" height="15.0" style="fill:orange; stroke:rgb(0,0,0);" rx="1"/>
<text x="566" y="521" style="font-family:sans-serif;font-size:10px;">
argList
</text>
<rect x="399.0" y="608.0" width="6.0" height="15.0" style="fill:orange; stroke:rgb(0,0,0);" rx="1"/>
<text x="401" y="617" style="font-family:sans-serif;font-size:10px;">
!
</text>
<rect x="412.0" y="608.0" width="26.0" height="15.0" style="fill:orange; stroke:rgb(0,0,0);" rx="1"/>
<text x="414" y="617" style="font-family:sans-serif;font-size:10px;">
expr
</text>
<rect x="535.0" y="512.0" width="22.0" height="15.0" style="fill:orange; stroke:rgb(0,0,0);" rx="1"/>
<text x="537" y="521" style="font-family:sans-serif;font-size:10px;">
fibo
</text>
<rect x="237.25" y="224.0" width="37.0" height="15.0" style="fill:orange; stroke:rgb(0,0,0);" rx="1"/>
<text x="239" y="233" style="font-family:sans-serif;font-size:10px;">
consts
</text>
<rect x="0.0" y="288.0" width="15.0" height="15.0" style="fill:orange; stroke:rgb(0,0,0);" rx="1"/>
<text x="2" y="297" style="font-family:sans-serif;font-size:10px;">
let
</text>
<rect x="425.5" y="544.0" width="26.0" height="15.0" style="fill:orange; stroke:rgb(0,0,0);" rx="1"/>
<text x="427" y="553" style="font-family:sans-serif;font-size:10px;">
expr
</text>
<rect x="656.0" y="352.0" width="26.0" height="15.0" style="fill:orange; stroke:rgb(0,0,0);" rx="1"/>
<text x="658" y="361" style="font-family:sans-serif;font-size:10px;">
expr
</text>
<rect x="593.5" y="608.0" width="26.0" height="15.0" style="fill:orange; stroke:rgb(0,0,0);" rx="1"/>
<text x="595" y="617" style="font-family:sans-serif;font-size:10px;">
expr
</text>
<rect x="213.0" y="352.0" width="26.0" height="15.0" style="fill:orange; stroke:rgb(0,0,0);" rx="1"/>
<text x="215" y="361" style="font-family:sans-serif;font-size:10px;">
expr
</text>
<rect x="607.5" y="288.0" width="51.0" height="15.0" style="fill:orange; stroke:rgb(0,0,0);" rx="1"/>
<text x="609" y="297" style="font-family:sans-serif;font-size:10px;">
statement
</text>
<rect x="489.5" y="480.0" width="51.0" height="15.0" style="fill:orange; stroke:rgb(0,0,0);" rx="1"/>
<text x="491" y="489" style="font-family:sans-serif;font-size:10px;">
statement
</text>
<rect x="267.09375" y="288.0" width="51.0" height="15.0" style="fill:orange; stroke:rgb(0,0,0);" rx="1"/>
<text x="269" y="297" style="font-family:sans-serif;font-size:10px;">
statement
</text>
<rect x="607.25" y="480.0" width="16.0" height="15.0" style="fill:orange; stroke:rgb(0,0,0);" rx="1"/>
<text x="609" y="489" style="font-family:sans-serif;font-size:10px;">
29
</text>
</svg>