<svg width="1267.2" height="756.8000000000001" xmlns="http://www.w3.org/2000/svg" xmlns:xlink="http://www.w3.org/1999/xlink"><line x1="219.4375" y1="7.5" x2="219.4375" y2="32.0" style="stroke:black; stroke-width:1px;" />
<line x1="219.4375" y1="39.5" x2="219.4375" y2="64.0" style="stroke:black; stroke-width:1px;" />
<line x1="219.4375" y1="71.5" x2="143.9375" y2="96.0" style="stroke:black; stroke-width:1px;" />
<line x1="219.4375" y1="71.5" x2="163.4375" y2="96.0" style="stroke:black; stroke-width:1px;" />
<line x1="219.4375" y1="71.5" x2="180.4375" y2="96.0" style="stroke:black; stroke-width:1px;" />
<line x1="219.4375" y1="71.5" x2="201.4375" y2="96.0" style="stroke:black; stroke-width:1px;" />
<line x1="219.4375" y1="71.5" x2="230.4375" y2="96.0" style="stroke:black; stroke-width:1px;" />
<line x1="230.4375" y1="103.5" x2="230.4375" y2="128.0" style="stroke:black; stroke-width:1px;" />
<line x1="230.4375" y1="135.5" x2="230.4375" y2="160.0" style="stroke:black; stroke-width:1px;" />
<line x1="219.4375" y1="71.5" x2="256.4375" y2="96.0" style="stroke:black; stroke-width:1px;" />
<line x1="219.4375" y1="71.5" x2="294.9375" y2="96.0" style="stroke:black; stroke-width:1px;" />
<line x1="294.9375" y1="103.5" x2="294.9375" y2="128.0" style="stroke:black; stroke-width:1px;" />
<line x1="294.9375" y1="135.5" x2="294.9375" y2="160.0" style="stroke:black; stroke-width:1px;" />
<line x1="294.9375" y1="167.5" x2="219.4375" y2="192.0" style="stroke:black; stroke-width:1px;" />
<line x1="294.9375" y1="167.5" x2="238.9375" y2="192.0" style="stroke:black; stroke-width:1px;" />
<line x1="294.9375" y1="167.5" x2="255.9375" y2="192.0" style="stroke:black; stroke-width:1px;" />
<line x1="294.9375" y1="167.5" x2="276.9375" y2="192.0" style="stroke:black; stroke-width:1px;" />
<line x1="294.9375" y1="167.5" x2="305.9375" y2="192.0" style="stroke:black; stroke-width:1px;" />
<line x1="305.9375" y1="199.5" x2="305.9375" y2="224.0" style="stroke:black; stroke-width:1px;" />
<line x1="305.9375" y1="231.5" x2="305.9375" y2="256.0" style="stroke:black; stroke-width:1px;" />
<line x1="294.9375" y1="167.5" x2="331.9375" y2="192.0" style="stroke:black; stroke-width:1px;" />
<line x1="294.9375" y1="167.5" x2="370.4375" y2="192.0" style="stroke:black; stroke-width:1px;" />
<line x1="370.4375" y1="199.5" x2="370.4375" y2="224.0" style="stroke:black; stroke-width:1px;" />
<line x1="370.4375" y1="231.5" x2="370.4375" y2="256.0" style="stroke:black; stroke-width:1px;" />
<line x1="370.4375" y1="263.5" x2="7.5" y2="288.0" style="stroke:black; stroke-width:1px;" />
<line x1="370.4375" y1="263.5" x2="32.0" y2="288.0" style="stroke:black; stroke-width:1px;" />
<line x1="370.4375" y1="263.5" x2="60.0" y2="288.0" style="stroke:black; stroke-width:1px;" />
<line x1="370.4375" y1="263.5" x2="122.5" y2="288.0" style="stroke:black; stroke-width:1px;" />
<line x1="122.5" y1="295.5" x2="77.5" y2="320.0" style="stroke:black; stroke-width:1px;" />
<line x1="77.5" y1="327.5" x2="77.5" y2="352.0" style="stroke:black; stroke-width:1px;" />
<line x1="122.5" y1="295.5" x2="167.5" y2="320.0" style="stroke:black; stroke-width:1px;" />
<line x1="167.5" y1="327.5" x2="167.5" y2="352.0" style="stroke:black; stroke-width:1px;" />
<line x1="370.4375" y1="263.5" x2="242.00390625" y2="288.0" style="stroke:black; stroke-width:1px;" />
<line x1="370.4375" y1="263.5" x2="342.5078125" y2="288.0" style="stroke:black; stroke-width:1px;" />
<line x1="342.5078125" y1="295.5" x2="221.0" y2="320.0" style="stroke:black; stroke-width:1px;" />
<line x1="342.5078125" y1="295.5" x2="246.0" y2="320.0" style="stroke:black; stroke-width:1px;" />
<line x1="246.0" y1="327.5" x2="221.0" y2="352.0" style="stroke:black; stroke-width:1px;" />
<line x1="221.0" y1="359.5" x2="221.0" y2="384.0" style="stroke:black; stroke-width:1px;" />
<line x1="246.0" y1="327.5" x2="246.0" y2="352.0" style="stroke:black; stroke-width:1px;" />
<line x1="246.0" y1="327.5" x2="271.0" y2="352.0" style="stroke:black; stroke-width:1px;" />
<line x1="271.0" y1="359.5" x2="271.0" y2="384.0" style="stroke:black; stroke-width:1px;" />
<line x1="271.0" y1="391.5" x2="271.0" y2="416.0" style="stroke:black; stroke-width:1px;" />
<line x1="342.5078125" y1="295.5" x2="278.5" y2="320.0" style="stroke:black; stroke-width:1px;" />
<line x1="342.5078125" y1="295.5" x2="323.5" y2="320.0" style="stroke:black; stroke-width:1px;" />
<line x1="323.5" y1="327.5" x2="323.5" y2="352.0" style="stroke:black; stroke-width:1px;" />
<line x1="323.5" y1="359.5" x2="323.5" y2="384.0" style="stroke:black; stroke-width:1px;" />
<line x1="323.5" y1="391.5" x2="316.0" y2="416.0" style="stroke:black; stroke-width:1px;" />
<line x1="323.5" y1="391.5" x2="331.0" y2="416.0" style="stroke:black; stroke-width:1px;" />
<line x1="342.5078125" y1="295.5" x2="393.7578125" y2="320.0" style="stroke:black; stroke-width:1px;" />
<line x1="342.5078125" y1="295.5" x2="464.015625" y2="320.0" style="stroke:black; stroke-width:1px;" />
<line x1="464.015625" y1="327.5" x2="464.015625" y2="352.0" style="stroke:black; stroke-width:1px;" />
<line x1="464.015625" y1="359.5" x2="464.015625" y2="384.0" style="stroke:black; stroke-width:1px;" />
<line x1="464.015625" y1="391.5" x2="349.5" y2="416.0" style="stroke:black; stroke-width:1px;" />
<line x1="464.015625" y1="391.5" x2="367.5" y2="416.0" style="stroke:black; stroke-width:1px;" />
<line x1="464.015625" y1="391.5" x2="383.0" y2="416.0" style="stroke:black; stroke-width:1px;" />
<line x1="464.015625" y1="391.5" x2="408.0" y2="416.0" style="stroke:black; stroke-width:1px;" />
<line x1="408.0" y1="423.5" x2="396.5" y2="448.0" style="stroke:black; stroke-width:1px;" />
<line x1="408.0" y1="423.5" x2="419.5" y2="448.0" style="stroke:black; stroke-width:1px;" />
<line x1="419.5" y1="455.5" x2="419.5" y2="480.0" style="stroke:black; stroke-width:1px;" />
<line x1="464.015625" y1="391.5" x2="487.015625" y2="416.0" style="stroke:black; stroke-width:1px;" />
<line x1="464.015625" y1="391.5" x2="578.53125" y2="416.0" style="stroke:black; stroke-width:1px;" />
<line x1="578.53125" y1="423.5" x2="515.9375" y2="448.0" style="stroke:black; stroke-width:1px;" />
<line x1="515.9375" y1="455.5" x2="457.0" y2="480.0" style="stroke:black; stroke-width:1px;" />
<line x1="457.0" y1="487.5" x2="417.125" y2="512.0" style="stroke:black; stroke-width:1px;" />
<line x1="417.125" y1="519.5" x2="417.125" y2="544.0" style="stroke:black; stroke-width:1px;" />
<line x1="417.125" y1="551.5" x2="402.375" y2="576.0" style="stroke:black; stroke-width:1px;" />
<line x1="417.125" y1="551.5" x2="431.875" y2="576.0" style="stroke:black; stroke-width:1px;" />
<line x1="431.875" y1="583.5" x2="431.875" y2="608.0" style="stroke:black; stroke-width:1px;" />
<line x1="431.875" y1="615.5" x2="431.875" y2="640.0" style="stroke:black; stroke-width:1px;" />
<line x1="431.875" y1="647.5" x2="424.375" y2="672.0" style="stroke:black; stroke-width:1px;" />
<line x1="431.875" y1="647.5" x2="439.375" y2="672.0" style="stroke:black; stroke-width:1px;" />
<line x1="457.0" y1="487.5" x2="457.0" y2="512.0" style="stroke:black; stroke-width:1px;" />
<line x1="457.0" y1="487.5" x2="496.875" y2="512.0" style="stroke:black; stroke-width:1px;" />
<line x1="496.875" y1="519.5" x2="496.875" y2="544.0" style="stroke:black; stroke-width:1px;" />
<line x1="496.875" y1="551.5" x2="470.375" y2="576.0" style="stroke:black; stroke-width:1px;" />
<line x1="470.375" y1="583.5" x2="470.375" y2="608.0" style="stroke:black; stroke-width:1px;" />
<line x1="496.875" y1="551.5" x2="496.875" y2="576.0" style="stroke:black; stroke-width:1px;" />
<line x1="496.875" y1="551.5" x2="523.375" y2="576.0" style="stroke:black; stroke-width:1px;" />
<line x1="523.375" y1="583.5" x2="498.375" y2="608.0" style="stroke:black; stroke-width:1px;" />
<line x1="498.375" y1="615.5" x2="486.875" y2="640.0" style="stroke:black; stroke-width:1px;" />
<line x1="498.375" y1="615.5" x2="509.875" y2="640.0" style="stroke:black; stroke-width:1px;" />
<line x1="509.875" y1="647.5" x2="509.875" y2="672.0" style="stroke:black; stroke-width:1px;" />
<line x1="523.375" y1="583.5" x2="523.375" y2="608.0" style="stroke:black; stroke-width:1px;" />
<line x1="523.375" y1="583.5" x2="548.375" y2="608.0" style="stroke:black; stroke-width:1px;" />
<line x1="548.375" y1="615.5" x2="536.875" y2="640.0" style="stroke:black; stroke-width:1px;" />
<line x1="548.375" y1="615.5" x2="559.875" y2="640.0" style="stroke:black; stroke-width:1px;" />
<line x1="559.875" y1="647.5" x2="559.875" y2="672.0" style="stroke:black; stroke-width:1px;" />
<line x1="515.9375" y1="455.5" x2="515.9375" y2="480.0" style="stroke:black; stroke-width:1px;" />
<line x1="515.9375" y1="455.5" x2="574.875" y2="480.0" style="stroke:black; stroke-width:1px;" />
<line x1="574.875" y1="487.5" x2="574.875" y2="512.0" style="stroke:black; stroke-width:1px;" />
<line x1="574.875" y1="519.5" x2="548.375" y2="544.0" style="stroke:black; stroke-width:1px;" />
<line x1="548.375" y1="551.5" x2="548.375" y2="576.0" style="stroke:black; stroke-width:1px;" />
<line x1="574.875" y1="519.5" x2="574.875" y2="544.0" style="stroke:black; stroke-width:1px;" />
<line x1="574.875" y1="519.5" x2="601.375" y2="544.0" style="stroke:black; stroke-width:1px;" />
<line x1="601.375" y1="551.5" x2="601.375" y2="576.0" style="stroke:black; stroke-width:1px;" />
<line x1="578.53125" y1="423.5" x2="578.53125" y2="448.0" style="stroke:black; stroke-width:1px;" />
<line x1="578.53125" y1="423.5" x2="641.125" y2="448.0" style="stroke:black; stroke-width:1px;" />
<line x1="641.125" y1="455.5" x2="641.125" y2="480.0" style="stroke:black; stroke-width:1px;" />
<line x1="641.125" y1="487.5" x2="622.875" y2="512.0" style="stroke:black; stroke-width:1px;" />
<line x1="641.125" y1="487.5" x2="659.375" y2="512.0" style="stroke:black; stroke-width:1px;" />
<line x1="659.375" y1="519.5" x2="639.875" y2="544.0" style="stroke:black; stroke-width:1px;" />
<line x1="639.875" y1="551.5" x2="615.875" y2="576.0" style="stroke:black; stroke-width:1px;" />
<line x1="639.875" y1="551.5" x2="639.875" y2="576.0" style="stroke:black; stroke-width:1px;" />
<line x1="639.875" y1="583.5" x2="615.875" y2="608.0" style="stroke:black; stroke-width:1px;" />
<line x1="615.875" y1="615.5" x2="615.875" y2="640.0" style="stroke:black; stroke-width:1px;" />
<line x1="639.875" y1="583.5" x2="639.875" y2="608.0" style="stroke:black; stroke-width:1px;" />
<line x1="639.875" y1="583.5" x2="663.875" y2="608.0" style="stroke:black; stroke-width:1px;" />
<line x1="663.875" y1="615.5" x2="663.875" y2="640.0" style="stroke:black; stroke-width:1px;" />
<line x1="663.875" y1="647.5" x2="663.875" y2="672.0" style="stroke:black; stroke-width:1px;" />
<line x1="639.875" y1="551.5" x2="663.875" y2="576.0" style="stroke:black; stroke-width:1px;" />
<line x1="659.375" y1="519.5" x2="678.875" y2="544.0" style="stroke:black; stroke-width:1px;" />
<line x1="678.875" y1="551.5" x2="678.875" y2="576.0" style="stroke:black; stroke-width:1px;" />
<line x1="370.4375" y1="263.5" x2="537.94140625" y2="288.0" style="stroke:black; stroke-width:1px;" />
<line x1="370.4375" y1="263.5" x2="733.375" y2="288.0" style="stroke:black; stroke-width:1px;" />
<line x1="733.375" y1="295.5" x2="697.375" y2="320.0" style="stroke:black; stroke-width:1px;" />
<line x1="697.375" y1="327.5" x2="697.375" y2="352.0" style="stroke:black; stroke-width:1px;" />
<line x1="697.375" y1="359.5" x2="679.125" y2="384.0" style="stroke:black; stroke-width:1px;" />
<line x1="697.375" y1="359.5" x2="715.625" y2="384.0" style="stroke:black; stroke-width:1px;" />
<line x1="715.625" y1="391.5" x2="692.125" y2="416.0" style="stroke:black; stroke-width:1px;" />
<line x1="692.125" y1="423.5" x2="692.125" y2="448.0" style="stroke:black; stroke-width:1px;" />
<line x1="692.125" y1="455.5" x2="692.125" y2="480.0" style="stroke:black; stroke-width:1px;" />
<line x1="715.625" y1="391.5" x2="739.125" y2="416.0" style="stroke:black; stroke-width:1px;" />
<line x1="739.125" y1="423.5" x2="739.125" y2="448.0" style="stroke:black; stroke-width:1px;" />
<line x1="733.375" y1="295.5" x2="733.375" y2="320.0" style="stroke:black; stroke-width:1px;" />
<line x1="733.375" y1="295.5" x2="769.375" y2="320.0" style="stroke:black; stroke-width:1px;" />
<line x1="769.375" y1="327.5" x2="769.375" y2="352.0" style="stroke:black; stroke-width:1px;" />
<line x1="769.375" y1="359.5" x2="757.875" y2="384.0" style="stroke:black; stroke-width:1px;" />
<line x1="769.375" y1="359.5" x2="780.875" y2="384.0" style="stroke:black; stroke-width:1px;" />
<line x1="780.875" y1="391.5" x2="780.875" y2="416.0" style="stroke:black; stroke-width:1px;" />
<rect x="481.015625" y="416.0" width="12.0" height="15.0" style="fill:orange; stroke:rgb(0,0,0);" rx="1"/>
<text x="483" y="425" style="font-family:sans-serif;font-size:10px;">
in
</text>
<rect x="208.0" y="352.0" width="26.0" height="15.0" style="fill:orange; stroke:rgb(0,0,0);" rx="1"/>
<text x="210" y="361" style="font-family:sans-serif;font-size:10px;">
expr
</text>
<rect x="640.875" y="512.0" width="37.0" height="15.0" style="fill:orange; stroke:rgb(0,0,0);" rx="1"/>
<text x="642" y="521" style="font-family:sans-serif;font-size:10px;">
argList
</text>
<rect x="266.0" y="320.0" width="25.0" height="15.0" style="fill:orange; stroke:rgb(0,0,0);" rx="1"/>
<text x="268" y="329" style="font-family:sans-serif;font-size:10px;">
then
</text>
<rect x="650.875" y="608.0" width="26.0" height="15.0" style="fill:orange; stroke:rgb(0,0,0);" rx="1"/>
<text x="652" y="617" style="font-family:sans-serif;font-size:10px;">
expr
</text>
<rect x="398.375" y="576.0" width="8.0" height="15.0" style="fill:orange; stroke:rgb(0,0,0);" rx="1"/>
<text x="400" y="585" style="font-family:sans-serif;font-size:10px;">
f
</text>
<rect x="338.9375" y="224.0" width="63.0" height="15.0" style="fill:orange; stroke:rgb(0,0,0);" rx="1"/>
<text x="340" y="233" style="font-family:sans-serif;font-size:10px;">
declarations
</text>
<rect x="518.375" y="608.0" width="10.0" height="15.0" style="fill:orange; stroke:rgb(0,0,0);" rx="1"/>
<text x="520" y="617" style="font-family:sans-serif;font-size:10px;">
+
</text>
<rect x="325.9375" y="192.0" width="12.0" height="15.0" style="fill:orange; stroke:rgb(0,0,0);" rx="1"/>
<text x="327" y="201" style="font-family:sans-serif;font-size:10px;">
in
</text>
<rect x="431.5" y="480.0" width="51.0" height="15.0" style="fill:orange; stroke:rgb(0,0,0);" rx="1"/>
<text x="433" y="489" style="font-family:sans-serif;font-size:10px;">
statement
</text>
<rect x="310.5" y="352.0" width="26.0" height="15.0" style="fill:orange; stroke:rgb(0,0,0);" rx="1"/>
<text x="312" y="361" style="font-family:sans-serif;font-size:10px;">
expr
</text>
<rect x="338.4375" y="256.0" width="64.0" height="15.0" style="fill:orange; stroke:rgb(0,0,0);" rx="1"/>
<text x="340" y="265" style="font-family:sans-serif;font-size:10px;">
functionDecl
</text>
<rect x="726.125" y="416.0" width="26.0" height="15.0" style="fill:orange; stroke:rgb(0,0,0);" rx="1"/>
<text x="728" y="425" style="font-family:sans-serif;font-size:10px;">
expr
</text>
<rect x="658.875" y="672.0" width="10.0" height="15.0" style="fill:orange; stroke:rgb(0,0,0);" rx="1"/>
<text x="660" y="681" style="font-family:sans-serif;font-size:10px;">
1
</text>
<rect x="671.875" y="320.0" width="51.0" height="15.0" style="fill:orange; stroke:rgb(0,0,0);" rx="1"/>
<text x="673" y="329" style="font-family:sans-serif;font-size:10px;">
statement
</text>
<rect x="626.875" y="544.0" width="26.0" height="15.0" style="fill:orange; stroke:rgb(0,0,0);" rx="1"/>
<text x="628" y="553" style="font-family:sans-serif;font-size:10px;">
expr
</text>
<rect x="298.0" y="320.0" width="51.0" height="15.0" style="fill:orange; stroke:rgb(0,0,0);" rx="1"/>
<text x="300" y="329" style="font-family:sans-serif;font-size:10px;">
statement
</text>
<rect x="673.625" y="448.0" width="37.0" height="15.0" style="fill:orange; stroke:rgb(0,0,0);" rx="1"/>
<text x="675" y="457" style="font-family:sans-serif;font-size:10px;">
consts
</text>
<rect x="483.875" y="544.0" width="26.0" height="15.0" style="fill:orange; stroke:rgb(0,0,0);" rx="1"/>
<text x="485" y="553" style="font-family:sans-serif;font-size:10px;">
expr
</text>
<rect x="483.875" y="640.0" width="6.0" height="15.0" style="fill:orange; stroke:rgb(0,0,0);" rx="1"/>
<text x="485" y="649" style="font-family:sans-serif;font-size:10px;">
!
</text>
<rect x="674.875" y="576.0" width="8.0" height="15.0" style="fill:orange; stroke:rgb(0,0,0);" rx="1"/>
<text x="676" y="585" style="font-family:sans-serif;font-size:10px;">
f
</text>
<rect x="626.875" y="576.0" width="26.0" height="15.0" style="fill:orange; stroke:rgb(0,0,0);" rx="1"/>
<text x="628" y="585" style="font-family:sans-serif;font-size:10px;">
expr
</text>
<rect x="610.875" y="640.0" width="10.0" height="15.0" style="fill:orange; stroke:rgb(0,0,0);" rx="1"/>
<text x="612" y="649" style="font-family:sans-serif;font-size:10px;">
n
</text>
<rect x="597.875" y="576.0" width="7.0" height="15.0" style="fill:orange; stroke:rgb(0,0,0);" rx="1"/>
<text x="599" y="585" style="font-family:sans-serif;font-size:10px;">
t
</text>
<rect x="490.4375" y="448.0" width="51.0" height="15.0" style="fill:orange; stroke:rgb(0,0,0);" rx="1"/>
<text x="492" y="457" style="font-family:sans-serif;font-size:10px;">
statement
</text>
<rect x="420.375" y="672.0" width="8.0" height="15.0" style="fill:orange; stroke:rgb(0,0,0);" rx="1"/>
<text x="422" y="681" style="font-family:sans-serif;font-size:10px;">
(
</text>
<rect x="237.00390625" y="288.0" width="10.0" height="15.0" style="fill:orange; stroke:rgb(0,0,0);" rx="1"/>
<text x="239" y="297" style="font-family:sans-serif;font-size:10px;">
=
</text>
<rect x="175.4375" y="96.0" width="10.0" height="15.0" style="fill:orange; stroke:rgb(0,0,0);" rx="1"/>
<text x="177" y="105" style="font-family:sans-serif;font-size:10px;">
=
</text>
<rect x="22.0" y="288.0" width="20.0" height="15.0" style="fill:orange; stroke:rgb(0,0,0);" rx="1"/>
<text x="24" y="297" style="font-family:sans-serif;font-size:10px;">
rec
</text>
<rect x="504.875" y="672.0" width="10.0" height="15.0" style="fill:orange; stroke:rgb(0,0,0);" rx="1"/>
<text x="506" y="681" style="font-family:sans-serif;font-size:10px;">
a
</text>
<rect x="78.0" y="288.0" width="89.0" height="15.0" style="fill:orange; stroke:rgb(0,0,0);" rx="1"/>
<text x="80" y="297" style="font-family:sans-serif;font-size:10px;">
formalParameters
</text>
<rect x="535.375" y="544.0" width="26.0" height="15.0" style="fill:orange; stroke:rgb(0,0,0);" rx="1"/>
<text x="537" y="553" style="font-family:sans-serif;font-size:10px;">
expr
</text>
<rect x="575.03125" y="448.0" width="7.0" height="15.0" style="fill:orange; stroke:rgb(0,0,0);" rx="1"/>
<text x="577" y="457" style="font-family:sans-serif;font-size:10px;">
;
</text>
<rect x="453.5" y="512.0" width="7.0" height="15.0" style="fill:orange; stroke:rgb(0,0,0);" rx="1"/>
<text x="455" y="521" style="font-family:sans-serif;font-size:10px;">
;
</text>
<rect x="432.515625" y="384.0" width="63.0" height="15.0" style="fill:orange; stroke:rgb(0,0,0);" rx="1"/>
<text x="434" y="393" style="font-family:sans-serif;font-size:10px;">
variableDecl
</text>
<rect x="628.125" y="480.0" width="26.0" height="15.0" style="fill:orange; stroke:rgb(0,0,0);" rx="1"/>
<text x="630" y="489" style="font-family:sans-serif;font-size:10px;">
expr
</text>
<rect x="775.875" y="416.0" width="10.0" height="15.0" style="fill:orange; stroke:rgb(0,0,0);" rx="1"/>
<text x="777" y="425" style="font-family:sans-serif;font-size:10px;">
a
</text>
<rect x="250.4375" y="96.0" width="12.0" height="15.0" style="fill:orange; stroke:rgb(0,0,0);" rx="1"/>
<text x="252" y="105" style="font-family:sans-serif;font-size:10px;">
in
</text>
<rect x="211.9375" y="192.0" width="15.0" height="15.0" style="fill:orange; stroke:rgb(0,0,0);" rx="1"/>
<text x="213" y="201" style="font-family:sans-serif;font-size:10px;">
let
</text>
<rect x="414.5" y="480.0" width="10.0" height="15.0" style="fill:orange; stroke:rgb(0,0,0);" rx="1"/>
<text x="416" y="489" style="font-family:sans-serif;font-size:10px;">
b
</text>
<rect x="767.875" y="384.0" width="26.0" height="15.0" style="fill:orange; stroke:rgb(0,0,0);" rx="1"/>
<text x="769" y="393" style="font-family:sans-serif;font-size:10px;">
expr
</text>
<rect x="252.5" y="384.0" width="37.0" height="15.0" style="fill:orange; stroke:rgb(0,0,0);" rx="1"/>
<text x="254" y="393" style="font-family:sans-serif;font-size:10px;">
consts
</text>
<rect x="381.7578125" y="320.0" width="24.0" height="15.0" style="fill:orange; stroke:rgb(0,0,0);" rx="1"/>
<text x="383" y="329" style="font-family:sans-serif;font-size:10px;">
else
</text>
<rect x="187.9375" y="64.0" width="63.0" height="15.0" style="fill:orange; stroke:rgb(0,0,0);" rx="1"/>
<text x="189" y="73" style="font-family:sans-serif;font-size:10px;">
variableDecl
</text>
<rect x="432.515625" y="352.0" width="63.0" height="15.0" style="fill:orange; stroke:rgb(0,0,0);" rx="1"/>
<text x="434" y="361" style="font-family:sans-serif;font-size:10px;">
declarations
</text>
<rect x="263.4375" y="160.0" width="63.0" height="15.0" style="fill:orange; stroke:rgb(0,0,0);" rx="1"/>
<text x="265" y="169" style="font-family:sans-serif;font-size:10px;">
variableDecl
</text>
<rect x="756.375" y="352.0" width="26.0" height="15.0" style="fill:orange; stroke:rgb(0,0,0);" rx="1"/>
<text x="758" y="361" style="font-family:sans-serif;font-size:10px;">
expr
</text>
<rect x="435.375" y="672.0" width="8.0" height="15.0" style="fill:orange; stroke:rgb(0,0,0);" rx="1"/>
<text x="437" y="681" style="font-family:sans-serif;font-size:10px;">
)
</text>
<rect x="225.4375" y="160.0" width="10.0" height="15.0" style="fill:orange; stroke:rgb(0,0,0);" rx="1"/>
<text x="227" y="169" style="font-family:sans-serif;font-size:10px;">
1
</text>
<rect x="344.9375" y="192.0" width="51.0" height="15.0" style="fill:orange; stroke:rgb(0,0,0);" rx="1"/>
<text x="346" y="201" style="font-family:sans-serif;font-size:10px;">
statement
</text>
<rect x="611.875" y="512.0" width="22.0" height="15.0" style="fill:orange; stroke:rgb(0,0,0);" rx="1"/>
<text x="613" y="521" style="font-family:sans-serif;font-size:10px;">
fibo
</text>
<rect x="665.875" y="544.0" width="26.0" height="15.0" style="fill:orange; stroke:rgb(0,0,0);" rx="1"/>
<text x="667" y="553" style="font-family:sans-serif;font-size:10px;">
expr
</text>
<rect x="393.5" y="448.0" width="6.0" height="15.0" style="fill:orange; stroke:rgb(0,0,0);" rx="1"/>
<text x="395" y="457" style="font-family:sans-serif;font-size:10px;">
!
</text>
<rect x="561.875" y="512.0" width="26.0" height="15.0" style="fill:orange; stroke:rgb(0,0,0);" rx="1"/>
<text x="563" y="521" style="font-family:sans-serif;font-size:10px;">
expr
</text>
<rect x="568.375" y="544.0" width="13.0" height="15.0" style="fill:orange; stroke:rgb(0,0,0);" rx="1"/>
<text x="570" y="553" style="font-family:sans-serif;font-size:10px;">
:=
</text>
<rect x="743.875" y="320.0" width="51.0" height="15.0" style="fill:orange; stroke:rgb(0,0,0);" rx="1"/>
<text x="745" y="329" style="font-family:sans-serif;font-size:10px;">
statement
</text>
<rect x="395.0" y="416.0" width="26.0" height="15.0" style="fill:orange; stroke:rgb(0,0,0);" rx="1"/>
<text x="397" y="425" style="font-family:sans-serif;font-size:10px;">
expr
</text>
<rect x="471.375" y="512.0" width="51.0" height="15.0" style="fill:orange; stroke:rgb(0,0,0);" rx="1"/>
<text x="473" y="521" style="font-family:sans-serif;font-size:10px;">
statement
</text>
<rect x="49.0" y="288.0" width="22.0" height="15.0" style="fill:orange; stroke:rgb(0,0,0);" rx="1"/>
<text x="51" y="297" style="font-family:sans-serif;font-size:10px;">
fibo
</text>
<rect x="611.875" y="576.0" width="8.0" height="15.0" style="fill:orange; stroke:rgb(0,0,0);" rx="1"/>
<text x="613" y="585" style="font-family:sans-serif;font-size:10px;">
(
</text>
<rect x="404.125" y="544.0" width="26.0" height="15.0" style="fill:orange; stroke:rgb(0,0,0);" rx="1"/>
<text x="406" y="553" style="font-family:sans-serif;font-size:10px;">
expr
</text>
<rect x="36.0" y="320.0" width="83.0" height="15.0" style="fill:orange; stroke:rgb(0,0,0);" rx="1"/>
<text x="38" y="329" style="font-family:sans-serif;font-size:10px;">
formalParameter
</text>
<rect x="391.625" y="512.0" width="51.0" height="15.0" style="fill:orange; stroke:rgb(0,0,0);" rx="1"/>
<text x="393" y="521" style="font-family:sans-serif;font-size:10px;">
statement
</text>
<rect x="267.9375" y="192.0" width="18.0" height="15.0" style="fill:orange; stroke:rgb(0,0,0);" rx="1"/>
<text x="269" y="201" style="font-family:sans-serif;font-size:10px;">
ref
</text>
<rect x="378.0" y="416.0" width="10.0" height="15.0" style="fill:orange; stroke:rgb(0,0,0);" rx="1"/>
<text x="380" y="425" style="font-family:sans-serif;font-size:10px;">
=
</text>
<rect x="754.875" y="384.0" width="6.0" height="15.0" style="fill:orange; stroke:rgb(0,0,0);" rx="1"/>
<text x="756" y="393" style="font-family:sans-serif;font-size:10px;">
!
</text>
<rect x="216.0" y="384.0" width="10.0" height="15.0" style="fill:orange; stroke:rgb(0,0,0);" rx="1"/>
<text x="218" y="393" style="font-family:sans-serif;font-size:10px;">
n
</text>
<rect x="269.4375" y="96.0" width="51.0" height="15.0" style="fill:orange; stroke:rgb(0,0,0);" rx="1"/>
<text x="271" y="105" style="font-family:sans-serif;font-size:10px;">
statement
</text>
<rect x="216.0" y="320.0" width="10.0" height="15.0" style="fill:orange; stroke:rgb(0,0,0);" rx="1"/>
<text x="218" y="329" style="font-family:sans-serif;font-size:10px;">
if
</text>
<rect x="684.375" y="352.0" width="26.0" height="15.0" style="fill:orange; stroke:rgb(0,0,0);" rx="1"/>
<text x="686" y="361" style="font-family:sans-serif;font-size:10px;">
expr
</text>
<rect x="250.9375" y="192.0" width="10.0" height="15.0" style="fill:orange; stroke:rgb(0,0,0);" rx="1"/>
<text x="252" y="201" style="font-family:sans-serif;font-size:10px;">
=
</text>
<rect x="679.125" y="416.0" width="26.0" height="15.0" style="fill:orange; stroke:rgb(0,0,0);" rx="1"/>
<text x="681" y="425" style="font-family:sans-serif;font-size:10px;">
expr
</text>
<rect x="512.4375" y="480.0" width="7.0" height="15.0" style="fill:orange; stroke:rgb(0,0,0);" rx="1"/>
<text x="514" y="489" style="font-family:sans-serif;font-size:10px;">
;
</text>
<rect x="546.875" y="640.0" width="26.0" height="15.0" style="fill:orange; stroke:rgb(0,0,0);" rx="1"/>
<text x="548" y="649" style="font-family:sans-serif;font-size:10px;">
expr
</text>
<rect x="615.625" y="448.0" width="51.0" height="15.0" style="fill:orange; stroke:rgb(0,0,0);" rx="1"/>
<text x="617" y="457" style="font-family:sans-serif;font-size:10px;">
statement
</text>
<rect x="485.375" y="608.0" width="26.0" height="15.0" style="fill:orange; stroke:rgb(0,0,0);" rx="1"/>
<text x="487" y="617" style="font-family:sans-serif;font-size:10px;">
expr
</text>
<rect x="305.0" y="384.0" width="37.0" height="15.0" style="fill:orange; stroke:rgb(0,0,0);" rx="1"/>
<text x="307" y="393" style="font-family:sans-serif;font-size:10px;">
consts
</text>
<rect x="233.9375" y="192.0" width="10.0" height="15.0" style="fill:orange; stroke:rgb(0,0,0);" rx="1"/>
<text x="235" y="201" style="font-family:sans-serif;font-size:10px;">
b
</text>
<rect x="543.375" y="576.0" width="10.0" height="15.0" style="fill:orange; stroke:rgb(0,0,0);" rx="1"/>
<text x="545" y="585" style="font-family:sans-serif;font-size:10px;">
a
</text>
<rect x="136.4375" y="96.0" width="15.0" height="15.0" style="fill:orange; stroke:rgb(0,0,0);" rx="1"/>
<text x="138" y="105" style="font-family:sans-serif;font-size:10px;">
let
</text>
<rect x="588.375" y="544.0" width="26.0" height="15.0" style="fill:orange; stroke:rgb(0,0,0);" rx="1"/>
<text x="590" y="553" style="font-family:sans-serif;font-size:10px;">
expr
</text>
<rect x="418.875" y="608.0" width="26.0" height="15.0" style="fill:orange; stroke:rgb(0,0,0);" rx="1"/>
<text x="420" y="617" style="font-family:sans-serif;font-size:10px;">
expr
</text>
<rect x="717.625" y="448.0" width="43.0" height="15.0" style="fill:orange; stroke:rgb(0,0,0);" rx="1"/>
<text x="719" y="457" style="font-family:sans-serif;font-size:10px;">
extFunc
</text>
<rect x="233.0" y="320.0" width="26.0" height="15.0" style="fill:orange; stroke:rgb(0,0,0);" rx="1"/>
<text x="235" y="329" style="font-family:sans-serif;font-size:10px;">
expr
</text>
<rect x="602.875" y="608.0" width="26.0" height="15.0" style="fill:orange; stroke:rgb(0,0,0);" rx="1"/>
<text x="604" y="617" style="font-family:sans-serif;font-size:10px;">
expr
</text>
<rect x="413.375" y="640.0" width="37.0" height="15.0" style="fill:orange; stroke:rgb(0,0,0);" rx="1"/>
<text x="415" y="649" style="font-family:sans-serif;font-size:10px;">
consts
</text>
<rect x="0.0" y="288.0" width="15.0" height="15.0" style="fill:orange; stroke:rgb(0,0,0);" rx="1"/>
<text x="2" y="297" style="font-family:sans-serif;font-size:10px;">
let
</text>
<rect x="192.4375" y="96.0" width="18.0" height="15.0" style="fill:orange; stroke:rgb(0,0,0);" rx="1"/>
<text x="194" y="105" style="font-family:sans-serif;font-size:10px;">
ref
</text>
<rect x="158.4375" y="96.0" width="10.0" height="15.0" style="fill:orange; stroke:rgb(0,0,0);" rx="1"/>
<text x="160" y="105" style="font-family:sans-serif;font-size:10px;">
a
</text>
<rect x="697.125" y="384.0" width="37.0" height="15.0" style="fill:orange; stroke:rgb(0,0,0);" rx="1"/>
<text x="699" y="393" style="font-family:sans-serif;font-size:10px;">
argList
</text>
<rect x="287.4375" y="224.0" width="37.0" height="15.0" style="fill:orange; stroke:rgb(0,0,0);" rx="1"/>
<text x="289" y="233" style="font-family:sans-serif;font-size:10px;">
consts
</text>
<rect x="300.9375" y="256.0" width="10.0" height="15.0" style="fill:orange; stroke:rgb(0,0,0);" rx="1"/>
<text x="302" y="265" style="font-family:sans-serif;font-size:10px;">
1
</text>
<rect x="292.9375" y="192.0" width="26.0" height="15.0" style="fill:orange; stroke:rgb(0,0,0);" rx="1"/>
<text x="294" y="201" style="font-family:sans-serif;font-size:10px;">
expr
</text>
<rect x="317.0078125" y="288.0" width="51.0" height="15.0" style="fill:orange; stroke:rgb(0,0,0);" rx="1"/>
<text x="319" y="297" style="font-family:sans-serif;font-size:10px;">
statement
</text>
<rect x="465.375" y="608.0" width="10.0" height="15.0" style="fill:orange; stroke:rgb(0,0,0);" rx="1"/>
<text x="467" y="617" style="font-family:sans-serif;font-size:10px;">
b
</text>
<rect x="659.875" y="576.0" width="8.0" height="15.0" style="fill:orange; stroke:rgb(0,0,0);" rx="1"/>
<text x="661" y="585" style="font-family:sans-serif;font-size:10px;">
)
</text>
<rect x="258.0" y="352.0" width="26.0" height="15.0" style="fill:orange; stroke:rgb(0,0,0);" rx="1"/>
<text x="260" y="361" style="font-family:sans-serif;font-size:10px;">
expr
</text>
<rect x="72.5" y="352.0" width="10.0" height="15.0" style="fill:orange; stroke:rgb(0,0,0);" rx="1"/>
<text x="74" y="361" style="font-family:sans-serif;font-size:10px;">
n
</text>
<rect x="496.875" y="640.0" width="26.0" height="15.0" style="fill:orange; stroke:rgb(0,0,0);" rx="1"/>
<text x="498" y="649" style="font-family:sans-serif;font-size:10px;">
expr
</text>
<rect x="531.94140625" y="288.0" width="12.0" height="15.0" style="fill:orange; stroke:rgb(0,0,0);" rx="1"/>
<text x="533" y="297" style="font-family:sans-serif;font-size:10px;">
in
</text>
<rect x="163.5" y="352.0" width="8.0" height="15.0" style="fill:orange; stroke:rgb(0,0,0);" rx="1"/>
<text x="165" y="361" style="font-family:sans-serif;font-size:10px;">
f
</text>
<rect x="364.0" y="416.0" width="7.0" height="15.0" style="fill:orange; stroke:rgb(0,0,0);" rx="1"/>
<text x="366" y="425" style="font-family:sans-serif;font-size:10px;">
t
</text>
<rect x="217.4375" y="96.0" width="26.0" height="15.0" style="fill:orange; stroke:rgb(0,0,0);" rx="1"/>
<text x="219" y="105" style="font-family:sans-serif;font-size:10px;">
expr
</text>
<rect x="635.875" y="608.0" width="8.0" height="15.0" style="fill:orange; stroke:rgb(0,0,0);" rx="1"/>
<text x="637" y="617" style="font-family:sans-serif;font-size:10px;">
-
</text>
<rect x="342.0" y="416.0" width="15.0" height="15.0" style="fill:orange; stroke:rgb(0,0,0);" rx="1"/>
<text x="344" y="425" style="font-family:sans-serif;font-size:10px;">
let
</text>
<rect x="668.125" y="384.0" width="22.0" height="15.0" style="fill:orange; stroke:rgb(0,0,0);" rx="1"/>
<text x="670" y="393" style="font-family:sans-serif;font-size:10px;">
fibo
</text>
<rect x="687.125" y="480.0" width="10.0" height="15.0" style="fill:orange; stroke:rgb(0,0,0);" rx="1"/>
<text x="689" y="489" style="font-family:sans-serif;font-size:10px;">
8
</text>
<rect x="554.875" y="672.0" width="10.0" height="15.0" style="fill:orange; stroke:rgb(0,0,0);" rx="1"/>
<text x="556" y="681" style="font-family:sans-serif;font-size:10px;">
b
</text>
<rect x="553.03125" y="416.0" width="51.0" height="15.0" style="fill:orange; stroke:rgb(0,0,0);" rx="1"/>
<text x="555" y="425" style="font-family:sans-serif;font-size:10px;">
statement
</text>
<rect x="126.0" y="320.0" width="83.0" height="15.0" style="fill:orange; stroke:rgb(0,0,0);" rx="1"/>
<text x="128" y="329" style="font-family:sans-serif;font-size:10px;">
formalParameter
</text>
<rect x="729.875" y="320.0" width="7.0" height="15.0" style="fill:orange; stroke:rgb(0,0,0);" rx="1"/>
<text x="731" y="329" style="font-family:sans-serif;font-size:10px;">
;
</text>
<rect x="645.375" y="640.0" width="37.0" height="15.0" style="fill:orange; stroke:rgb(0,0,0);" rx="1"/>
<text x="647" y="649" style="font-family:sans-serif;font-size:10px;">
consts
</text>
<rect x="312.0" y="416.0" width="8.0" height="15.0" style="fill:orange; stroke:rgb(0,0,0);" rx="1"/>
<text x="314" y="425" style="font-family:sans-serif;font-size:10px;">
(
</text>
<rect x="263.4375" y="128.0" width="63.0" height="15.0" style="fill:orange; stroke:rgb(0,0,0);" rx="1"/>
<text x="265" y="137" style="font-family:sans-serif;font-size:10px;">
declarations
</text>
<rect x="707.875" y="288.0" width="51.0" height="15.0" style="fill:orange; stroke:rgb(0,0,0);" rx="1"/>
<text x="709" y="297" style="font-family:sans-serif;font-size:10px;">
statement
</text>
<rect x="490.375" y="576.0" width="13.0" height="15.0" style="fill:orange; stroke:rgb(0,0,0);" rx="1"/>
<text x="492" y="585" style="font-family:sans-serif;font-size:10px;">
:=
</text>
<rect x="241.0" y="352.0" width="10.0" height="15.0" style="fill:orange; stroke:rgb(0,0,0);" rx="1"/>
<text x="243" y="361" style="font-family:sans-serif;font-size:10px;">
=
</text>
<rect x="266.0" y="416.0" width="10.0" height="15.0" style="fill:orange; stroke:rgb(0,0,0);" rx="1"/>
<text x="268" y="425" style="font-family:sans-serif;font-size:10px;">
0
</text>
<rect x="457.375" y="576.0" width="26.0" height="15.0" style="fill:orange; stroke:rgb(0,0,0);" rx="1"/>
<text x="459" y="585" style="font-family:sans-serif;font-size:10px;">
expr
</text>
<rect x="438.515625" y="320.0" width="51.0" height="15.0" style="fill:orange; stroke:rgb(0,0,0);" rx="1"/>
<text x="440" y="329" style="font-family:sans-serif;font-size:10px;">
statement
</text>
<rect x="327.0" y="416.0" width="8.0" height="15.0" style="fill:orange; stroke:rgb(0,0,0);" rx="1"/>
<text x="329" y="425" style="font-family:sans-serif;font-size:10px;">
)
</text>
<rect x="549.375" y="480.0" width="51.0" height="15.0" style="fill:orange; stroke:rgb(0,0,0);" rx="1"/>
<text x="551" y="489" style="font-family:sans-serif;font-size:10px;">
statement
</text>
<rect x="197.4375" y="0.0" width="44.0" height="15.0" style="fill:orange; stroke:rgb(0,0,0);" rx="1"/>
<text x="199" y="9" style="font-family:sans-serif;font-size:10px;">
program
</text>
<rect x="187.9375" y="32.0" width="63.0" height="15.0" style="fill:orange; stroke:rgb(0,0,0);" rx="1"/>
<text x="189" y="41" style="font-family:sans-serif;font-size:10px;">
declarations
</text>
<rect x="413.375" y="576.0" width="37.0" height="15.0" style="fill:orange; stroke:rgb(0,0,0);" rx="1"/>
<text x="415" y="585" style="font-family:sans-serif;font-size:10px;">
argList
</text>
<rect x="211.9375" y="128.0" width="37.0" height="15.0" style="fill:orange; stroke:rgb(0,0,0);" rx="1"/>
<text x="213" y="137" style="font-family:sans-serif;font-size:10px;">
consts
</text>
<rect x="535.375" y="608.0" width="26.0" height="15.0" style="fill:orange; stroke:rgb(0,0,0);" rx="1"/>
<text x="537" y="617" style="font-family:sans-serif;font-size:10px;">
expr
</text>
<rect x="406.5" y="448.0" width="26.0" height="15.0" style="fill:orange; stroke:rgb(0,0,0);" rx="1"/>
<text x="408" y="457" style="font-family:sans-serif;font-size:10px;">
expr
</text>
<rect x="533.875" y="640.0" width="6.0" height="15.0" style="fill:orange; stroke:rgb(0,0,0);" rx="1"/>
<text x="535" y="649" style="font-family:sans-serif;font-size:10px;">
!
</text>
<rect x="510.375" y="576.0" width="26.0" height="15.0" style="fill:orange; stroke:rgb(0,0,0);" rx="1"/>
<text x="512" y="585" style="font-family:sans-serif;font-size:10px;">
expr
</text>
</svg>