<svg width="1267.2" height="756.8000000000001" xmlns="http://www.w3.org/2000/svg" xmlns:xlink="http://www.w3.org/1999/xlink"><line x1="316.25" y1="7.5" x2="316.25" y2="32.0" style="stroke:black; stroke-width:1px;" />
<line x1="316.25" y1="39.5" x2="316.25" y2="64.0" style="stroke:black; stroke-width:1px;" />
<line x1="316.25" y1="71.5" x2="7.5" y2="96.0" style="stroke:black; stroke-width:1px;" />
<line x1="316.25" y1="71.5" x2="29.0" y2="96.0" style="stroke:black; stroke-width:1px;" />
<line x1="316.25" y1="71.5" x2="87.5" y2="96.0" style="stroke:black; stroke-width:1px;" />
<line x1="87.5" y1="103.5" x2="42.5" y2="128.0" style="stroke:black; stroke-width:1px;" />
<line x1="42.5" y1="135.5" x2="42.5" y2="160.0" style="stroke:black; stroke-width:1px;" />
<line x1="87.5" y1="103.5" x2="132.5" y2="128.0" style="stroke:black; stroke-width:1px;" />
<line x1="132.5" y1="135.5" x2="132.5" y2="160.0" style="stroke:black; stroke-width:1px;" />
<line x1="316.25" y1="71.5" x2="194.125" y2="96.0" style="stroke:black; stroke-width:1px;" />
<line x1="316.25" y1="71.5" x2="281.75" y2="96.0" style="stroke:black; stroke-width:1px;" />
<line x1="281.75" y1="103.5" x2="186.0" y2="128.0" style="stroke:black; stroke-width:1px;" />
<line x1="281.75" y1="103.5" x2="211.0" y2="128.0" style="stroke:black; stroke-width:1px;" />
<line x1="211.0" y1="135.5" x2="211.0" y2="160.0" style="stroke:black; stroke-width:1px;" />
<line x1="281.75" y1="103.5" x2="243.5" y2="128.0" style="stroke:black; stroke-width:1px;" />
<line x1="281.75" y1="103.5" x2="288.5" y2="128.0" style="stroke:black; stroke-width:1px;" />
<line x1="288.5" y1="135.5" x2="288.5" y2="160.0" style="stroke:black; stroke-width:1px;" />
<line x1="288.5" y1="167.5" x2="288.5" y2="192.0" style="stroke:black; stroke-width:1px;" />
<line x1="288.5" y1="199.5" x2="288.5" y2="224.0" style="stroke:black; stroke-width:1px;" />
<line x1="288.5" y1="231.5" x2="288.5" y2="256.0" style="stroke:black; stroke-width:1px;" />
<line x1="281.75" y1="103.5" x2="333.0" y2="128.0" style="stroke:black; stroke-width:1px;" />
<line x1="281.75" y1="103.5" x2="377.5" y2="128.0" style="stroke:black; stroke-width:1px;" />
<line x1="377.5" y1="135.5" x2="377.5" y2="160.0" style="stroke:black; stroke-width:1px;" />
<line x1="377.5" y1="167.5" x2="377.5" y2="192.0" style="stroke:black; stroke-width:1px;" />
<line x1="316.25" y1="71.5" x2="453.375" y2="96.0" style="stroke:black; stroke-width:1px;" />
<line x1="316.25" y1="71.5" x2="625.0" y2="96.0" style="stroke:black; stroke-width:1px;" />
<line x1="625.0" y1="103.5" x2="625.0" y2="128.0" style="stroke:black; stroke-width:1px;" />
<line x1="625.0" y1="135.5" x2="625.0" y2="160.0" style="stroke:black; stroke-width:1px;" />
<line x1="625.0" y1="167.5" x2="397.0" y2="192.0" style="stroke:black; stroke-width:1px;" />
<line x1="625.0" y1="167.5" x2="421.5" y2="192.0" style="stroke:black; stroke-width:1px;" />
<line x1="625.0" y1="167.5" x2="449.5" y2="192.0" style="stroke:black; stroke-width:1px;" />
<line x1="625.0" y1="167.5" x2="512.0" y2="192.0" style="stroke:black; stroke-width:1px;" />
<line x1="512.0" y1="199.5" x2="512.0" y2="224.0" style="stroke:black; stroke-width:1px;" />
<line x1="512.0" y1="231.5" x2="512.0" y2="256.0" style="stroke:black; stroke-width:1px;" />
<line x1="625.0" y1="167.5" x2="601.1875" y2="192.0" style="stroke:black; stroke-width:1px;" />
<line x1="625.0" y1="167.5" x2="671.375" y2="192.0" style="stroke:black; stroke-width:1px;" />
<line x1="671.375" y1="199.5" x2="565.5" y2="224.0" style="stroke:black; stroke-width:1px;" />
<line x1="671.375" y1="199.5" x2="590.5" y2="224.0" style="stroke:black; stroke-width:1px;" />
<line x1="590.5" y1="231.5" x2="574.25" y2="256.0" style="stroke:black; stroke-width:1px;" />
<line x1="590.5" y1="231.5" x2="606.75" y2="256.0" style="stroke:black; stroke-width:1px;" />
<line x1="606.75" y1="263.5" x2="565.25" y2="288.0" style="stroke:black; stroke-width:1px;" />
<line x1="565.25" y1="295.5" x2="541.25" y2="320.0" style="stroke:black; stroke-width:1px;" />
<line x1="565.25" y1="295.5" x2="565.25" y2="320.0" style="stroke:black; stroke-width:1px;" />
<line x1="565.25" y1="327.5" x2="540.25" y2="352.0" style="stroke:black; stroke-width:1px;" />
<line x1="540.25" y1="359.5" x2="540.25" y2="384.0" style="stroke:black; stroke-width:1px;" />
<line x1="565.25" y1="327.5" x2="565.25" y2="352.0" style="stroke:black; stroke-width:1px;" />
<line x1="565.25" y1="327.5" x2="590.25" y2="352.0" style="stroke:black; stroke-width:1px;" />
<line x1="590.25" y1="359.5" x2="590.25" y2="384.0" style="stroke:black; stroke-width:1px;" />
<line x1="590.25" y1="391.5" x2="590.25" y2="416.0" style="stroke:black; stroke-width:1px;" />
<line x1="565.25" y1="295.5" x2="589.25" y2="320.0" style="stroke:black; stroke-width:1px;" />
<line x1="606.75" y1="263.5" x2="648.25" y2="288.0" style="stroke:black; stroke-width:1px;" />
<line x1="648.25" y1="295.5" x2="624.25" y2="320.0" style="stroke:black; stroke-width:1px;" />
<line x1="648.25" y1="295.5" x2="648.25" y2="320.0" style="stroke:black; stroke-width:1px;" />
<line x1="648.25" y1="327.5" x2="623.25" y2="352.0" style="stroke:black; stroke-width:1px;" />
<line x1="623.25" y1="359.5" x2="623.25" y2="384.0" style="stroke:black; stroke-width:1px;" />
<line x1="648.25" y1="327.5" x2="648.25" y2="352.0" style="stroke:black; stroke-width:1px;" />
<line x1="648.25" y1="327.5" x2="673.25" y2="352.0" style="stroke:black; stroke-width:1px;" />
<line x1="673.25" y1="359.5" x2="673.25" y2="384.0" style="stroke:black; stroke-width:1px;" />
<line x1="673.25" y1="391.5" x2="673.25" y2="416.0" style="stroke:black; stroke-width:1px;" />
<line x1="648.25" y1="295.5" x2="672.25" y2="320.0" style="stroke:black; stroke-width:1px;" />
<line x1="671.375" y1="199.5" x2="633.125" y2="224.0" style="stroke:black; stroke-width:1px;" />
<line x1="671.375" y1="199.5" x2="688.25" y2="224.0" style="stroke:black; stroke-width:1px;" />
<line x1="688.25" y1="231.5" x2="688.25" y2="256.0" style="stroke:black; stroke-width:1px;" />
<line x1="688.25" y1="263.5" x2="688.25" y2="288.0" style="stroke:black; stroke-width:1px;" />
<line x1="688.25" y1="295.5" x2="688.25" y2="320.0" style="stroke:black; stroke-width:1px;" />
<line x1="671.375" y1="199.5" x2="732.75" y2="224.0" style="stroke:black; stroke-width:1px;" />
<line x1="671.375" y1="199.5" x2="777.25" y2="224.0" style="stroke:black; stroke-width:1px;" />
<line x1="777.25" y1="231.5" x2="777.25" y2="256.0" style="stroke:black; stroke-width:1px;" />
<line x1="777.25" y1="263.5" x2="736.75" y2="288.0" style="stroke:black; stroke-width:1px;" />
<line x1="736.75" y1="295.5" x2="712.75" y2="320.0" style="stroke:black; stroke-width:1px;" />
<line x1="736.75" y1="295.5" x2="736.75" y2="320.0" style="stroke:black; stroke-width:1px;" />
<line x1="736.75" y1="327.5" x2="718.5" y2="352.0" style="stroke:black; stroke-width:1px;" />
<line x1="736.75" y1="327.5" x2="755.0" y2="352.0" style="stroke:black; stroke-width:1px;" />
<line x1="755.0" y1="359.5" x2="755.0" y2="384.0" style="stroke:black; stroke-width:1px;" />
<line x1="755.0" y1="391.5" x2="731.0" y2="416.0" style="stroke:black; stroke-width:1px;" />
<line x1="755.0" y1="391.5" x2="755.0" y2="416.0" style="stroke:black; stroke-width:1px;" />
<line x1="755.0" y1="423.5" x2="731.0" y2="448.0" style="stroke:black; stroke-width:1px;" />
<line x1="731.0" y1="455.5" x2="731.0" y2="480.0" style="stroke:black; stroke-width:1px;" />
<line x1="755.0" y1="423.5" x2="755.0" y2="448.0" style="stroke:black; stroke-width:1px;" />
<line x1="755.0" y1="423.5" x2="779.0" y2="448.0" style="stroke:black; stroke-width:1px;" />
<line x1="779.0" y1="455.5" x2="779.0" y2="480.0" style="stroke:black; stroke-width:1px;" />
<line x1="779.0" y1="487.5" x2="779.0" y2="512.0" style="stroke:black; stroke-width:1px;" />
<line x1="755.0" y1="391.5" x2="779.0" y2="416.0" style="stroke:black; stroke-width:1px;" />
<line x1="736.75" y1="295.5" x2="760.75" y2="320.0" style="stroke:black; stroke-width:1px;" />
<line x1="777.25" y1="263.5" x2="777.25" y2="288.0" style="stroke:black; stroke-width:1px;" />
<line x1="777.25" y1="263.5" x2="817.75" y2="288.0" style="stroke:black; stroke-width:1px;" />
<line x1="817.75" y1="295.5" x2="793.75" y2="320.0" style="stroke:black; stroke-width:1px;" />
<line x1="817.75" y1="295.5" x2="817.75" y2="320.0" style="stroke:black; stroke-width:1px;" />
<line x1="817.75" y1="327.5" x2="799.5" y2="352.0" style="stroke:black; stroke-width:1px;" />
<line x1="817.75" y1="327.5" x2="836.0" y2="352.0" style="stroke:black; stroke-width:1px;" />
<line x1="836.0" y1="359.5" x2="836.0" y2="384.0" style="stroke:black; stroke-width:1px;" />
<line x1="836.0" y1="391.5" x2="812.0" y2="416.0" style="stroke:black; stroke-width:1px;" />
<line x1="836.0" y1="391.5" x2="836.0" y2="416.0" style="stroke:black; stroke-width:1px;" />
<line x1="836.0" y1="423.5" x2="812.0" y2="448.0" style="stroke:black; stroke-width:1px;" />
<line x1="812.0" y1="455.5" x2="812.0" y2="480.0" style="stroke:black; stroke-width:1px;" />
<line x1="836.0" y1="423.5" x2="836.0" y2="448.0" style="stroke:black; stroke-width:1px;" />
<line x1="836.0" y1="423.5" x2="860.0" y2="448.0" style="stroke:black; stroke-width:1px;" />
<line x1="860.0" y1="455.5" x2="860.0" y2="480.0" style="stroke:black; stroke-width:1px;" />
<line x1="860.0" y1="487.5" x2="860.0" y2="512.0" style="stroke:black; stroke-width:1px;" />
<line x1="836.0" y1="391.5" x2="860.0" y2="416.0" style="stroke:black; stroke-width:1px;" />
<line x1="817.75" y1="295.5" x2="841.75" y2="320.0" style="stroke:black; stroke-width:1px;" />
<line x1="625.0" y1="167.5" x2="762.1875" y2="192.0" style="stroke:black; stroke-width:1px;" />
<line x1="625.0" y1="167.5" x2="853.0" y2="192.0" style="stroke:black; stroke-width:1px;" />
<line x1="853.0" y1="199.5" x2="853.0" y2="224.0" style="stroke:black; stroke-width:1px;" />
<line x1="853.0" y1="231.5" x2="834.75" y2="256.0" style="stroke:black; stroke-width:1px;" />
<line x1="853.0" y1="231.5" x2="871.25" y2="256.0" style="stroke:black; stroke-width:1px;" />
<line x1="871.25" y1="263.5" x2="871.25" y2="288.0" style="stroke:black; stroke-width:1px;" />
<line x1="871.25" y1="295.5" x2="871.25" y2="320.0" style="stroke:black; stroke-width:1px;" />
<line x1="871.25" y1="327.5" x2="871.25" y2="352.0" style="stroke:black; stroke-width:1px;" />
<rect x="675.25" y="256.0" width="26.0" height="15.0" style="fill:orange; stroke:rgb(0,0,0);" rx="1"/>
<text x="677" y="265" style="font-family:sans-serif;font-size:10px;">
expr
</text>
<rect x="0.0" y="96.0" width="15.0" height="15.0" style="fill:orange; stroke:rgb(0,0,0);" rx="1"/>
<text x="2" y="105" style="font-family:sans-serif;font-size:10px;">
let
</text>
<rect x="718.0" y="448.0" width="26.0" height="15.0" style="fill:orange; stroke:rgb(0,0,0);" rx="1"/>
<text x="720" y="457" style="font-family:sans-serif;font-size:10px;">
expr
</text>
<rect x="560.5" y="224.0" width="10.0" height="15.0" style="fill:orange; stroke:rgb(0,0,0);" rx="1"/>
<text x="562" y="233" style="font-family:sans-serif;font-size:10px;">
if
</text>
<rect x="364.5" y="160.0" width="26.0" height="15.0" style="fill:orange; stroke:rgb(0,0,0);" rx="1"/>
<text x="366" y="169" style="font-family:sans-serif;font-size:10px;">
expr
</text>
<rect x="668.25" y="320.0" width="8.0" height="15.0" style="fill:orange; stroke:rgb(0,0,0);" rx="1"/>
<text x="670" y="329" style="font-family:sans-serif;font-size:10px;">
)
</text>
<rect x="827.5" y="192.0" width="51.0" height="15.0" style="fill:orange; stroke:rgb(0,0,0);" rx="1"/>
<text x="829" y="201" style="font-family:sans-serif;font-size:10px;">
statement
</text>
<rect x="588.25" y="256.0" width="37.0" height="15.0" style="fill:orange; stroke:rgb(0,0,0);" rx="1"/>
<text x="590" y="265" style="font-family:sans-serif;font-size:10px;">
argList
</text>
<rect x="560.25" y="352.0" width="10.0" height="15.0" style="fill:orange; stroke:rgb(0,0,0);" rx="1"/>
<text x="562" y="361" style="font-family:sans-serif;font-size:10px;">
=
</text>
<rect x="577.5" y="224.0" width="26.0" height="15.0" style="fill:orange; stroke:rgb(0,0,0);" rx="1"/>
<text x="579" y="233" style="font-family:sans-serif;font-size:10px;">
expr
</text>
<rect x="832.0" y="448.0" width="8.0" height="15.0" style="fill:orange; stroke:rgb(0,0,0);" rx="1"/>
<text x="834" y="457" style="font-family:sans-serif;font-size:10px;">
-
</text>
<rect x="708.75" y="320.0" width="8.0" height="15.0" style="fill:orange; stroke:rgb(0,0,0);" rx="1"/>
<text x="710" y="329" style="font-family:sans-serif;font-size:10px;">
(
</text>
<rect x="841.5" y="480.0" width="37.0" height="15.0" style="fill:orange; stroke:rgb(0,0,0);" rx="1"/>
<text x="843" y="489" style="font-family:sans-serif;font-size:10px;">
consts
</text>
<rect x="321.0" y="128.0" width="24.0" height="15.0" style="fill:orange; stroke:rgb(0,0,0);" rx="1"/>
<text x="323" y="137" style="font-family:sans-serif;font-size:10px;">
else
</text>
<rect x="467.5" y="192.0" width="89.0" height="15.0" style="fill:orange; stroke:rgb(0,0,0);" rx="1"/>
<text x="469" y="201" style="font-family:sans-serif;font-size:10px;">
formalParameters
</text>
<rect x="863.25" y="352.0" width="16.0" height="15.0" style="fill:orange; stroke:rgb(0,0,0);" rx="1"/>
<text x="865" y="361" style="font-family:sans-serif;font-size:10px;">
25
</text>
<rect x="372.5" y="192.0" width="10.0" height="15.0" style="fill:orange; stroke:rgb(0,0,0);" rx="1"/>
<text x="374" y="201" style="font-family:sans-serif;font-size:10px;">
b
</text>
<rect x="389.5" y="192.0" width="15.0" height="15.0" style="fill:orange; stroke:rgb(0,0,0);" rx="1"/>
<text x="391" y="201" style="font-family:sans-serif;font-size:10px;">
let
</text>
<rect x="723.75" y="288.0" width="26.0" height="15.0" style="fill:orange; stroke:rgb(0,0,0);" rx="1"/>
<text x="725" y="297" style="font-family:sans-serif;font-size:10px;">
expr
</text>
<rect x="654.75" y="384.0" width="37.0" height="15.0" style="fill:orange; stroke:rgb(0,0,0);" rx="1"/>
<text x="656" y="393" style="font-family:sans-serif;font-size:10px;">
consts
</text>
<rect x="37.5" y="160.0" width="10.0" height="15.0" style="fill:orange; stroke:rgb(0,0,0);" rx="1"/>
<text x="39" y="169" style="font-family:sans-serif;font-size:10px;">
a
</text>
<rect x="774.0" y="512.0" width="10.0" height="15.0" style="fill:orange; stroke:rgb(0,0,0);" rx="1"/>
<text x="776" y="521" style="font-family:sans-serif;font-size:10px;">
1
</text>
<rect x="804.75" y="288.0" width="26.0" height="15.0" style="fill:orange; stroke:rgb(0,0,0);" rx="1"/>
<text x="806" y="297" style="font-family:sans-serif;font-size:10px;">
expr
</text>
<rect x="537.25" y="320.0" width="8.0" height="15.0" style="fill:orange; stroke:rgb(0,0,0);" rx="1"/>
<text x="539" y="329" style="font-family:sans-serif;font-size:10px;">
(
</text>
<rect x="775.0" y="416.0" width="8.0" height="15.0" style="fill:orange; stroke:rgb(0,0,0);" rx="1"/>
<text x="777" y="425" style="font-family:sans-serif;font-size:10px;">
)
</text>
<rect x="552.25" y="320.0" width="26.0" height="15.0" style="fill:orange; stroke:rgb(0,0,0);" rx="1"/>
<text x="554" y="329" style="font-family:sans-serif;font-size:10px;">
expr
</text>
<rect x="662.75" y="224.0" width="51.0" height="15.0" style="fill:orange; stroke:rgb(0,0,0);" rx="1"/>
<text x="664" y="233" style="font-family:sans-serif;font-size:10px;">
statement
</text>
<rect x="852.75" y="256.0" width="37.0" height="15.0" style="fill:orange; stroke:rgb(0,0,0);" rx="1"/>
<text x="854" y="265" style="font-family:sans-serif;font-size:10px;">
argList
</text>
<rect x="707.5" y="352.0" width="22.0" height="15.0" style="fill:orange; stroke:rgb(0,0,0);" rx="1"/>
<text x="709" y="361" style="font-family:sans-serif;font-size:10px;">
fibo
</text>
<rect x="840.0" y="224.0" width="26.0" height="15.0" style="fill:orange; stroke:rgb(0,0,0);" rx="1"/>
<text x="842" y="233" style="font-family:sans-serif;font-size:10px;">
expr
</text>
<rect x="352.0" y="128.0" width="51.0" height="15.0" style="fill:orange; stroke:rgb(0,0,0);" rx="1"/>
<text x="354" y="137" style="font-family:sans-serif;font-size:10px;">
statement
</text>
<rect x="756.1875" y="192.0" width="12.0" height="15.0" style="fill:orange; stroke:rgb(0,0,0);" rx="1"/>
<text x="758" y="201" style="font-family:sans-serif;font-size:10px;">
in
</text>
<rect x="567.25" y="256.0" width="14.0" height="15.0" style="fill:orange; stroke:rgb(0,0,0);" rx="1"/>
<text x="569" y="265" style="font-family:sans-serif;font-size:10px;">
or
</text>
<rect x="447.375" y="96.0" width="12.0" height="15.0" style="fill:orange; stroke:rgb(0,0,0);" rx="1"/>
<text x="449" y="105" style="font-family:sans-serif;font-size:10px;">
in
</text>
<rect x="127.5" y="160.0" width="10.0" height="15.0" style="fill:orange; stroke:rgb(0,0,0);" rx="1"/>
<text x="129" y="169" style="font-family:sans-serif;font-size:10px;">
b
</text>
<rect x="726.0" y="480.0" width="10.0" height="15.0" style="fill:orange; stroke:rgb(0,0,0);" rx="1"/>
<text x="728" y="489" style="font-family:sans-serif;font-size:10px;">
n
</text>
<rect x="856.0" y="416.0" width="8.0" height="15.0" style="fill:orange; stroke:rgb(0,0,0);" rx="1"/>
<text x="858" y="425" style="font-family:sans-serif;font-size:10px;">
)
</text>
<rect x="852.75" y="320.0" width="37.0" height="15.0" style="fill:orange; stroke:rgb(0,0,0);" rx="1"/>
<text x="854" y="329" style="font-family:sans-serif;font-size:10px;">
consts
</text>
<rect x="22.0" y="96.0" width="14.0" height="15.0" style="fill:orange; stroke:rgb(0,0,0);" rx="1"/>
<text x="24" y="105" style="font-family:sans-serif;font-size:10px;">
or
</text>
<rect x="668.25" y="416.0" width="10.0" height="15.0" style="fill:orange; stroke:rgb(0,0,0);" rx="1"/>
<text x="670" y="425" style="font-family:sans-serif;font-size:10px;">
1
</text>
<rect x="645.875" y="192.0" width="51.0" height="15.0" style="fill:orange; stroke:rgb(0,0,0);" rx="1"/>
<text x="647" y="201" style="font-family:sans-serif;font-size:10px;">
statement
</text>
<rect x="618.25" y="384.0" width="10.0" height="15.0" style="fill:orange; stroke:rgb(0,0,0);" rx="1"/>
<text x="620" y="393" style="font-family:sans-serif;font-size:10px;">
n
</text>
<rect x="807.0" y="480.0" width="10.0" height="15.0" style="fill:orange; stroke:rgb(0,0,0);" rx="1"/>
<text x="809" y="489" style="font-family:sans-serif;font-size:10px;">
n
</text>
<rect x="91.0" y="128.0" width="83.0" height="15.0" style="fill:orange; stroke:rgb(0,0,0);" rx="1"/>
<text x="93" y="137" style="font-family:sans-serif;font-size:10px;">
formalParameter
</text>
<rect x="585.25" y="320.0" width="8.0" height="15.0" style="fill:orange; stroke:rgb(0,0,0);" rx="1"/>
<text x="587" y="329" style="font-family:sans-serif;font-size:10px;">
)
</text>
<rect x="256.25" y="96.0" width="51.0" height="15.0" style="fill:orange; stroke:rgb(0,0,0);" rx="1"/>
<text x="258" y="105" style="font-family:sans-serif;font-size:10px;">
statement
</text>
<rect x="277.0" y="256.0" width="23.0" height="15.0" style="fill:orange; stroke:rgb(0,0,0);" rx="1"/>
<text x="279" y="265" style="font-family:sans-serif;font-size:10px;">
true
</text>
<rect x="751.75" y="224.0" width="51.0" height="15.0" style="fill:orange; stroke:rgb(0,0,0);" rx="1"/>
<text x="753" y="233" style="font-family:sans-serif;font-size:10px;">
statement
</text>
<rect x="751.0" y="448.0" width="8.0" height="15.0" style="fill:orange; stroke:rgb(0,0,0);" rx="1"/>
<text x="753" y="457" style="font-family:sans-serif;font-size:10px;">
-
</text>
<rect x="231.0" y="128.0" width="25.0" height="15.0" style="fill:orange; stroke:rgb(0,0,0);" rx="1"/>
<text x="233" y="137" style="font-family:sans-serif;font-size:10px;">
then
</text>
<rect x="284.25" y="64.0" width="64.0" height="15.0" style="fill:orange; stroke:rgb(0,0,0);" rx="1"/>
<text x="286" y="73" style="font-family:sans-serif;font-size:10px;">
functionDecl
</text>
<rect x="438.5" y="192.0" width="22.0" height="15.0" style="fill:orange; stroke:rgb(0,0,0);" rx="1"/>
<text x="440" y="201" style="font-family:sans-serif;font-size:10px;">
fibo
</text>
<rect x="847.0" y="448.0" width="26.0" height="15.0" style="fill:orange; stroke:rgb(0,0,0);" rx="1"/>
<text x="849" y="457" style="font-family:sans-serif;font-size:10px;">
expr
</text>
<rect x="817.5" y="352.0" width="37.0" height="15.0" style="fill:orange; stroke:rgb(0,0,0);" rx="1"/>
<text x="819" y="361" style="font-family:sans-serif;font-size:10px;">
argList
</text>
<rect x="527.25" y="352.0" width="26.0" height="15.0" style="fill:orange; stroke:rgb(0,0,0);" rx="1"/>
<text x="529" y="361" style="font-family:sans-serif;font-size:10px;">
expr
</text>
<rect x="181.0" y="128.0" width="10.0" height="15.0" style="fill:orange; stroke:rgb(0,0,0);" rx="1"/>
<text x="183" y="137" style="font-family:sans-serif;font-size:10px;">
if
</text>
<rect x="723.75" y="320.0" width="26.0" height="15.0" style="fill:orange; stroke:rgb(0,0,0);" rx="1"/>
<text x="725" y="329" style="font-family:sans-serif;font-size:10px;">
expr
</text>
<rect x="742.0" y="384.0" width="26.0" height="15.0" style="fill:orange; stroke:rgb(0,0,0);" rx="1"/>
<text x="744" y="393" style="font-family:sans-serif;font-size:10px;">
expr
</text>
<rect x="683.25" y="320.0" width="10.0" height="15.0" style="fill:orange; stroke:rgb(0,0,0);" rx="1"/>
<text x="685" y="329" style="font-family:sans-serif;font-size:10px;">
1
</text>
<rect x="198.0" y="128.0" width="26.0" height="15.0" style="fill:orange; stroke:rgb(0,0,0);" rx="1"/>
<text x="200" y="137" style="font-family:sans-serif;font-size:10px;">
expr
</text>
<rect x="635.25" y="320.0" width="26.0" height="15.0" style="fill:orange; stroke:rgb(0,0,0);" rx="1"/>
<text x="637" y="329" style="font-family:sans-serif;font-size:10px;">
expr
</text>
<rect x="593.5" y="128.0" width="63.0" height="15.0" style="fill:orange; stroke:rgb(0,0,0);" rx="1"/>
<text x="595" y="137" style="font-family:sans-serif;font-size:10px;">
declarations
</text>
<rect x="276.5" y="224.0" width="24.0" height="15.0" style="fill:orange; stroke:rgb(0,0,0);" rx="1"/>
<text x="278" y="233" style="font-family:sans-serif;font-size:10px;">
bool
</text>
<rect x="599.5" y="96.0" width="51.0" height="15.0" style="fill:orange; stroke:rgb(0,0,0);" rx="1"/>
<text x="601" y="105" style="font-family:sans-serif;font-size:10px;">
statement
</text>
<rect x="808.0" y="416.0" width="8.0" height="15.0" style="fill:orange; stroke:rgb(0,0,0);" rx="1"/>
<text x="810" y="425" style="font-family:sans-serif;font-size:10px;">
(
</text>
<rect x="855.0" y="512.0" width="10.0" height="15.0" style="fill:orange; stroke:rgb(0,0,0);" rx="1"/>
<text x="857" y="521" style="font-family:sans-serif;font-size:10px;">
2
</text>
<rect x="206.0" y="160.0" width="10.0" height="15.0" style="fill:orange; stroke:rgb(0,0,0);" rx="1"/>
<text x="208" y="169" style="font-family:sans-serif;font-size:10px;">
a
</text>
<rect x="270.0" y="192.0" width="37.0" height="15.0" style="fill:orange; stroke:rgb(0,0,0);" rx="1"/>
<text x="272" y="201" style="font-family:sans-serif;font-size:10px;">
consts
</text>
<rect x="411.5" y="192.0" width="20.0" height="15.0" style="fill:orange; stroke:rgb(0,0,0);" rx="1"/>
<text x="413" y="201" style="font-family:sans-serif;font-size:10px;">
rec
</text>
<rect x="804.75" y="320.0" width="26.0" height="15.0" style="fill:orange; stroke:rgb(0,0,0);" rx="1"/>
<text x="806" y="329" style="font-family:sans-serif;font-size:10px;">
expr
</text>
<rect x="756.75" y="320.0" width="8.0" height="15.0" style="fill:orange; stroke:rgb(0,0,0);" rx="1"/>
<text x="758" y="329" style="font-family:sans-serif;font-size:10px;">
)
</text>
<rect x="799.0" y="448.0" width="26.0" height="15.0" style="fill:orange; stroke:rgb(0,0,0);" rx="1"/>
<text x="801" y="457" style="font-family:sans-serif;font-size:10px;">
expr
</text>
<rect x="593.0" y="160.0" width="64.0" height="15.0" style="fill:orange; stroke:rgb(0,0,0);" rx="1"/>
<text x="595" y="169" style="font-family:sans-serif;font-size:10px;">
functionDecl
</text>
<rect x="552.25" y="288.0" width="26.0" height="15.0" style="fill:orange; stroke:rgb(0,0,0);" rx="1"/>
<text x="554" y="297" style="font-family:sans-serif;font-size:10px;">
expr
</text>
<rect x="635.25" y="288.0" width="26.0" height="15.0" style="fill:orange; stroke:rgb(0,0,0);" rx="1"/>
<text x="637" y="297" style="font-family:sans-serif;font-size:10px;">
expr
</text>
<rect x="720.75" y="224.0" width="24.0" height="15.0" style="fill:orange; stroke:rgb(0,0,0);" rx="1"/>
<text x="722" y="233" style="font-family:sans-serif;font-size:10px;">
else
</text>
<rect x="620.25" y="320.0" width="8.0" height="15.0" style="fill:orange; stroke:rgb(0,0,0);" rx="1"/>
<text x="622" y="329" style="font-family:sans-serif;font-size:10px;">
(
</text>
<rect x="643.25" y="352.0" width="10.0" height="15.0" style="fill:orange; stroke:rgb(0,0,0);" rx="1"/>
<text x="645" y="361" style="font-family:sans-serif;font-size:10px;">
=
</text>
<rect x="1.0" y="128.0" width="83.0" height="15.0" style="fill:orange; stroke:rgb(0,0,0);" rx="1"/>
<text x="3" y="137" style="font-family:sans-serif;font-size:10px;">
formalParameter
</text>
<rect x="823.0" y="384.0" width="26.0" height="15.0" style="fill:orange; stroke:rgb(0,0,0);" rx="1"/>
<text x="825" y="393" style="font-family:sans-serif;font-size:10px;">
expr
</text>
<rect x="470.5" y="224.0" width="83.0" height="15.0" style="fill:orange; stroke:rgb(0,0,0);" rx="1"/>
<text x="472" y="233" style="font-family:sans-serif;font-size:10px;">
formalParameter
</text>
<rect x="764.25" y="256.0" width="26.0" height="15.0" style="fill:orange; stroke:rgb(0,0,0);" rx="1"/>
<text x="766" y="265" style="font-family:sans-serif;font-size:10px;">
expr
</text>
<rect x="837.75" y="320.0" width="8.0" height="15.0" style="fill:orange; stroke:rgb(0,0,0);" rx="1"/>
<text x="839" y="329" style="font-family:sans-serif;font-size:10px;">
)
</text>
<rect x="507.0" y="256.0" width="10.0" height="15.0" style="fill:orange; stroke:rgb(0,0,0);" rx="1"/>
<text x="509" y="265" style="font-family:sans-serif;font-size:10px;">
n
</text>
<rect x="789.75" y="320.0" width="8.0" height="15.0" style="fill:orange; stroke:rgb(0,0,0);" rx="1"/>
<text x="791" y="329" style="font-family:sans-serif;font-size:10px;">
(
</text>
<rect x="596.1875" y="192.0" width="10.0" height="15.0" style="fill:orange; stroke:rgb(0,0,0);" rx="1"/>
<text x="598" y="201" style="font-family:sans-serif;font-size:10px;">
=
</text>
<rect x="294.25" y="0.0" width="44.0" height="15.0" style="fill:orange; stroke:rgb(0,0,0);" rx="1"/>
<text x="296" y="9" style="font-family:sans-serif;font-size:10px;">
program
</text>
<rect x="284.75" y="32.0" width="63.0" height="15.0" style="fill:orange; stroke:rgb(0,0,0);" rx="1"/>
<text x="286" y="41" style="font-family:sans-serif;font-size:10px;">
declarations
</text>
<rect x="275.5" y="160.0" width="26.0" height="15.0" style="fill:orange; stroke:rgb(0,0,0);" rx="1"/>
<text x="277" y="169" style="font-family:sans-serif;font-size:10px;">
expr
</text>
<rect x="660.25" y="352.0" width="26.0" height="15.0" style="fill:orange; stroke:rgb(0,0,0);" rx="1"/>
<text x="662" y="361" style="font-family:sans-serif;font-size:10px;">
expr
</text>
<rect x="610.25" y="352.0" width="26.0" height="15.0" style="fill:orange; stroke:rgb(0,0,0);" rx="1"/>
<text x="612" y="361" style="font-family:sans-serif;font-size:10px;">
expr
</text>
<rect x="585.25" y="416.0" width="10.0" height="15.0" style="fill:orange; stroke:rgb(0,0,0);" rx="1"/>
<text x="587" y="425" style="font-family:sans-serif;font-size:10px;">
0
</text>
<rect x="823.75" y="256.0" width="22.0" height="15.0" style="fill:orange; stroke:rgb(0,0,0);" rx="1"/>
<text x="825" y="265" style="font-family:sans-serif;font-size:10px;">
fibo
</text>
<rect x="760.5" y="480.0" width="37.0" height="15.0" style="fill:orange; stroke:rgb(0,0,0);" rx="1"/>
<text x="762" y="489" style="font-family:sans-serif;font-size:10px;">
consts
</text>
<rect x="772.25" y="288.0" width="10.0" height="15.0" style="fill:orange; stroke:rgb(0,0,0);" rx="1"/>
<text x="774" y="297" style="font-family:sans-serif;font-size:10px;">
+
</text>
<rect x="766.0" y="448.0" width="26.0" height="15.0" style="fill:orange; stroke:rgb(0,0,0);" rx="1"/>
<text x="768" y="457" style="font-family:sans-serif;font-size:10px;">
expr
</text>
<rect x="189.125" y="96.0" width="10.0" height="15.0" style="fill:orange; stroke:rgb(0,0,0);" rx="1"/>
<text x="191" y="105" style="font-family:sans-serif;font-size:10px;">
=
</text>
<rect x="742.0" y="416.0" width="26.0" height="15.0" style="fill:orange; stroke:rgb(0,0,0);" rx="1"/>
<text x="744" y="425" style="font-family:sans-serif;font-size:10px;">
expr
</text>
<rect x="620.625" y="224.0" width="25.0" height="15.0" style="fill:orange; stroke:rgb(0,0,0);" rx="1"/>
<text x="622" y="233" style="font-family:sans-serif;font-size:10px;">
then
</text>
<rect x="263.0" y="128.0" width="51.0" height="15.0" style="fill:orange; stroke:rgb(0,0,0);" rx="1"/>
<text x="265" y="137" style="font-family:sans-serif;font-size:10px;">
statement
</text>
<rect x="571.75" y="384.0" width="37.0" height="15.0" style="fill:orange; stroke:rgb(0,0,0);" rx="1"/>
<text x="573" y="393" style="font-family:sans-serif;font-size:10px;">
consts
</text>
<rect x="669.75" y="288.0" width="37.0" height="15.0" style="fill:orange; stroke:rgb(0,0,0);" rx="1"/>
<text x="671" y="297" style="font-family:sans-serif;font-size:10px;">
consts
</text>
<rect x="736.5" y="352.0" width="37.0" height="15.0" style="fill:orange; stroke:rgb(0,0,0);" rx="1"/>
<text x="738" y="361" style="font-family:sans-serif;font-size:10px;">
argList
</text>
<rect x="727.0" y="416.0" width="8.0" height="15.0" style="fill:orange; stroke:rgb(0,0,0);" rx="1"/>
<text x="729" y="425" style="font-family:sans-serif;font-size:10px;">
(
</text>
<rect x="535.25" y="384.0" width="10.0" height="15.0" style="fill:orange; stroke:rgb(0,0,0);" rx="1"/>
<text x="537" y="393" style="font-family:sans-serif;font-size:10px;">
n
</text>
<rect x="823.0" y="416.0" width="26.0" height="15.0" style="fill:orange; stroke:rgb(0,0,0);" rx="1"/>
<text x="825" y="425" style="font-family:sans-serif;font-size:10px;">
expr
</text>
<rect x="788.5" y="352.0" width="22.0" height="15.0" style="fill:orange; stroke:rgb(0,0,0);" rx="1"/>
<text x="790" y="361" style="font-family:sans-serif;font-size:10px;">
fibo
</text>
<rect x="858.25" y="288.0" width="26.0" height="15.0" style="fill:orange; stroke:rgb(0,0,0);" rx="1"/>
<text x="860" y="297" style="font-family:sans-serif;font-size:10px;">
expr
</text>
<rect x="43.0" y="96.0" width="89.0" height="15.0" style="fill:orange; stroke:rgb(0,0,0);" rx="1"/>
<text x="45" y="105" style="font-family:sans-serif;font-size:10px;">
formalParameters
</text>
<rect x="577.25" y="352.0" width="26.0" height="15.0" style="fill:orange; stroke:rgb(0,0,0);" rx="1"/>
<text x="579" y="361" style="font-family:sans-serif;font-size:10px;">
expr
</text>
</svg>