<svg width="1250.7" height="919.6" xmlns="http://www.w3.org/2000/svg" xmlns:xlink="http://www.w3.org/1999/xlink"><line x1="57.0" y1="7.5" x2="57.0" y2="32.0" style="stroke:black; stroke-width:1px;" />
<line x1="57.0" y1="39.5" x2="7.5" y2="64.0" style="stroke:black; stroke-width:1px;" />
<line x1="57.0" y1="39.5" x2="27.0" y2="64.0" style="stroke:black; stroke-width:1px;" />
<line x1="57.0" y1="39.5" x2="44.0" y2="64.0" style="stroke:black; stroke-width:1px;" />
<line x1="57.0" y1="39.5" x2="65.0" y2="64.0" style="stroke:black; stroke-width:1px;" />
<line x1="57.0" y1="39.5" x2="106.5" y2="64.0" style="stroke:black; stroke-width:1px;" />
<line x1="106.5" y1="71.5" x2="55.67919921875" y2="96.0" style="stroke:black; stroke-width:1px;" />
<line x1="55.67919921875" y1="103.5" x2="55.67919921875" y2="128.0" style="stroke:black; stroke-width:1px;" />
<line x1="55.67919921875" y1="135.5" x2="55.67919921875" y2="160.0" style="stroke:black; stroke-width:1px;" />
<line x1="55.67919921875" y1="167.5" x2="55.67919921875" y2="192.0" style="stroke:black; stroke-width:1px;" />
<line x1="106.5" y1="71.5" x2="106.5" y2="96.0" style="stroke:black; stroke-width:1px;" />
<line x1="106.5" y1="71.5" x2="157.32080078125" y2="96.0" style="stroke:black; stroke-width:1px;" />
<line x1="157.32080078125" y1="103.5" x2="157.32080078125" y2="128.0" style="stroke:black; stroke-width:1px;" />
<line x1="157.32080078125" y1="135.5" x2="107.82080078125" y2="160.0" style="stroke:black; stroke-width:1px;" />
<line x1="157.32080078125" y1="135.5" x2="127.32080078125" y2="160.0" style="stroke:black; stroke-width:1px;" />
<line x1="157.32080078125" y1="135.5" x2="144.32080078125" y2="160.0" style="stroke:black; stroke-width:1px;" />
<line x1="157.32080078125" y1="135.5" x2="165.32080078125" y2="160.0" style="stroke:black; stroke-width:1px;" />
<line x1="157.32080078125" y1="135.5" x2="206.82080078125" y2="160.0" style="stroke:black; stroke-width:1px;" />
<line x1="206.82080078125" y1="167.5" x2="93.17919921875" y2="192.0" style="stroke:black; stroke-width:1px;" />
<line x1="93.17919921875" y1="199.5" x2="93.17919921875" y2="224.0" style="stroke:black; stroke-width:1px;" />
<line x1="93.17919921875" y1="231.5" x2="93.17919921875" y2="256.0" style="stroke:black; stroke-width:1px;" />
<line x1="93.17919921875" y1="263.5" x2="93.17919921875" y2="288.0" style="stroke:black; stroke-width:1px;" />
<line x1="206.82080078125" y1="167.5" x2="206.82080078125" y2="192.0" style="stroke:black; stroke-width:1px;" />
<line x1="206.82080078125" y1="167.5" x2="320.46240234375" y2="192.0" style="stroke:black; stroke-width:1px;" />
<line x1="320.46240234375" y1="199.5" x2="320.46240234375" y2="224.0" style="stroke:black; stroke-width:1px;" />
<line x1="320.46240234375" y1="231.5" x2="148.67919921875" y2="256.0" style="stroke:black; stroke-width:1px;" />
<line x1="320.46240234375" y1="231.5" x2="174.17919921875" y2="256.0" style="stroke:black; stroke-width:1px;" />
<line x1="320.46240234375" y1="231.5" x2="236.67919921875" y2="256.0" style="stroke:black; stroke-width:1px;" />
<line x1="236.67919921875" y1="263.5" x2="146.67919921875" y2="288.0" style="stroke:black; stroke-width:1px;" />
<line x1="146.67919921875" y1="295.5" x2="146.67919921875" y2="320.0" style="stroke:black; stroke-width:1px;" />
<line x1="236.67919921875" y1="263.5" x2="236.67919921875" y2="288.0" style="stroke:black; stroke-width:1px;" />
<line x1="236.67919921875" y1="295.5" x2="236.67919921875" y2="320.0" style="stroke:black; stroke-width:1px;" />
<line x1="236.67919921875" y1="263.5" x2="326.67919921875" y2="288.0" style="stroke:black; stroke-width:1px;" />
<line x1="326.67919921875" y1="295.5" x2="326.67919921875" y2="320.0" style="stroke:black; stroke-width:1px;" />
<line x1="320.46240234375" y1="231.5" x2="373.96240234375" y2="256.0" style="stroke:black; stroke-width:1px;" />
<line x1="320.46240234375" y1="231.5" x2="492.24560546875" y2="256.0" style="stroke:black; stroke-width:1px;" />
<line x1="492.24560546875" y1="263.5" x2="380.17919921875" y2="288.0" style="stroke:black; stroke-width:1px;" />
<line x1="492.24560546875" y1="263.5" x2="405.17919921875" y2="288.0" style="stroke:black; stroke-width:1px;" />
<line x1="405.17919921875" y1="295.5" x2="380.17919921875" y2="320.0" style="stroke:black; stroke-width:1px;" />
<line x1="380.17919921875" y1="327.5" x2="380.17919921875" y2="352.0" style="stroke:black; stroke-width:1px;" />
<line x1="405.17919921875" y1="295.5" x2="405.17919921875" y2="320.0" style="stroke:black; stroke-width:1px;" />
<line x1="405.17919921875" y1="295.5" x2="430.17919921875" y2="320.0" style="stroke:black; stroke-width:1px;" />
<line x1="430.17919921875" y1="327.5" x2="430.17919921875" y2="352.0" style="stroke:black; stroke-width:1px;" />
<line x1="430.17919921875" y1="359.5" x2="430.17919921875" y2="384.0" style="stroke:black; stroke-width:1px;" />
<line x1="492.24560546875" y1="263.5" x2="437.67919921875" y2="288.0" style="stroke:black; stroke-width:1px;" />
<line x1="492.24560546875" y1="263.5" x2="482.67919921875" y2="288.0" style="stroke:black; stroke-width:1px;" />
<line x1="482.67919921875" y1="295.5" x2="482.67919921875" y2="320.0" style="stroke:black; stroke-width:1px;" />
<line x1="482.67919921875" y1="327.5" x2="482.67919921875" y2="352.0" style="stroke:black; stroke-width:1px;" />
<line x1="482.67919921875" y1="359.5" x2="482.67919921875" y2="384.0" style="stroke:black; stroke-width:1px;" />
<line x1="492.24560546875" y1="263.5" x2="543.49560546875" y2="288.0" style="stroke:black; stroke-width:1px;" />
<line x1="492.24560546875" y1="263.5" x2="604.31201171875" y2="288.0" style="stroke:black; stroke-width:1px;" />
<line x1="604.31201171875" y1="295.5" x2="604.31201171875" y2="320.0" style="stroke:black; stroke-width:1px;" />
<line x1="604.31201171875" y1="327.5" x2="568.81201171875" y2="352.0" style="stroke:black; stroke-width:1px;" />
<line x1="604.31201171875" y1="327.5" x2="586.81201171875" y2="352.0" style="stroke:black; stroke-width:1px;" />
<line x1="604.31201171875" y1="327.5" x2="602.31201171875" y2="352.0" style="stroke:black; stroke-width:1px;" />
<line x1="604.31201171875" y1="327.5" x2="639.81201171875" y2="352.0" style="stroke:black; stroke-width:1px;" />
<line x1="639.81201171875" y1="359.5" x2="521.17919921875" y2="384.0" style="stroke:black; stroke-width:1px;" />
<line x1="521.17919921875" y1="391.5" x2="385.41357421875" y2="416.0" style="stroke:black; stroke-width:1px;" />
<line x1="385.41357421875" y1="423.5" x2="288.63232421875" y2="448.0" style="stroke:black; stroke-width:1px;" />
<line x1="288.63232421875" y1="455.5" x2="203.31982421875" y2="480.0" style="stroke:black; stroke-width:1px;" />
<line x1="203.31982421875" y1="487.5" x2="129.94482421875" y2="512.0" style="stroke:black; stroke-width:1px;" />
<line x1="129.94482421875" y1="519.5" x2="91.44482421875" y2="544.0" style="stroke:black; stroke-width:1px;" />
<line x1="91.44482421875" y1="551.5" x2="91.44482421875" y2="576.0" style="stroke:black; stroke-width:1px;" />
<line x1="91.44482421875" y1="583.5" x2="79.94482421875" y2="608.0" style="stroke:black; stroke-width:1px;" />
<line x1="91.44482421875" y1="583.5" x2="102.94482421875" y2="608.0" style="stroke:black; stroke-width:1px;" />
<line x1="102.94482421875" y1="615.5" x2="102.94482421875" y2="640.0" style="stroke:black; stroke-width:1px;" />
<line x1="129.94482421875" y1="519.5" x2="129.94482421875" y2="544.0" style="stroke:black; stroke-width:1px;" />
<line x1="129.94482421875" y1="519.5" x2="168.44482421875" y2="544.0" style="stroke:black; stroke-width:1px;" />
<line x1="168.44482421875" y1="551.5" x2="168.44482421875" y2="576.0" style="stroke:black; stroke-width:1px;" />
<line x1="168.44482421875" y1="583.5" x2="141.94482421875" y2="608.0" style="stroke:black; stroke-width:1px;" />
<line x1="141.94482421875" y1="615.5" x2="141.94482421875" y2="640.0" style="stroke:black; stroke-width:1px;" />
<line x1="168.44482421875" y1="583.5" x2="168.44482421875" y2="608.0" style="stroke:black; stroke-width:1px;" />
<line x1="168.44482421875" y1="583.5" x2="194.94482421875" y2="608.0" style="stroke:black; stroke-width:1px;" />
<line x1="194.94482421875" y1="615.5" x2="169.94482421875" y2="640.0" style="stroke:black; stroke-width:1px;" />
<line x1="169.94482421875" y1="647.5" x2="158.44482421875" y2="672.0" style="stroke:black; stroke-width:1px;" />
<line x1="169.94482421875" y1="647.5" x2="181.44482421875" y2="672.0" style="stroke:black; stroke-width:1px;" />
<line x1="181.44482421875" y1="679.5" x2="181.44482421875" y2="704.0" style="stroke:black; stroke-width:1px;" />
<line x1="194.94482421875" y1="615.5" x2="194.94482421875" y2="640.0" style="stroke:black; stroke-width:1px;" />
<line x1="194.94482421875" y1="615.5" x2="219.94482421875" y2="640.0" style="stroke:black; stroke-width:1px;" />
<line x1="219.94482421875" y1="647.5" x2="208.44482421875" y2="672.0" style="stroke:black; stroke-width:1px;" />
<line x1="219.94482421875" y1="647.5" x2="231.44482421875" y2="672.0" style="stroke:black; stroke-width:1px;" />
<line x1="231.44482421875" y1="679.5" x2="231.44482421875" y2="704.0" style="stroke:black; stroke-width:1px;" />
<line x1="203.31982421875" y1="487.5" x2="203.31982421875" y2="512.0" style="stroke:black; stroke-width:1px;" />
<line x1="203.31982421875" y1="487.5" x2="276.69482421875" y2="512.0" style="stroke:black; stroke-width:1px;" />
<line x1="276.69482421875" y1="519.5" x2="276.69482421875" y2="544.0" style="stroke:black; stroke-width:1px;" />
<line x1="276.69482421875" y1="551.5" x2="221.94482421875" y2="576.0" style="stroke:black; stroke-width:1px;" />
<line x1="276.69482421875" y1="551.5" x2="266.44482421875" y2="576.0" style="stroke:black; stroke-width:1px;" />
<line x1="276.69482421875" y1="551.5" x2="298.94482421875" y2="576.0" style="stroke:black; stroke-width:1px;" />
<line x1="298.94482421875" y1="583.5" x2="298.94482421875" y2="608.0" style="stroke:black; stroke-width:1px;" />
<line x1="298.94482421875" y1="615.5" x2="298.94482421875" y2="640.0" style="stroke:black; stroke-width:1px;" />
<line x1="276.69482421875" y1="551.5" x2="331.44482421875" y2="576.0" style="stroke:black; stroke-width:1px;" />
<line x1="288.63232421875" y1="455.5" x2="288.63232421875" y2="480.0" style="stroke:black; stroke-width:1px;" />
<line x1="288.63232421875" y1="455.5" x2="373.94482421875" y2="480.0" style="stroke:black; stroke-width:1px;" />
<line x1="373.94482421875" y1="487.5" x2="373.94482421875" y2="512.0" style="stroke:black; stroke-width:1px;" />
<line x1="373.94482421875" y1="519.5" x2="347.44482421875" y2="544.0" style="stroke:black; stroke-width:1px;" />
<line x1="347.44482421875" y1="551.5" x2="347.44482421875" y2="576.0" style="stroke:black; stroke-width:1px;" />
<line x1="373.94482421875" y1="519.5" x2="373.94482421875" y2="544.0" style="stroke:black; stroke-width:1px;" />
<line x1="373.94482421875" y1="519.5" x2="400.44482421875" y2="544.0" style="stroke:black; stroke-width:1px;" />
<line x1="400.44482421875" y1="551.5" x2="400.44482421875" y2="576.0" style="stroke:black; stroke-width:1px;" />
<line x1="385.41357421875" y1="423.5" x2="385.41357421875" y2="448.0" style="stroke:black; stroke-width:1px;" />
<line x1="385.41357421875" y1="423.5" x2="482.19482421875" y2="448.0" style="stroke:black; stroke-width:1px;" />
<line x1="482.19482421875" y1="455.5" x2="482.19482421875" y2="480.0" style="stroke:black; stroke-width:1px;" />
<line x1="482.19482421875" y1="487.5" x2="427.44482421875" y2="512.0" style="stroke:black; stroke-width:1px;" />
<line x1="482.19482421875" y1="487.5" x2="471.94482421875" y2="512.0" style="stroke:black; stroke-width:1px;" />
<line x1="482.19482421875" y1="487.5" x2="504.44482421875" y2="512.0" style="stroke:black; stroke-width:1px;" />
<line x1="504.44482421875" y1="519.5" x2="480.94482421875" y2="544.0" style="stroke:black; stroke-width:1px;" />
<line x1="480.94482421875" y1="551.5" x2="480.94482421875" y2="576.0" style="stroke:black; stroke-width:1px;" />
<line x1="504.44482421875" y1="519.5" x2="504.44482421875" y2="544.0" style="stroke:black; stroke-width:1px;" />
<line x1="504.44482421875" y1="519.5" x2="527.94482421875" y2="544.0" style="stroke:black; stroke-width:1px;" />
<line x1="527.94482421875" y1="551.5" x2="527.94482421875" y2="576.0" style="stroke:black; stroke-width:1px;" />
<line x1="482.19482421875" y1="487.5" x2="536.94482421875" y2="512.0" style="stroke:black; stroke-width:1px;" />
<line x1="521.17919921875" y1="391.5" x2="521.17919921875" y2="416.0" style="stroke:black; stroke-width:1px;" />
<line x1="521.17919921875" y1="391.5" x2="656.94482421875" y2="416.0" style="stroke:black; stroke-width:1px;" />
<line x1="656.94482421875" y1="423.5" x2="602.44482421875" y2="448.0" style="stroke:black; stroke-width:1px;" />
<line x1="602.44482421875" y1="455.5" x2="602.44482421875" y2="480.0" style="stroke:black; stroke-width:1px;" />
<line x1="602.44482421875" y1="487.5" x2="558.94482421875" y2="512.0" style="stroke:black; stroke-width:1px;" />
<line x1="602.44482421875" y1="487.5" x2="580.94482421875" y2="512.0" style="stroke:black; stroke-width:1px;" />
<line x1="602.44482421875" y1="487.5" x2="613.44482421875" y2="512.0" style="stroke:black; stroke-width:1px;" />
<line x1="613.44482421875" y1="519.5" x2="613.44482421875" y2="544.0" style="stroke:black; stroke-width:1px;" />
<line x1="613.44482421875" y1="551.5" x2="589.44482421875" y2="576.0" style="stroke:black; stroke-width:1px;" />
<line x1="589.44482421875" y1="583.5" x2="589.44482421875" y2="608.0" style="stroke:black; stroke-width:1px;" />
<line x1="613.44482421875" y1="551.5" x2="613.44482421875" y2="576.0" style="stroke:black; stroke-width:1px;" />
<line x1="613.44482421875" y1="551.5" x2="637.44482421875" y2="576.0" style="stroke:black; stroke-width:1px;" />
<line x1="637.44482421875" y1="583.5" x2="637.44482421875" y2="608.0" style="stroke:black; stroke-width:1px;" />
<line x1="637.44482421875" y1="615.5" x2="637.44482421875" y2="640.0" style="stroke:black; stroke-width:1px;" />
<line x1="602.44482421875" y1="487.5" x2="645.94482421875" y2="512.0" style="stroke:black; stroke-width:1px;" />
<line x1="656.94482421875" y1="423.5" x2="656.94482421875" y2="448.0" style="stroke:black; stroke-width:1px;" />
<line x1="656.94482421875" y1="423.5" x2="711.44482421875" y2="448.0" style="stroke:black; stroke-width:1px;" />
<line x1="711.44482421875" y1="455.5" x2="711.44482421875" y2="480.0" style="stroke:black; stroke-width:1px;" />
<line x1="711.44482421875" y1="487.5" x2="667.94482421875" y2="512.0" style="stroke:black; stroke-width:1px;" />
<line x1="711.44482421875" y1="487.5" x2="689.94482421875" y2="512.0" style="stroke:black; stroke-width:1px;" />
<line x1="711.44482421875" y1="487.5" x2="722.44482421875" y2="512.0" style="stroke:black; stroke-width:1px;" />
<line x1="722.44482421875" y1="519.5" x2="722.44482421875" y2="544.0" style="stroke:black; stroke-width:1px;" />
<line x1="722.44482421875" y1="551.5" x2="722.44482421875" y2="576.0" style="stroke:black; stroke-width:1px;" />
<line x1="722.44482421875" y1="583.5" x2="722.44482421875" y2="608.0" style="stroke:black; stroke-width:1px;" />
<line x1="711.44482421875" y1="487.5" x2="754.94482421875" y2="512.0" style="stroke:black; stroke-width:1px;" />
<line x1="639.81201171875" y1="359.5" x2="639.81201171875" y2="384.0" style="stroke:black; stroke-width:1px;" />
<line x1="639.81201171875" y1="359.5" x2="758.44482421875" y2="384.0" style="stroke:black; stroke-width:1px;" />
<line x1="758.44482421875" y1="391.5" x2="758.44482421875" y2="416.0" style="stroke:black; stroke-width:1px;" />
<line x1="758.44482421875" y1="423.5" x2="746.94482421875" y2="448.0" style="stroke:black; stroke-width:1px;" />
<line x1="758.44482421875" y1="423.5" x2="769.94482421875" y2="448.0" style="stroke:black; stroke-width:1px;" />
<line x1="769.94482421875" y1="455.5" x2="769.94482421875" y2="480.0" style="stroke:black; stroke-width:1px;" />
<rect x="122.32080078125" y="160.0" width="10.0" height="15.0" style="fill:orange; stroke:rgb(0,0,0);" rx="1"/>
<text x="124" y="169" style="font-family:sans-serif;font-size:10px;">
b
</text>
<rect x="591.94482421875" y="512.0" width="43.0" height="15.0" style="fill:orange; stroke:rgb(0,0,0);" rx="1"/>
<text x="593" y="521" style="font-family:sans-serif;font-size:10px;">
exprList
</text>
<rect x="425.17919921875" y="288.0" width="25.0" height="15.0" style="fill:orange; stroke:rgb(0,0,0);" rx="1"/>
<text x="427" y="297" style="font-family:sans-serif;font-size:10px;">
then
</text>
<rect x="703.94482421875" y="576.0" width="37.0" height="15.0" style="fill:orange; stroke:rgb(0,0,0);" rx="1"/>
<text x="705" y="585" style="font-family:sans-serif;font-size:10px;">
consts
</text>
<rect x="597.31201171875" y="352.0" width="10.0" height="15.0" style="fill:orange; stroke:rgb(0,0,0);" rx="1"/>
<text x="599" y="361" style="font-family:sans-serif;font-size:10px;">
=
</text>
<rect x="104.44482421875" y="512.0" width="51.0" height="15.0" style="fill:orange; stroke:rgb(0,0,0);" rx="1"/>
<text x="106" y="521" style="font-family:sans-serif;font-size:10px;">
statement
</text>
<rect x="161.94482421875" y="608.0" width="13.0" height="15.0" style="fill:orange; stroke:rgb(0,0,0);" rx="1"/>
<text x="163" y="617" style="font-family:sans-serif;font-size:10px;">
:=
</text>
<rect x="263.13232421875" y="448.0" width="51.0" height="15.0" style="fill:orange; stroke:rgb(0,0,0);" rx="1"/>
<text x="265" y="457" style="font-family:sans-serif;font-size:10px;">
statement
</text>
<rect x="375.17919921875" y="288.0" width="10.0" height="15.0" style="fill:orange; stroke:rgb(0,0,0);" rx="1"/>
<text x="377" y="297" style="font-family:sans-serif;font-size:10px;">
if
</text>
<rect x="467.94482421875" y="544.0" width="26.0" height="15.0" style="fill:orange; stroke:rgb(0,0,0);" rx="1"/>
<text x="469" y="553" style="font-family:sans-serif;font-size:10px;">
expr
</text>
<rect x="35.0" y="0.0" width="44.0" height="15.0" style="fill:orange; stroke:rgb(0,0,0);" rx="1"/>
<text x="37" y="9" style="font-family:sans-serif;font-size:10px;">
program
</text>
<rect x="123.94482421875" y="544.0" width="12.0" height="15.0" style="fill:orange; stroke:rgb(0,0,0);" rx="1"/>
<text x="125" y="553" style="font-family:sans-serif;font-size:10px;">
in
</text>
<rect x="139.32080078125" y="160.0" width="10.0" height="15.0" style="fill:orange; stroke:rgb(0,0,0);" rx="1"/>
<text x="141" y="169" style="font-family:sans-serif;font-size:10px;">
=
</text>
<rect x="89.94482421875" y="608.0" width="26.0" height="15.0" style="fill:orange; stroke:rgb(0,0,0);" rx="1"/>
<text x="91" y="617" style="font-family:sans-serif;font-size:10px;">
expr
</text>
<rect x="584.44482421875" y="608.0" width="10.0" height="15.0" style="fill:orange; stroke:rgb(0,0,0);" rx="1"/>
<text x="586" y="617" style="font-family:sans-serif;font-size:10px;">
n
</text>
<rect x="263.69482421875" y="544.0" width="26.0" height="15.0" style="fill:orange; stroke:rgb(0,0,0);" rx="1"/>
<text x="265" y="553" style="font-family:sans-serif;font-size:10px;">
expr
</text>
<rect x="547.94482421875" y="512.0" width="22.0" height="15.0" style="fill:orange; stroke:rgb(0,0,0);" rx="1"/>
<text x="549" y="521" style="font-family:sans-serif;font-size:10px;">
fibo
</text>
<rect x="393.94482421875" y="512.0" width="67.0" height="15.0" style="fill:orange; stroke:rgb(0,0,0);" rx="1"/>
<text x="395" y="521" style="font-family:sans-serif;font-size:10px;">
externalFunc
</text>
<rect x="624.44482421875" y="576.0" width="26.0" height="15.0" style="fill:orange; stroke:rgb(0,0,0);" rx="1"/>
<text x="626" y="585" style="font-family:sans-serif;font-size:10px;">
expr
</text>
<rect x="400.17919921875" y="320.0" width="10.0" height="15.0" style="fill:orange; stroke:rgb(0,0,0);" rx="1"/>
<text x="402" y="329" style="font-family:sans-serif;font-size:10px;">
=
</text>
<rect x="262.44482421875" y="576.0" width="8.0" height="15.0" style="fill:orange; stroke:rgb(0,0,0);" rx="1"/>
<text x="264" y="585" style="font-family:sans-serif;font-size:10px;">
{
</text>
<rect x="381.91357421875" y="448.0" width="7.0" height="15.0" style="fill:orange; stroke:rgb(0,0,0);" rx="1"/>
<text x="383" y="457" style="font-family:sans-serif;font-size:10px;">
;
</text>
<rect x="469.67919921875" y="320.0" width="26.0" height="15.0" style="fill:orange; stroke:rgb(0,0,0);" rx="1"/>
<text x="471" y="329" style="font-family:sans-serif;font-size:10px;">
expr
</text>
<rect x="81.0" y="64.0" width="51.0" height="15.0" style="fill:orange; stroke:rgb(0,0,0);" rx="1"/>
<text x="83" y="73" style="font-family:sans-serif;font-size:10px;">
statement
</text>
<rect x="522.94482421875" y="576.0" width="10.0" height="15.0" style="fill:orange; stroke:rgb(0,0,0);" rx="1"/>
<text x="524" y="585" style="font-family:sans-serif;font-size:10px;">
z
</text>
<rect x="156.94482421875" y="640.0" width="26.0" height="15.0" style="fill:orange; stroke:rgb(0,0,0);" rx="1"/>
<text x="158" y="649" style="font-family:sans-serif;font-size:10px;">
expr
</text>
<rect x="367.44482421875" y="544.0" width="13.0" height="15.0" style="fill:orange; stroke:rgb(0,0,0);" rx="1"/>
<text x="369" y="553" style="font-family:sans-serif;font-size:10px;">
:=
</text>
<rect x="218.44482421875" y="672.0" width="26.0" height="15.0" style="fill:orange; stroke:rgb(0,0,0);" rx="1"/>
<text x="220" y="681" style="font-family:sans-serif;font-size:10px;">
expr
</text>
<rect x="199.81982421875" y="512.0" width="7.0" height="15.0" style="fill:orange; stroke:rgb(0,0,0);" rx="1"/>
<text x="201" y="521" style="font-family:sans-serif;font-size:10px;">
;
</text>
<rect x="576.94482421875" y="512.0" width="8.0" height="15.0" style="fill:orange; stroke:rgb(0,0,0);" rx="1"/>
<text x="578" y="521" style="font-family:sans-serif;font-size:10px;">
{
</text>
<rect x="750.94482421875" y="512.0" width="8.0" height="15.0" style="fill:orange; stroke:rgb(0,0,0);" rx="1"/>
<text x="752" y="521" style="font-family:sans-serif;font-size:10px;">
}
</text>
<rect x="456.69482421875" y="448.0" width="51.0" height="15.0" style="fill:orange; stroke:rgb(0,0,0);" rx="1"/>
<text x="458" y="457" style="font-family:sans-serif;font-size:10px;">
statement
</text>
<rect x="39.0" y="64.0" width="10.0" height="15.0" style="fill:orange; stroke:rgb(0,0,0);" rx="1"/>
<text x="41" y="73" style="font-family:sans-serif;font-size:10px;">
=
</text>
<rect x="177.81982421875" y="480.0" width="51.0" height="15.0" style="fill:orange; stroke:rgb(0,0,0);" rx="1"/>
<text x="179" y="489" style="font-family:sans-serif;font-size:10px;">
statement
</text>
<rect x="22.0" y="64.0" width="10.0" height="15.0" style="fill:orange; stroke:rgb(0,0,0);" rx="1"/>
<text x="24" y="73" style="font-family:sans-serif;font-size:10px;">
a
</text>
<rect x="532.94482421875" y="512.0" width="8.0" height="15.0" style="fill:orange; stroke:rgb(0,0,0);" rx="1"/>
<text x="534" y="521" style="font-family:sans-serif;font-size:10px;">
}
</text>
<rect x="396.94482421875" y="576.0" width="7.0" height="15.0" style="fill:orange; stroke:rgb(0,0,0);" rx="1"/>
<text x="398" y="585" style="font-family:sans-serif;font-size:10px;">
t
</text>
<rect x="50.67919921875" y="192.0" width="10.0" height="15.0" style="fill:orange; stroke:rgb(0,0,0);" rx="1"/>
<text x="52" y="201" style="font-family:sans-serif;font-size:10px;">
1
</text>
<rect x="200.82080078125" y="192.0" width="12.0" height="15.0" style="fill:orange; stroke:rgb(0,0,0);" rx="1"/>
<text x="202" y="201" style="font-family:sans-serif;font-size:10px;">
in
</text>
<rect x="80.17919921875" y="224.0" width="26.0" height="15.0" style="fill:orange; stroke:rgb(0,0,0);" rx="1"/>
<text x="82" y="233" style="font-family:sans-serif;font-size:10px;">
expr
</text>
<rect x="294.96240234375" y="192.0" width="51.0" height="15.0" style="fill:orange; stroke:rgb(0,0,0);" rx="1"/>
<text x="296" y="201" style="font-family:sans-serif;font-size:10px;">
statement
</text>
<rect x="614.31201171875" y="352.0" width="51.0" height="15.0" style="fill:orange; stroke:rgb(0,0,0);" rx="1"/>
<text x="616" y="361" style="font-family:sans-serif;font-size:10px;">
statement
</text>
<rect x="600.44482421875" y="544.0" width="26.0" height="15.0" style="fill:orange; stroke:rgb(0,0,0);" rx="1"/>
<text x="602" y="553" style="font-family:sans-serif;font-size:10px;">
expr
</text>
<rect x="327.44482421875" y="576.0" width="8.0" height="15.0" style="fill:orange; stroke:rgb(0,0,0);" rx="1"/>
<text x="329" y="585" style="font-family:sans-serif;font-size:10px;">
}
</text>
<rect x="636.31201171875" y="384.0" width="7.0" height="15.0" style="fill:orange; stroke:rgb(0,0,0);" rx="1"/>
<text x="638" y="393" style="font-family:sans-serif;font-size:10px;">
;
</text>
<rect x="203.17919921875" y="320.0" width="67.0" height="15.0" style="fill:orange; stroke:rgb(0,0,0);" rx="1"/>
<text x="205" y="329" style="font-family:sans-serif;font-size:10px;">
externalFunc
</text>
<rect x="188.44482421875" y="576.0" width="67.0" height="15.0" style="fill:orange; stroke:rgb(0,0,0);" rx="1"/>
<text x="190" y="585" style="font-family:sans-serif;font-size:10px;">
externalFunc
</text>
<rect x="685.94482421875" y="448.0" width="51.0" height="15.0" style="fill:orange; stroke:rgb(0,0,0);" rx="1"/>
<text x="687" y="457" style="font-family:sans-serif;font-size:10px;">
statement
</text>
<rect x="321.67919921875" y="320.0" width="10.0" height="15.0" style="fill:orange; stroke:rgb(0,0,0);" rx="1"/>
<text x="323" y="329" style="font-family:sans-serif;font-size:10px;">
z
</text>
<rect x="141.67919921875" y="320.0" width="10.0" height="15.0" style="fill:orange; stroke:rgb(0,0,0);" rx="1"/>
<text x="143" y="329" style="font-family:sans-serif;font-size:10px;">
n
</text>
<rect x="476.67919921875" y="384.0" width="12.0" height="15.0" style="fill:orange; stroke:rgb(0,0,0);" rx="1"/>
<text x="478" y="393" style="font-family:sans-serif;font-size:10px;">
()
</text>
<rect x="288.46240234375" y="224.0" width="64.0" height="15.0" style="fill:orange; stroke:rgb(0,0,0);" rx="1"/>
<text x="290" y="233" style="font-family:sans-serif;font-size:10px;">
functionDecl
</text>
<rect x="155.44482421875" y="576.0" width="26.0" height="15.0" style="fill:orange; stroke:rgb(0,0,0);" rx="1"/>
<text x="157" y="585" style="font-family:sans-serif;font-size:10px;">
expr
</text>
<rect x="685.94482421875" y="512.0" width="8.0" height="15.0" style="fill:orange; stroke:rgb(0,0,0);" rx="1"/>
<text x="687" y="521" style="font-family:sans-serif;font-size:10px;">
{
</text>
<rect x="714.44482421875" y="608.0" width="16.0" height="15.0" style="fill:orange; stroke:rgb(0,0,0);" rx="1"/>
<text x="716" y="617" style="font-family:sans-serif;font-size:10px;">
29
</text>
<rect x="156.32080078125" y="160.0" width="18.0" height="15.0" style="fill:orange; stroke:rgb(0,0,0);" rx="1"/>
<text x="158" y="169" style="font-family:sans-serif;font-size:10px;">
ref
</text>
<rect x="141.17919921875" y="256.0" width="15.0" height="15.0" style="fill:orange; stroke:rgb(0,0,0);" rx="1"/>
<text x="143" y="265" style="font-family:sans-serif;font-size:10px;">
let
</text>
<rect x="97.94482421875" y="640.0" width="10.0" height="15.0" style="fill:orange; stroke:rgb(0,0,0);" rx="1"/>
<text x="99" y="649" style="font-family:sans-serif;font-size:10px;">
b
</text>
<rect x="464.17919921875" y="352.0" width="37.0" height="15.0" style="fill:orange; stroke:rgb(0,0,0);" rx="1"/>
<text x="466" y="361" style="font-family:sans-serif;font-size:10px;">
consts
</text>
<rect x="189.94482421875" y="640.0" width="10.0" height="15.0" style="fill:orange; stroke:rgb(0,0,0);" rx="1"/>
<text x="191" y="649" style="font-family:sans-serif;font-size:10px;">
+
</text>
<rect x="467.94482421875" y="512.0" width="8.0" height="15.0" style="fill:orange; stroke:rgb(0,0,0);" rx="1"/>
<text x="469" y="521" style="font-family:sans-serif;font-size:10px;">
{
</text>
<rect x="517.67919921875" y="416.0" width="7.0" height="15.0" style="fill:orange; stroke:rgb(0,0,0);" rx="1"/>
<text x="519" y="425" style="font-family:sans-serif;font-size:10px;">
;
</text>
<rect x="76.94482421875" y="608.0" width="6.0" height="15.0" style="fill:orange; stroke:rgb(0,0,0);" rx="1"/>
<text x="78" y="617" style="font-family:sans-serif;font-size:10px;">
!
</text>
<rect x="561.31201171875" y="352.0" width="15.0" height="15.0" style="fill:orange; stroke:rgb(0,0,0);" rx="1"/>
<text x="563" y="361" style="font-family:sans-serif;font-size:10px;">
let
</text>
<rect x="285.94482421875" y="608.0" width="26.0" height="15.0" style="fill:orange; stroke:rgb(0,0,0);" rx="1"/>
<text x="287" y="617" style="font-family:sans-serif;font-size:10px;">
expr
</text>
<rect x="375.17919921875" y="352.0" width="10.0" height="15.0" style="fill:orange; stroke:rgb(0,0,0);" rx="1"/>
<text x="377" y="361" style="font-family:sans-serif;font-size:10px;">
n
</text>
<rect x="277.44482421875" y="576.0" width="43.0" height="15.0" style="fill:orange; stroke:rgb(0,0,0);" rx="1"/>
<text x="279" y="585" style="font-family:sans-serif;font-size:10px;">
exprList
</text>
<rect x="168.44482421875" y="672.0" width="26.0" height="15.0" style="fill:orange; stroke:rgb(0,0,0);" rx="1"/>
<text x="170" y="681" style="font-family:sans-serif;font-size:10px;">
expr
</text>
<rect x="618.94482421875" y="608.0" width="37.0" height="15.0" style="fill:orange; stroke:rgb(0,0,0);" rx="1"/>
<text x="620" y="617" style="font-family:sans-serif;font-size:10px;">
consts
</text>
<rect x="251.19482421875" y="512.0" width="51.0" height="15.0" style="fill:orange; stroke:rgb(0,0,0);" rx="1"/>
<text x="253" y="521" style="font-family:sans-serif;font-size:10px;">
statement
</text>
<rect x="56.0" y="64.0" width="18.0" height="15.0" style="fill:orange; stroke:rgb(0,0,0);" rx="1"/>
<text x="58" y="73" style="font-family:sans-serif;font-size:10px;">
ref
</text>
<rect x="745.44482421875" y="416.0" width="26.0" height="15.0" style="fill:orange; stroke:rgb(0,0,0);" rx="1"/>
<text x="747" y="425" style="font-family:sans-serif;font-size:10px;">
expr
</text>
<rect x="583.31201171875" y="352.0" width="7.0" height="15.0" style="fill:orange; stroke:rgb(0,0,0);" rx="1"/>
<text x="585" y="361" style="font-family:sans-serif;font-size:10px;">
t
</text>
<rect x="495.67919921875" y="384.0" width="51.0" height="15.0" style="fill:orange; stroke:rgb(0,0,0);" rx="1"/>
<text x="497" y="393" style="font-family:sans-serif;font-size:10px;">
statement
</text>
<rect x="514.94482421875" y="544.0" width="26.0" height="15.0" style="fill:orange; stroke:rgb(0,0,0);" rx="1"/>
<text x="516" y="553" style="font-family:sans-serif;font-size:10px;">
expr
</text>
<rect x="576.94482421875" y="448.0" width="51.0" height="15.0" style="fill:orange; stroke:rgb(0,0,0);" rx="1"/>
<text x="578" y="457" style="font-family:sans-serif;font-size:10px;">
statement
</text>
<rect x="576.44482421875" y="576.0" width="26.0" height="15.0" style="fill:orange; stroke:rgb(0,0,0);" rx="1"/>
<text x="578" y="585" style="font-family:sans-serif;font-size:10px;">
expr
</text>
<rect x="142.94482421875" y="544.0" width="51.0" height="15.0" style="fill:orange; stroke:rgb(0,0,0);" rx="1"/>
<text x="144" y="553" style="font-family:sans-serif;font-size:10px;">
statement
</text>
<rect x="78.44482421875" y="576.0" width="26.0" height="15.0" style="fill:orange; stroke:rgb(0,0,0);" rx="1"/>
<text x="80" y="585" style="font-family:sans-serif;font-size:10px;">
expr
</text>
<rect x="88.17919921875" y="288.0" width="10.0" height="15.0" style="fill:orange; stroke:rgb(0,0,0);" rx="1"/>
<text x="90" y="297" style="font-family:sans-serif;font-size:10px;">
1
</text>
<rect x="482.94482421875" y="512.0" width="43.0" height="15.0" style="fill:orange; stroke:rgb(0,0,0);" rx="1"/>
<text x="484" y="521" style="font-family:sans-serif;font-size:10px;">
exprList
</text>
<rect x="411.67919921875" y="352.0" width="37.0" height="15.0" style="fill:orange; stroke:rgb(0,0,0);" rx="1"/>
<text x="413" y="361" style="font-family:sans-serif;font-size:10px;">
consts
</text>
<rect x="764.94482421875" y="480.0" width="10.0" height="15.0" style="fill:orange; stroke:rgb(0,0,0);" rx="1"/>
<text x="766" y="489" style="font-family:sans-serif;font-size:10px;">
a
</text>
<rect x="131.82080078125" y="96.0" width="51.0" height="15.0" style="fill:orange; stroke:rgb(0,0,0);" rx="1"/>
<text x="133" y="105" style="font-family:sans-serif;font-size:10px;">
statement
</text>
<rect x="105.17919921875" y="288.0" width="83.0" height="15.0" style="fill:orange; stroke:rgb(0,0,0);" rx="1"/>
<text x="107" y="297" style="font-family:sans-serif;font-size:10px;">
formalParameter
</text>
<rect x="205.44482421875" y="672.0" width="6.0" height="15.0" style="fill:orange; stroke:rgb(0,0,0);" rx="1"/>
<text x="207" y="681" style="font-family:sans-serif;font-size:10px;">
!
</text>
<rect x="469.19482421875" y="480.0" width="26.0" height="15.0" style="fill:orange; stroke:rgb(0,0,0);" rx="1"/>
<text x="471" y="489" style="font-family:sans-serif;font-size:10px;">
expr
</text>
<rect x="589.44482421875" y="480.0" width="26.0" height="15.0" style="fill:orange; stroke:rgb(0,0,0);" rx="1"/>
<text x="591" y="489" style="font-family:sans-serif;font-size:10px;">
expr
</text>
<rect x="732.94482421875" y="384.0" width="51.0" height="15.0" style="fill:orange; stroke:rgb(0,0,0);" rx="1"/>
<text x="734" y="393" style="font-family:sans-serif;font-size:10px;">
statement
</text>
<rect x="74.67919921875" y="256.0" width="37.0" height="15.0" style="fill:orange; stroke:rgb(0,0,0);" rx="1"/>
<text x="76" y="265" style="font-family:sans-serif;font-size:10px;">
consts
</text>
<rect x="226.44482421875" y="704.0" width="10.0" height="15.0" style="fill:orange; stroke:rgb(0,0,0);" rx="1"/>
<text x="228" y="713" style="font-family:sans-serif;font-size:10px;">
b
</text>
<rect x="348.44482421875" y="480.0" width="51.0" height="15.0" style="fill:orange; stroke:rgb(0,0,0);" rx="1"/>
<text x="350" y="489" style="font-family:sans-serif;font-size:10px;">
statement
</text>
<rect x="65.94482421875" y="544.0" width="51.0" height="15.0" style="fill:orange; stroke:rgb(0,0,0);" rx="1"/>
<text x="67" y="553" style="font-family:sans-serif;font-size:10px;">
statement
</text>
<rect x="425.17919921875" y="384.0" width="10.0" height="15.0" style="fill:orange; stroke:rgb(0,0,0);" rx="1"/>
<text x="427" y="393" style="font-family:sans-serif;font-size:10px;">
0
</text>
<rect x="128.94482421875" y="608.0" width="26.0" height="15.0" style="fill:orange; stroke:rgb(0,0,0);" rx="1"/>
<text x="130" y="617" style="font-family:sans-serif;font-size:10px;">
expr
</text>
<rect x="285.17919921875" y="288.0" width="83.0" height="15.0" style="fill:orange; stroke:rgb(0,0,0);" rx="1"/>
<text x="287" y="297" style="font-family:sans-serif;font-size:10px;">
formalParameter
</text>
<rect x="359.91357421875" y="416.0" width="51.0" height="15.0" style="fill:orange; stroke:rgb(0,0,0);" rx="1"/>
<text x="361" y="425" style="font-family:sans-serif;font-size:10px;">
statement
</text>
<rect x="100.5" y="96.0" width="12.0" height="15.0" style="fill:orange; stroke:rgb(0,0,0);" rx="1"/>
<text x="102" y="105" style="font-family:sans-serif;font-size:10px;">
in
</text>
<rect x="583.81201171875" y="320.0" width="41.0" height="15.0" style="fill:orange; stroke:rgb(0,0,0);" rx="1"/>
<text x="585" y="329" style="font-family:sans-serif;font-size:10px;">
varDecl
</text>
<rect x="206.94482421875" y="640.0" width="26.0" height="15.0" style="fill:orange; stroke:rgb(0,0,0);" rx="1"/>
<text x="208" y="649" style="font-family:sans-serif;font-size:10px;">
expr
</text>
<rect x="293.94482421875" y="640.0" width="10.0" height="15.0" style="fill:orange; stroke:rgb(0,0,0);" rx="1"/>
<text x="295" y="649" style="font-family:sans-serif;font-size:10px;">
z
</text>
<rect x="342.44482421875" y="576.0" width="10.0" height="15.0" style="fill:orange; stroke:rgb(0,0,0);" rx="1"/>
<text x="344" y="585" style="font-family:sans-serif;font-size:10px;">
a
</text>
<rect x="650.94482421875" y="448.0" width="12.0" height="15.0" style="fill:orange; stroke:rgb(0,0,0);" rx="1"/>
<text x="652" y="457" style="font-family:sans-serif;font-size:10px;">
in
</text>
<rect x="709.44482421875" y="544.0" width="26.0" height="15.0" style="fill:orange; stroke:rgb(0,0,0);" rx="1"/>
<text x="711" y="553" style="font-family:sans-serif;font-size:10px;">
expr
</text>
<rect x="367.17919921875" y="320.0" width="26.0" height="15.0" style="fill:orange; stroke:rgb(0,0,0);" rx="1"/>
<text x="369" y="329" style="font-family:sans-serif;font-size:10px;">
expr
</text>
<rect x="417.17919921875" y="320.0" width="26.0" height="15.0" style="fill:orange; stroke:rgb(0,0,0);" rx="1"/>
<text x="419" y="329" style="font-family:sans-serif;font-size:10px;">
expr
</text>
<rect x="387.44482421875" y="544.0" width="26.0" height="15.0" style="fill:orange; stroke:rgb(0,0,0);" rx="1"/>
<text x="389" y="553" style="font-family:sans-serif;font-size:10px;">
expr
</text>
<rect x="656.94482421875" y="512.0" width="22.0" height="15.0" style="fill:orange; stroke:rgb(0,0,0);" rx="1"/>
<text x="658" y="521" style="font-family:sans-serif;font-size:10px;">
fibo
</text>
<rect x="67.67919921875" y="192.0" width="51.0" height="15.0" style="fill:orange; stroke:rgb(0,0,0);" rx="1"/>
<text x="69" y="201" style="font-family:sans-serif;font-size:10px;">
statement
</text>
<rect x="743.94482421875" y="448.0" width="6.0" height="15.0" style="fill:orange; stroke:rgb(0,0,0);" rx="1"/>
<text x="745" y="457" style="font-family:sans-serif;font-size:10px;">
!
</text>
<rect x="578.81201171875" y="288.0" width="51.0" height="15.0" style="fill:orange; stroke:rgb(0,0,0);" rx="1"/>
<text x="580" y="297" style="font-family:sans-serif;font-size:10px;">
statement
</text>
<rect x="500.94482421875" y="544.0" width="7.0" height="15.0" style="fill:orange; stroke:rgb(0,0,0);" rx="1"/>
<text x="502" y="553" style="font-family:sans-serif;font-size:10px;">
,
</text>
<rect x="334.44482421875" y="544.0" width="26.0" height="15.0" style="fill:orange; stroke:rgb(0,0,0);" rx="1"/>
<text x="336" y="553" style="font-family:sans-serif;font-size:10px;">
expr
</text>
<rect x="30.17919921875" y="96.0" width="51.0" height="15.0" style="fill:orange; stroke:rgb(0,0,0);" rx="1"/>
<text x="32" y="105" style="font-family:sans-serif;font-size:10px;">
statement
</text>
<rect x="360.94482421875" y="512.0" width="26.0" height="15.0" style="fill:orange; stroke:rgb(0,0,0);" rx="1"/>
<text x="362" y="521" style="font-family:sans-serif;font-size:10px;">
expr
</text>
<rect x="466.74560546875" y="256.0" width="51.0" height="15.0" style="fill:orange; stroke:rgb(0,0,0);" rx="1"/>
<text x="468" y="265" style="font-family:sans-serif;font-size:10px;">
statement
</text>
<rect x="163.17919921875" y="256.0" width="22.0" height="15.0" style="fill:orange; stroke:rgb(0,0,0);" rx="1"/>
<text x="165" y="265" style="font-family:sans-serif;font-size:10px;">
fibo
</text>
<rect x="100.32080078125" y="160.0" width="15.0" height="15.0" style="fill:orange; stroke:rgb(0,0,0);" rx="1"/>
<text x="102" y="169" style="font-family:sans-serif;font-size:10px;">
let
</text>
<rect x="475.94482421875" y="576.0" width="10.0" height="15.0" style="fill:orange; stroke:rgb(0,0,0);" rx="1"/>
<text x="477" y="585" style="font-family:sans-serif;font-size:10px;">
a
</text>
<rect x="641.94482421875" y="512.0" width="8.0" height="15.0" style="fill:orange; stroke:rgb(0,0,0);" rx="1"/>
<text x="643" y="521" style="font-family:sans-serif;font-size:10px;">
}
</text>
<rect x="457.17919921875" y="288.0" width="51.0" height="15.0" style="fill:orange; stroke:rgb(0,0,0);" rx="1"/>
<text x="459" y="297" style="font-family:sans-serif;font-size:10px;">
statement
</text>
<rect x="285.13232421875" y="480.0" width="7.0" height="15.0" style="fill:orange; stroke:rgb(0,0,0);" rx="1"/>
<text x="287" y="489" style="font-family:sans-serif;font-size:10px;">
;
</text>
<rect x="181.94482421875" y="608.0" width="26.0" height="15.0" style="fill:orange; stroke:rgb(0,0,0);" rx="1"/>
<text x="183" y="617" style="font-family:sans-serif;font-size:10px;">
expr
</text>
<rect x="176.44482421875" y="704.0" width="10.0" height="15.0" style="fill:orange; stroke:rgb(0,0,0);" rx="1"/>
<text x="178" y="713" style="font-family:sans-serif;font-size:10px;">
a
</text>
<rect x="136.82080078125" y="128.0" width="41.0" height="15.0" style="fill:orange; stroke:rgb(0,0,0);" rx="1"/>
<text x="138" y="137" style="font-family:sans-serif;font-size:10px;">
varDecl
</text>
<rect x="392.17919921875" y="288.0" width="26.0" height="15.0" style="fill:orange; stroke:rgb(0,0,0);" rx="1"/>
<text x="394" y="297" style="font-family:sans-serif;font-size:10px;">
expr
</text>
<rect x="36.5" y="32.0" width="41.0" height="15.0" style="fill:orange; stroke:rgb(0,0,0);" rx="1"/>
<text x="38" y="41" style="font-family:sans-serif;font-size:10px;">
varDecl
</text>
<rect x="195.17919921875" y="288.0" width="83.0" height="15.0" style="fill:orange; stroke:rgb(0,0,0);" rx="1"/>
<text x="197" y="297" style="font-family:sans-serif;font-size:10px;">
formalParameter
</text>
<rect x="531.49560546875" y="288.0" width="24.0" height="15.0" style="fill:orange; stroke:rgb(0,0,0);" rx="1"/>
<text x="533" y="297" style="font-family:sans-serif;font-size:10px;">
else
</text>
<rect x="609.44482421875" y="576.0" width="8.0" height="15.0" style="fill:orange; stroke:rgb(0,0,0);" rx="1"/>
<text x="611" y="585" style="font-family:sans-serif;font-size:10px;">
-
</text>
<rect x="0.0" y="64.0" width="15.0" height="15.0" style="fill:orange; stroke:rgb(0,0,0);" rx="1"/>
<text x="2" y="73" style="font-family:sans-serif;font-size:10px;">
let
</text>
<rect x="756.94482421875" y="448.0" width="26.0" height="15.0" style="fill:orange; stroke:rgb(0,0,0);" rx="1"/>
<text x="758" y="457" style="font-family:sans-serif;font-size:10px;">
expr
</text>
<rect x="632.44482421875" y="640.0" width="10.0" height="15.0" style="fill:orange; stroke:rgb(0,0,0);" rx="1"/>
<text x="634" y="649" style="font-family:sans-serif;font-size:10px;">
1
</text>
<rect x="631.44482421875" y="416.0" width="51.0" height="15.0" style="fill:orange; stroke:rgb(0,0,0);" rx="1"/>
<text x="633" y="425" style="font-family:sans-serif;font-size:10px;">
statement
</text>
<rect x="700.94482421875" y="512.0" width="43.0" height="15.0" style="fill:orange; stroke:rgb(0,0,0);" rx="1"/>
<text x="702" y="521" style="font-family:sans-serif;font-size:10px;">
exprList
</text>
<rect x="136.94482421875" y="640.0" width="10.0" height="15.0" style="fill:orange; stroke:rgb(0,0,0);" rx="1"/>
<text x="138" y="649" style="font-family:sans-serif;font-size:10px;">
b
</text>
<rect x="192.17919921875" y="256.0" width="89.0" height="15.0" style="fill:orange; stroke:rgb(0,0,0);" rx="1"/>
<text x="194" y="265" style="font-family:sans-serif;font-size:10px;">
formalParameters
</text>
<rect x="181.32080078125" y="160.0" width="51.0" height="15.0" style="fill:orange; stroke:rgb(0,0,0);" rx="1"/>
<text x="183" y="169" style="font-family:sans-serif;font-size:10px;">
statement
</text>
<rect x="155.44482421875" y="672.0" width="6.0" height="15.0" style="fill:orange; stroke:rgb(0,0,0);" rx="1"/>
<text x="157" y="681" style="font-family:sans-serif;font-size:10px;">
!
</text>
<rect x="37.17919921875" y="160.0" width="37.0" height="15.0" style="fill:orange; stroke:rgb(0,0,0);" rx="1"/>
<text x="39" y="169" style="font-family:sans-serif;font-size:10px;">
consts
</text>
<rect x="42.67919921875" y="128.0" width="26.0" height="15.0" style="fill:orange; stroke:rgb(0,0,0);" rx="1"/>
<text x="44" y="137" style="font-family:sans-serif;font-size:10px;">
expr
</text>
<rect x="698.44482421875" y="480.0" width="26.0" height="15.0" style="fill:orange; stroke:rgb(0,0,0);" rx="1"/>
<text x="700" y="489" style="font-family:sans-serif;font-size:10px;">
expr
</text>
<rect x="366.96240234375" y="256.0" width="14.0" height="15.0" style="fill:orange; stroke:rgb(0,0,0);" rx="1"/>
<text x="368" y="265" style="font-family:sans-serif;font-size:10px;">
-&gt;
</text>
</svg>